Palanquin Bold.ufo
<glyph name="parenleft" format="1">
  <advance width="286"/>
  <unicode hex="0028"/>
  <outline>
    <contour>
      <point x="42" y="188"/>
      <point x="90" y="65"/>
      <point x="169" y="-39" type="curve"/>
      <point x="269" y="-1" type="line"/>
      <point x="212" y="69"/>
      <point x="162" y="219"/>
      <point x="162" y="322" type="curve" smooth="yes"/>
      <point x="162" y="422"/>
      <point x="212" y="566"/>
      <point x="270" y="645" type="curve"/>
      <point x="169" y="682" type="line"/>
      <point x="87" y="566"/>
      <point x="42" y="451"/>
      <point x="42" y="321" type="curve" smooth="yes"/>
    </contour>
  </outline>
</glyph>
<glyph name="parenright" format="1">
  <advance width="286"/>
  <unicode hex="0029"/>
  <outline>
    <contour>
      <point x="244" y="454"/>
      <point x="195" y="577"/>
      <point x="117" y="682" type="curve"/>
      <point x="17" y="643" type="line"/>
      <point x="74" y="575"/>
      <point x="122" y="423"/>
      <point x="122" y="321" type="curve" smooth="yes"/>
      <point x="122" y="221"/>
      <point x="74" y="77"/>
      <point x="16" y="-2" type="curve"/>
      <point x="116" y="-39" type="line"/>
      <point x="197" y="77"/>
      <point x="244" y="192"/>
      <point x="244" y="321" type="curve"/>
    </contour>
  </outline>
</glyph>
<glyph name="asterisk" format="1">
  <advance width="379"/>
  <unicode hex="002A"/>
  <outline>
    <contour>
      <point x="242" y="668" type="line"/>
      <point x="241" y="767" type="line"/>
      <point x="139" y="767" type="line"/>
      <point x="138" y="731"/>
      <point x="137" y="700"/>
      <point x="137" y="668" type="curve"/>
      <point x="36" y="690" type="line"/>
      <point x="6" y="599" type="line"/>
      <point x="41" y="593"/>
      <point x="74" y="587"/>
      <point x="107" y="578" type="curve"/>
      <point x="38" y="481" type="line"/>
      <point x="117" y="420" type="line"/>
      <point x="190" y="519" type="line"/>
      <point x="264" y="420" type="line"/>
      <point x="342" y="481" type="line"/>
      <point x="273" y="579" type="line"/>
      <point x="374" y="599" type="line"/>
      <point x="344" y="690" type="line"/>
    </contour>
  </outline>
</glyph>
<glyph name="plus" format="1">
  <advance width="509"/>
  <unicode hex="002B"/>
  <outline>
    <contour>
      <point x="494" y="225" type="line"/>
      <point x="484" y="324" type="line"/>
      <point x="321" y="324" type="line"/>
      <point x="321" y="531" type="line"/>
      <point x="199" y="534" type="line"/>
      <point x="199" y="324" type="line"/>
      <point x="16" y="324" type="line"/>
      <point x="24" y="225" type="line"/>
      <point x="199" y="225" type="line"/>
      <point x="199" y="8" type="line"/>
      <point x="321" y="4" type="line"/>
      <point x="321" y="225" type="line"/>
    </contour>
  </outline>
</glyph>
<glyph name="comma" format="1">
  <advance width="187"/>
  <unicode hex="002C"/>
  <outline>
    <contour>
      <point x="171" y="109"/>
      <point x="137" y="146"/>
      <point x="95" y="146" type="curve" smooth="yes"/>
      <point x="55" y="146"/>
      <point x="23" y="108"/>
      <point x="23" y="72" type="curve" smooth="yes"/>
      <point x="23" y="36"/>
      <point x="55" y="0"/>
      <point x="78" y="0" type="curve"/>
      <point x="69" y="-43"/>
      <point x="45" y="-63"/>
      <point x="10" y="-92" type="curve"/>
      <point x="39" y="-154" type="line"/>
      <point x="116" y="-111"/>
      <point x="171" y="-18"/>
      <point x="171" y="56" type="curve" smooth="yes"/>
    </contour>
  </outline>
</glyph>
<glyph name="period" format="1">
  <advance width="167"/>
  <unicode hex="002E"/>
  <outline>
    <contour>
      <point x="156" y="115"/>
      <point x="125" y="146"/>
      <point x="84" y="146" type="curve" smooth="yes"/>
      <point x="42" y="146"/>
      <point x="10" y="115"/>
      <point x="10" y="73" type="curve" smooth="yes"/>
      <point x="10" y="31"/>
      <point x="42" y="0"/>
      <point x="84" y="0" type="curve" smooth="yes"/>
      <point x="125" y="0"/>
      <point x="156" y="31"/>
      <point x="156" y="73" type="curve" smooth="yes"/>
    </contour>
  </outline>
</glyph>
<glyph name="one" format="1">
  <advance width="445"/>
  <unicode hex="0031"/>
  <outline>
    <contour>
      <point x="66" y="90" type="line"/>
      <point x="76" y="0" type="line"/>
      <point x="393" y="0" type="line"/>
      <point x="382" y="90" type="line"/>
      <point x="305" y="90" type="line"/>
      <point x="305" y="566" type="line"/>
      <point x="218" y="566" type="line"/>
      <point x="62" y="475" type="line"/>
      <point x="123" y="387" type="line"/>
      <point x="175" y="417" type="line"/>
      <point x="175" y="90" type="line"/>
    </contour>
  </outline>
</glyph>
<glyph name="six" format="1">
  <advance width="559"/>
  <unicode hex="0036"/>
  <outline>
    <contour>
      <point x="444" y="-13"/>
      <point x="527" y="90"/>
      <point x="527" y="203" type="curve" smooth="yes"/>
      <point x="527" y="312"/>
      <point x="441" y="406"/>
      <point x="310" y="406" type="curve" smooth="yes"/>
      <point x="269" y="406"/>
      <point x="226" y="389"/>
      <point x="191" y="367" type="curve"/>
      <point x="227" y="451"/>
      <point x="306" y="526"/>
      <point x="407" y="549" type="curve"/>
      <point x="350" y="634" type="line"/>
      <point x="171" y="598"/>
      <point x="52" y="409"/>
      <point x="52" y="262" type="curve" smooth="yes"/>
      <point x="52" y="78"/>
      <point x="167" y="-13"/>
      <point x="314" y="-13" type="curve" smooth="yes"/>
    </contour>
    <contour>
      <point x="371" y="313"/>
      <point x="411" y="255"/>
      <point x="411" y="197" type="curve" smooth="yes"/>
      <point x="411" y="144"/>
      <point x="370" y="94"/>
      <point x="307" y="94" type="curve" smooth="yes"/>
      <point x="225" y="94"/>
      <point x="182" y="147"/>
      <point x="171" y="225" type="curve"/>
      <point x="188" y="268"/>
      <point x="238" y="313"/>
      <point x="304" y="313" type="curve" smooth="yes"/>
    </contour>
  </outline>
</glyph>
<glyph name="seven" format="1">
  <advance width="507"/>
  <unicode hex="0037"/>
  <outline>
    <contour>
      <point x="49" y="-34" type="line"/>
      <point x="170" y="-69" type="line"/>
      <point x="486" y="514" type="line"/>
      <point x="448" y="566" type="line"/>
      <point x="42" y="566" type="line"/>
      <point x="58" y="461" type="line"/>
      <point x="323" y="461" type="line"/>
    </contour>
  </outline>
</glyph>
<glyph name="nine" format="1">
  <advance width="559"/>
  <unicode hex="0039"/>
  <outline>
    <contour>
      <point x="119" y="579"/>
      <point x="31" y="475"/>
      <point x="31" y="363" type="curve" smooth="yes"/>
      <point x="31" y="254"/>
      <point x="121" y="160"/>
      <point x="253" y="160" type="curve" smooth="yes"/>
      <point x="292" y="160"/>
      <point x="332" y="174"/>
      <point x="365" y="196" type="curve"/>
      <point x="328" y="113"/>
      <point x="251" y="41"/>
      <point x="150" y="17" type="curve"/>
      <point x="209" y="-69" type="line"/>
      <point x="387" y="-31"/>
      <point x="505" y="156"/>
      <point x="505" y="304" type="curve" smooth="yes"/>
      <point x="505" y="487"/>
      <point x="396" y="579"/>
      <point x="249" y="579" type="curve" smooth="yes"/>
    </contour>
    <contour>
      <point x="187" y="253"/>
      <point x="148" y="311"/>
      <point x="148" y="369" type="curve" smooth="yes"/>
      <point x="148" y="422"/>
      <point x="188" y="472"/>
      <point x="252" y="472" type="curve" smooth="yes"/>
      <point x="332" y="472"/>
      <point x="376" y="420"/>
      <point x="387" y="340" type="curve"/>
      <point x="370" y="298"/>
      <point x="321" y="253"/>
      <point x="253" y="253" type="curve" smooth="yes"/>
    </contour>
  </outline>
</glyph>
<glyph name="colon" format="1">
  <advance width="167"/>
  <unicode hex="003A"/>
  <outline>
    <contour>
      <point x="156" y="115"/>
      <point x="125" y="146"/>
      <point x="84" y="146" type="curve" smooth="yes"/>
      <point x="42" y="146"/>
      <point x="10" y="115"/>
      <point x="10" y="73" type="curve" smooth="yes"/>
      <point x="10" y="31"/>
      <point x="42" y="0"/>
      <point x="84" y="0" type="curve" smooth="yes"/>
      <point x="125" y="0"/>
      <point x="156" y="31"/>
      <point x="156" y="73" type="curve" smooth="yes"/>
    </contour>
    <contour>
      <point x="156" y="441"/>
      <point x="125" y="474"/>
      <point x="84" y="474" type="curve" smooth="yes"/>
      <point x="42" y="474"/>
      <point x="10" y="441"/>
      <point x="10" y="401" type="curve" smooth="yes"/>
      <point x="10" y="360"/>
      <point x="42" y="327"/>
      <point x="84" y="327" type="curve" smooth="yes"/>
      <point x="125" y="327"/>
      <point x="156" y="360"/>
      <point x="156" y="401" type="curve" smooth="yes"/>
    </contour>
  </outline>
</glyph>
<glyph name="greater" format="1">
  <advance width="344"/>
  <unicode hex="003E"/>
  <outline>
    <contour>
      <point x="54" y="470" type="line"/>
      <point x="31" y="363" type="line"/>
      <point x="199" y="245" type="line"/>
      <point x="31" y="127" type="line"/>
      <point x="54" y="19" type="line"/>
      <point x="329" y="216" type="line"/>
      <point x="329" y="274" type="line"/>
    </contour>
  </outline>
</glyph>
<glyph name="A" format="1">
  <advance width="651"/>
  <unicode hex="0041"/>
  <outline>
    <contour>
      <point x="381" y="680" type="line"/>
      <point x="271" y="680" type="line"/>
      <point x="6" y="0" type="line"/>
      <point x="136" y="0" type="line"/>
      <point x="196" y="160" type="line"/>
      <point x="454" y="160" type="line"/>
      <point x="515" y="0" type="line"/>
      <point x="645" y="18" type="line"/>
    </contour>
    <contour>
      <point x="323" y="502" type="line"/>
      <point x="414" y="265" type="line"/>
      <point x="234" y="265" type="line"/>
    </contour>
    <contour>
      <point x="322" y="702" type="move" name="topU"/>
    </contour>
    <contour>
      <point x="556" y="0" type="move" name="bottom"/>
    </contour>
  </outline>
</glyph>
<glyph name="L" format="1">
  <advance width="543"/>
  <unicode hex="004C"/>
  <outline>
    <contour>
      <point x="533" y="0" type="line"/>
      <point x="513" y="101" type="line"/>
      <point x="213" y="101" type="line"/>
      <point x="213" y="680" type="line"/>
      <point x="84" y="680" type="line"/>
      <point x="84" y="0" type="line"/>
    </contour>
    <contour>
      <point x="176" y="702" type="move" name="topU"/>
    </contour>
    <contour>
      <point x="328" y="0" type="move" name="bottom"/>
    </contour>
  </outline>
</glyph>
<glyph name="N" format="1">
  <advance width="742"/>
  <unicode hex="004E"/>
  <outline>
    <contour>
      <point x="658" y="680" type="line"/>
      <point x="528" y="680" type="line"/>
      <point x="528" y="226" type="line"/>
      <point x="213" y="680" type="line"/>
      <point x="84" y="680" type="line"/>
      <point x="84" y="0" type="line"/>
      <point x="213" y="0" type="line"/>
      <point x="213" y="455" type="line"/>
      <point x="528" y="0" type="line"/>
      <point x="658" y="0" type="line"/>
    </contour>
    <contour>
      <point x="379" y="702" type="move" name="topU"/>
    </contour>
    <contour>
      <point x="372" y="0" type="move" name="bottom"/>
    </contour>
  </outline>
</glyph>
<glyph name="P" format="1">
  <advance width="607"/>
  <unicode hex="0050"/>
  <outline>
    <contour>
      <point x="84" y="0" type="line"/>
      <point x="213" y="0" type="line"/>
      <point x="213" y="237" type="line"/>
      <point x="288" y="237" type="line" smooth="yes"/>
      <point x="433" y="237"/>
      <point x="564" y="306"/>
      <point x="566" y="462" type="curve"/>
      <point x="566" y="619"/>
      <point x="446" y="680"/>
      <point x="297" y="680" type="curve" smooth="yes"/>
      <point x="84" y="680" type="line"/>
    </contour>
    <contour>
      <point x="293" y="572" type="line" smooth="yes"/>
      <point x="379" y="572"/>
      <point x="429" y="542"/>
      <point x="429" y="454" type="curve"/>
      <point x="423" y="378"/>
      <point x="373" y="344"/>
      <point x="295" y="344" type="curve" smooth="yes"/>
      <point x="213" y="344" type="line"/>
      <point x="213" y="572" type="line"/>
    </contour>
  </outline>
</glyph>
<glyph name="Q" format="1">
  <advance width="741"/>
  <unicode hex="0051"/>
  <outline>
    <contour>
      <point x="600" y="-36" type="line"/>
      <point x="676" y="31" type="line"/>
      <point x="609" y="96" type="line"/>
      <point x="657" y="157"/>
      <point x="684" y="244"/>
      <point x="684" y="344" type="curve" smooth="yes"/>
      <point x="684" y="540"/>
      <point x="584" y="696"/>
      <point x="370" y="696" type="curve"/>
      <point x="171" y="692"/>
      <point x="57" y="548"/>
      <point x="57" y="337" type="curve" smooth="yes"/>
      <point x="57" y="141"/>
      <point x="157" y="-14"/>
      <point x="370" y="-14" type="curve"/>
      <point x="433" y="-13"/>
      <point x="486" y="2"/>
      <point x="531" y="27" type="curve"/>
    </contour>
    <contour>
      <point x="247" y="95"/>
      <point x="192" y="195"/>
      <point x="192" y="338" type="curve" smooth="yes"/>
      <point x="192" y="491"/>
      <point x="265" y="586"/>
      <point x="372" y="586" type="curve" smooth="yes"/>
      <point x="494" y="586"/>
      <point x="549" y="486"/>
      <point x="549" y="344" type="curve" smooth="yes"/>
      <point x="549" y="276"/>
      <point x="538" y="224"/>
      <point x="519" y="185" type="curve"/>
      <point x="447" y="255" type="line"/>
      <point x="359" y="188" type="line"/>
      <point x="442" y="111" type="line"/>
      <point x="420" y="101"/>
      <point x="395" y="95"/>
      <point x="369" y="95" type="curve" smooth="yes"/>
    </contour>
  </outline>
</glyph>
<glyph name="R" format="1">
  <advance width="627"/>
  <unicode hex="0052"/>
  <outline>
    <contour>
      <point x="479" y="0" type="line"/>
      <point x="617" y="0" type="line"/>
      <point x="450" y="292" type="line"/>
      <point x="519" y="325"/>
      <point x="566" y="386"/>
      <point x="566" y="471" type="curve" smooth="yes"/>
      <point x="566" y="615"/>
      <point x="446" y="680"/>
      <point x="297" y="680" type="curve" smooth="yes"/>
      <point x="84" y="680" type="line"/>
      <point x="84" y="0" type="line"/>
      <point x="213" y="0" type="line"/>
      <point x="213" y="258" type="line"/>
      <point x="288" y="258" type="line" smooth="yes"/>
      <point x="304" y="258"/>
      <point x="320" y="258"/>
      <point x="335" y="260" type="curve"/>
    </contour>
    <contour>
      <point x="293" y="572" type="line" smooth="yes"/>
      <point x="379" y="572"/>
      <point x="429" y="542"/>
      <point x="429" y="465" type="curve" smooth="yes"/>
      <point x="429" y="393"/>
      <point x="373" y="364"/>
      <point x="295" y="364" type="curve" smooth="yes"/>
      <point x="213" y="364" type="line"/>
      <point x="213" y="572" type="line"/>
    </contour>
    <contour>
      <point x="339" y="0" type="move" name="bottom"/>
    </contour>
    <contour>
      <point x="295" y="696" type="move" name="top"/>
    </contour>
  </outline>
</glyph>
<glyph name="W" format="1">
  <advance width="1035"/>
  <unicode hex="0057"/>
  <outline>
    <contour>
      <point x="675" y="0" type="line"/>
      <point x="791" y="0" type="line"/>
      <point x="1030" y="680" type="line"/>
      <point x="899" y="680" type="line"/>
      <point x="740" y="186" type="line"/>
      <point x="577" y="680" type="line"/>
      <point x="456" y="680" type="line"/>
      <point x="303" y="185" type="line"/>
      <point x="134" y="680" type="line"/>
      <point x="6" y="662" type="line"/>
      <point x="244" y="0" type="line"/>
      <point x="359" y="0" type="line"/>
      <point x="514" y="486" type="line"/>
    </contour>
  </outline>
</glyph>
<glyph name="Z" format="1">
  <advance width="579"/>
  <unicode hex="005A"/>
  <outline>
    <contour>
      <point x="555" y="578" type="line"/>
      <point x="540" y="680" type="line"/>
      <point x="45" y="680" type="line"/>
      <point x="60" y="578" type="line"/>
      <point x="404" y="578" type="line"/>
      <point x="16" y="101" type="line"/>
      <point x="31" y="0" type="line"/>
      <point x="563" y="0" type="line"/>
      <point x="548" y="101" type="line"/>
      <point x="156" y="101" type="line"/>
    </contour>
  </outline>
</glyph>
<glyph name="bracketleft" format="1">
  <advance width="326"/>
  <unicode hex="005B"/>
  <outline>
    <contour>
      <point x="198" y="594" type="line"/>
      <point x="301" y="594" type="line"/>
      <point x="321" y="696" type="line"/>
      <point x="69" y="696" type="line"/>
      <point x="69" y="-88" type="line"/>
      <point x="321" y="-88" type="line"/>
      <point x="301" y="13" type="line"/>
      <point x="198" y="13" type="line"/>
    </contour>
  </outline>
</glyph>
<glyph name="bracketright" format="1">
  <advance width="326"/>
  <unicode hex="005D"/>
  <outline>
    <contour>
      <point x="127" y="13" type="line"/>
      <point x="24" y="13" type="line"/>
      <point x="6" y="-88" type="line"/>
      <point x="258" y="-88" type="line"/>
      <point x="258" y="696" type="line"/>
      <point x="6" y="696" type="line"/>
      <point x="24" y="594" type="line"/>
      <point x="127" y="594" type="line"/>
    </contour>
  </outline>
</glyph>
<glyph name="e" format="1">
  <advance width="545"/>
  <unicode hex="0065"/>
  <outline>
    <contour>
      <point x="42" y="87"/>
      <point x="144" y="-12"/>
      <point x="313" y="-12" type="curve" smooth="yes"/>
      <point x="355" y="-12"/>
      <point x="429" y="3"/>
      <point x="475" y="38" type="curve"/>
      <point x="437" y="132" type="line"/>
      <point x="390" y="110"/>
      <point x="360" y="99"/>
      <point x="316" y="99" type="curve" smooth="yes"/>
      <point x="239" y="99"/>
      <point x="192" y="140"/>
      <point x="180" y="204" type="curve"/>
      <point x="507" y="204" type="line"/>
      <point x="507" y="244" type="line" smooth="yes"/>
      <point x="507" y="382"/>
      <point x="439" y="498"/>
      <point x="286" y="498" type="curve" smooth="yes"/>
      <point x="135" y="498"/>
      <point x="42" y="398"/>
      <point x="42" y="242" type="curve" smooth="yes"/>
    </contour>
    <contour>
      <point x="335" y="387"/>
      <point x="370" y="356"/>
      <point x="384" y="291" type="curve"/>
      <point x="181" y="291" type="line"/>
      <point x="192" y="354"/>
      <point x="230" y="387"/>
      <point x="283" y="387" type="curve" smooth="yes"/>
    </contour>
    <contour>
      <point x="285" y="545" type="move" name="top"/>
    </contour>
    <contour>
      <point x="313" y="0" type="move" name="bottom"/>
    </contour>
  </outline>
</glyph>
<glyph name="f" format="1">
  <advance width="372"/>
  <unicode hex="0066"/>
  <outline>
    <contour>
      <point x="150" y="702"/>
      <point x="81" y="634"/>
      <point x="81" y="521" type="curve" smooth="yes"/>
      <point x="81" y="475" type="line"/>
      <point x="6" y="475" type="line"/>
      <point x="6" y="374" type="line"/>
      <point x="81" y="374" type="line"/>
      <point x="81" y="0" type="line"/>
      <point x="211" y="0" type="line"/>
      <point x="211" y="374" type="line"/>
      <point x="344" y="374" type="line"/>
      <point x="303" y="475" type="line"/>
      <point x="211" y="475" type="line"/>
      <point x="211" y="503" type="line" smooth="yes"/>
      <point x="211" y="554"/>
      <point x="230" y="590"/>
      <point x="276" y="590" type="curve" smooth="yes"/>
      <point x="292" y="590"/>
      <point x="310" y="585"/>
      <point x="330" y="577" type="curve"/>
      <point x="367" y="671" type="line"/>
      <point x="346" y="688"/>
      <point x="301" y="702"/>
      <point x="270" y="702" type="curve" smooth="yes"/>
    </contour>
  </outline>
</glyph>
<glyph name="i" format="1">
  <advance width="256"/>
  <unicode hex="0069"/>
  <outline>
    <contour>
      <point x="192" y="485" type="line"/>
      <point x="62" y="485" type="line"/>
      <point x="62" y="0" type="line"/>
      <point x="192" y="0" type="line"/>
    </contour>
    <contour>
      <point x="201" y="668"/>
      <point x="169" y="700"/>
      <point x="127" y="700" type="curve" smooth="yes"/>
      <point x="87" y="700"/>
      <point x="55" y="668"/>
      <point x="55" y="627" type="curve" smooth="yes"/>
      <point x="55" y="585"/>
      <point x="87" y="554"/>
      <point x="127" y="554" type="curve" smooth="yes"/>
      <point x="169" y="554"/>
      <point x="201" y="585"/>
      <point x="201" y="627" type="curve" smooth="yes"/>
    </contour>
    <contour>
      <point x="129" y="0" type="move" name="bottom"/>
    </contour>
  </outline>
</glyph>
<glyph name="j" format="1">
  <advance width="278"/>
  <unicode hex="006A"/>
  <outline>
    <contour>
      <point x="211" y="485" type="line"/>
      <point x="80" y="485" type="line"/>
      <point x="80" y="20" type="line" smooth="yes"/>
      <point x="80" y="-38"/>
      <point x="55" y="-70"/>
      <point x="-16" y="-95" type="curve"/>
      <point x="35" y="-194" type="line"/>
      <point x="162" y="-154"/>
      <point x="211" y="-104"/>
      <point x="211" y="-11" type="curve" smooth="yes"/>
    </contour>
    <contour>
      <point x="219" y="668"/>
      <point x="187" y="700"/>
      <point x="145" y="700" type="curve" smooth="yes"/>
      <point x="104" y="700"/>
      <point x="72" y="668"/>
      <point x="72" y="627" type="curve" smooth="yes"/>
      <point x="72" y="585"/>
      <point x="104" y="554"/>
      <point x="145" y="554" type="curve" smooth="yes"/>
      <point x="187" y="554"/>
      <point x="219" y="585"/>
      <point x="219" y="627" type="curve" smooth="yes"/>
    </contour>
  </outline>
</glyph>
<glyph name="k" format="1">
  <advance width="527"/>
  <unicode hex="006B"/>
  <outline>
    <contour>
      <point x="198" y="706" type="line"/>
      <point x="69" y="695" type="line"/>
      <point x="69" y="0" type="line"/>
      <point x="198" y="0" type="line"/>
      <point x="198" y="159" type="line"/>
      <point x="250" y="205" type="line"/>
      <point x="372" y="0" type="line"/>
      <point x="521" y="0" type="line"/>
      <point x="343" y="288" type="line"/>
      <point x="479" y="407" type="line"/>
      <point x="406" y="499" type="line"/>
      <point x="198" y="308" type="line"/>
    </contour>
    <contour>
      <point x="279" y="0" type="move" name="bottom"/>
    </contour>
  </outline>
</glyph>
<glyph name="p" format="1">
  <advance width="581"/>
  <unicode hex="0070"/>
  <outline>
    <contour>
      <point x="69" y="485" type="line"/>
      <point x="69" y="-219" type="line"/>
      <point x="198" y="-209" type="line"/>
      <point x="198" y="22" type="line"/>
      <point x="237" y="1"/>
      <point x="283" y="-12"/>
      <point x="318" y="-12" type="curve" smooth="yes"/>
      <point x="458" y="-12"/>
      <point x="539" y="99"/>
      <point x="539" y="246" type="curve" smooth="yes"/>
      <point x="539" y="393"/>
      <point x="462" y="504"/>
      <point x="318" y="504" type="curve" smooth="yes"/>
      <point x="272" y="504"/>
      <point x="207" y="483"/>
      <point x="163" y="449" type="curve"/>
      <point x="135" y="485" type="line"/>
    </contour>
    <contour>
      <point x="405" y="179"/>
      <point x="374" y="99"/>
      <point x="284" y="99" type="curve" smooth="yes"/>
      <point x="256" y="99"/>
      <point x="225" y="111"/>
      <point x="198" y="127" type="curve"/>
      <point x="198" y="365" type="line"/>
      <point x="225" y="382"/>
      <point x="256" y="393"/>
      <point x="284" y="393" type="curve" smooth="yes"/>
      <point x="382" y="393"/>
      <point x="405" y="323"/>
      <point x="405" y="246" type="curve" smooth="yes"/>
    </contour>
  </outline>
</glyph>
<glyph name="u" format="1">
  <advance width="575"/>
  <unicode hex="0075"/>
  <outline>
    <contour>
      <point x="291" y="-20"/>
      <point x="363" y="6"/>
      <point x="407" y="48" type="curve"/>
      <point x="444" y="0" type="line"/>
      <point x="512" y="0" type="line"/>
      <point x="512" y="485" type="line"/>
      <point x="382" y="485" type="line"/>
      <point x="382" y="134" type="line"/>
      <point x="350" y="111"/>
      <point x="309" y="91"/>
      <point x="274" y="91" type="curve" smooth="yes"/>
      <point x="218" y="91"/>
      <point x="188" y="125"/>
      <point x="188" y="186" type="curve" smooth="yes"/>
      <point x="188" y="485" type="line"/>
      <point x="57" y="485" type="line"/>
      <point x="57" y="180" type="line" smooth="yes"/>
      <point x="57" y="69"/>
      <point x="107" y="-20"/>
      <point x="239" y="-20" type="curve" smooth="yes"/>
    </contour>
    <contour>
      <point x="291" y="545" type="move" name="top"/>
    </contour>
    <contour>
      <point x="449" y="0" type="move" name="bottom"/>
    </contour>
  </outline>
</glyph>
<glyph name="v" format="1">
  <advance width="500"/>
  <unicode hex="0076"/>
  <outline>
    <contour>
      <point x="192" y="0" type="line"/>
      <point x="304" y="0" type="line"/>
      <point x="495" y="485" type="line"/>
      <point x="358" y="485" type="line"/>
      <point x="252" y="191" type="line"/>
      <point x="140" y="485" type="line"/>
      <point x="6" y="467" type="line"/>
    </contour>
  </outline>
</glyph>
<glyph name="w" format="1">
  <advance width="755"/>
  <unicode hex="0077"/>
  <outline>
    <contour>
      <point x="475" y="0" type="line"/>
      <point x="584" y="0" type="line"/>
      <point x="749" y="485" type="line"/>
      <point x="612" y="485" type="line"/>
      <point x="533" y="203" type="line"/>
      <point x="448" y="485" type="line"/>
      <point x="305" y="485" type="line"/>
      <point x="225" y="203" type="line"/>
      <point x="140" y="485" type="line"/>
      <point x="6" y="467" type="line"/>
      <point x="167" y="0" type="line"/>
      <point x="277" y="0" type="line"/>
      <point x="374" y="297" type="line"/>
    </contour>
  </outline>
</glyph>
<glyph name="braceleft" format="1">
  <advance width="290"/>
  <unicode hex="007B"/>
  <outline>
    <contour>
      <point x="227" y="453"/>
      <point x="192" y="494"/>
      <point x="192" y="532" type="curve" smooth="yes"/>
      <point x="192" y="543"/>
      <point x="205" y="559"/>
      <point x="230" y="559" type="curve"/>
      <point x="272" y="559" type="line"/>
      <point x="285" y="659" type="line"/>
      <point x="227" y="659" type="line"/>
      <point x="128" y="659"/>
      <point x="85" y="609"/>
      <point x="85" y="533" type="curve" smooth="yes"/>
      <point x="85" y="510"/>
      <point x="94" y="479"/>
      <point x="103" y="452" type="curve"/>
      <point x="103" y="453" type="line"/>
      <point x="111" y="429"/>
      <point x="118" y="409"/>
      <point x="118" y="395" type="curve" smooth="yes"/>
      <point x="118" y="368"/>
      <point x="97" y="351"/>
      <point x="76" y="351" type="curve"/>
      <point x="31" y="351" type="line"/>
      <point x="31" y="265" type="line"/>
      <point x="76" y="265" type="line"/>
      <point x="97" y="265"/>
      <point x="118" y="248"/>
      <point x="118" y="221" type="curve" smooth="yes"/>
      <point x="118" y="208"/>
      <point x="111" y="189"/>
      <point x="105" y="170" type="curve"/>
      <point x="93" y="140"/>
      <point x="85" y="105"/>
      <point x="85" y="85" type="curve" smooth="yes"/>
      <point x="85" y="8"/>
      <point x="128" y="-42"/>
      <point x="227" y="-42" type="curve"/>
      <point x="285" y="-42" type="line"/>
      <point x="272" y="58" type="line"/>
      <point x="230" y="58" type="line"/>
      <point x="205" y="58"/>
      <point x="192" y="74"/>
      <point x="192" y="85" type="curve" smooth="yes"/>
      <point x="192" y="121"/>
      <point x="227" y="166"/>
      <point x="227" y="209" type="curve" smooth="yes"/>
      <point x="227" y="251"/>
      <point x="216" y="285"/>
      <point x="192" y="309" type="curve"/>
      <point x="218" y="332"/>
      <point x="227" y="363"/>
      <point x="227" y="408" type="curve" smooth="yes"/>
    </contour>
  </outline>
</glyph>
<glyph name="braceright" format="1">
  <advance width="290"/>
  <unicode hex="007D"/>
  <outline>
    <contour>
      <point x="62" y="164"/>
      <point x="96" y="122"/>
      <point x="96" y="85" type="curve" smooth="yes"/>
      <point x="96" y="74"/>
      <point x="85" y="58"/>
      <point x="59" y="58" type="curve" smooth="yes"/>
      <point x="17" y="58" type="line"/>
      <point x="6" y="-42" type="line"/>
      <point x="62" y="-42" type="line" smooth="yes"/>
      <point x="160" y="-42"/>
      <point x="206" y="8"/>
      <point x="206" y="85" type="curve" smooth="yes"/>
      <point x="206" y="107"/>
      <point x="195" y="139"/>
      <point x="187" y="165" type="curve"/>
      <point x="187" y="164" type="line"/>
      <point x="179" y="188"/>
      <point x="172" y="207"/>
      <point x="172" y="221" type="curve" smooth="yes"/>
      <point x="172" y="249"/>
      <point x="192" y="266"/>
      <point x="213" y="266" type="curve" smooth="yes"/>
      <point x="258" y="266" type="line"/>
      <point x="258" y="351" type="line"/>
      <point x="213" y="351" type="line" smooth="yes"/>
      <point x="192" y="351"/>
      <point x="172" y="370"/>
      <point x="172" y="395" type="curve" smooth="yes"/>
      <point x="172" y="409"/>
      <point x="179" y="428"/>
      <point x="185" y="447" type="curve"/>
      <point x="196" y="476"/>
      <point x="206" y="512"/>
      <point x="206" y="533" type="curve" smooth="yes"/>
      <point x="206" y="609"/>
      <point x="160" y="659"/>
      <point x="62" y="659" type="curve" smooth="yes"/>
      <point x="6" y="659" type="line"/>
      <point x="17" y="559" type="line"/>
      <point x="59" y="559" type="line" smooth="yes"/>
      <point x="85" y="559"/>
      <point x="96" y="543"/>
      <point x="96" y="532" type="curve" smooth="yes"/>
      <point x="96" y="496"/>
      <point x="62" y="451"/>
      <point x="62" y="408" type="curve" smooth="yes"/>
      <point x="62" y="367"/>
      <point x="73" y="332"/>
      <point x="97" y="308" type="curve"/>
      <point x="72" y="286"/>
      <point x="62" y="253"/>
      <point x="62" y="209" type="curve"/>
    </contour>
  </outline>
</glyph>
<glyph name="asciitilde" format="1">
  <advance width="463"/>
  <unicode hex="007E"/>
  <outline>
    <contour>
      <point x="138" y="172" type="line"/>
      <point x="140" y="199"/>
      <point x="154" y="210"/>
      <point x="164" y="210" type="curve" smooth="yes"/>
      <point x="206" y="210"/>
      <point x="241" y="178"/>
      <point x="315" y="178" type="curve" smooth="yes"/>
      <point x="381" y="178"/>
      <point x="444" y="224"/>
      <point x="441" y="346" type="curve"/>
      <point x="325" y="346" type="line"/>
      <point x="323" y="319"/>
      <point x="309" y="308"/>
      <point x="298" y="308" type="curve" smooth="yes"/>
      <point x="257" y="308"/>
      <point x="222" y="339"/>
      <point x="148" y="339" type="curve" smooth="yes"/>
      <point x="83" y="339"/>
      <point x="18" y="293"/>
      <point x="22" y="172" type="curve"/>
    </contour>
  </outline>
</glyph>
<glyph name="currency" format="1">
  <advance width="683"/>
  <unicode hex="00A4"/>
  <outline>
    <contour>
      <point x="393" y="-12"/>
      <point x="437" y="0"/>
      <point x="476" y="21" type="curve"/>
      <point x="582" y="-85" type="line"/>
      <point x="662" y="11" type="line"/>
      <point x="566" y="108" type="line"/>
      <point x="589" y="146"/>
      <point x="602" y="191"/>
      <point x="603" y="243" type="curve"/>
      <point x="601" y="293"/>
      <point x="589" y="338"/>
      <point x="566" y="376" type="curve"/>
      <point x="662" y="473" type="line"/>
      <point x="582" y="569" type="line"/>
      <point x="476" y="463" type="line"/>
      <point x="437" y="485"/>
      <point x="393" y="497"/>
      <point x="344" y="498" type="curve"/>
      <point x="293" y="497"/>
      <point x="247" y="484"/>
      <point x="207" y="462" type="curve"/>
      <point x="101" y="569" type="line"/>
      <point x="21" y="473" type="line"/>
      <point x="120" y="372" type="line"/>
      <point x="98" y="337"/>
      <point x="85" y="291"/>
      <point x="85" y="241" type="curve"/>
      <point x="85" y="192"/>
      <point x="98" y="148"/>
      <point x="119" y="111" type="curve"/>
      <point x="21" y="11" type="line"/>
      <point x="101" y="-85" type="line"/>
      <point x="207" y="23" type="line"/>
      <point x="247" y="1"/>
      <point x="293" y="-12"/>
      <point x="344" y="-13" type="curve"/>
    </contour>
    <contour>
      <point x="409" y="372"/>
      <point x="468" y="316"/>
      <point x="469" y="242" type="curve"/>
      <point x="468" y="169"/>
      <point x="409" y="111"/>
      <point x="342" y="111" type="curve"/>
      <point x="276" y="113"/>
      <point x="220" y="170"/>
      <point x="219" y="242" type="curve"/>
      <point x="220" y="315"/>
      <point x="276" y="371"/>
      <point x="342" y="372" type="curve"/>
    </contour>
  </outline>
</glyph>
<glyph name="dieresis" format="1">
  <advance width="353"/>
  <unicode hex="00A8"/>
  <outline>
    <contour>
      <point x="337" y="703"/>
      <point x="309" y="732"/>
      <point x="272" y="732" type="curve" smooth="yes"/>
      <point x="237" y="732"/>
      <point x="207" y="703"/>
      <point x="207" y="667" type="curve" smooth="yes"/>
      <point x="207" y="631"/>
      <point x="237" y="603"/>
      <point x="272" y="603" type="curve" smooth="yes"/>
      <point x="309" y="603"/>
      <point x="337" y="631"/>
      <point x="337" y="667" type="curve" smooth="yes"/>
    </contour>
    <contour>
      <point x="145" y="703"/>
      <point x="118" y="732"/>
      <point x="82" y="732" type="curve" smooth="yes"/>
      <point x="45" y="732"/>
      <point x="16" y="703"/>
      <point x="16" y="667" type="curve" smooth="yes"/>
      <point x="16" y="631"/>
      <point x="45" y="603"/>
      <point x="82" y="603" type="curve" smooth="yes"/>
      <point x="118" y="603"/>
      <point x="145" y="631"/>
      <point x="145" y="667" type="curve" smooth="yes"/>
    </contour>
    <contour>
      <point x="177" y="545" type="move" name="_top"/>
    </contour>
  </outline>
</glyph>
<glyph name="copyright" format="1">
  <advance width="856"/>
  <unicode hex="00A9"/>
  <outline>
    <contour>
      <point x="240" y="29"/>
      <point x="125" y="162"/>
      <point x="125" y="337" type="curve"/>
      <point x="125" y="513"/>
      <point x="240" y="645"/>
      <point x="428" y="645" type="curve"/>
      <point x="617" y="645"/>
      <point x="731" y="513"/>
      <point x="731" y="337" type="curve" smooth="yes"/>
      <point x="731" y="162"/>
      <point x="617" y="29"/>
      <point x="428" y="29" type="curve"/>
    </contour>
    <contour>
      <point x="667" y="-46"/>
      <point x="815" y="123"/>
      <point x="815" y="336" type="curve" smooth="yes"/>
      <point x="815" y="551"/>
      <point x="667" y="719"/>
      <point x="428" y="719" type="curve"/>
      <point x="190" y="719"/>
      <point x="42" y="551"/>
      <point x="42" y="336" type="curve"/>
      <point x="42" y="123"/>
      <point x="190" y="-46"/>
      <point x="428" y="-46" type="curve"/>
    </contour>
    <contour>
      <point x="350" y="414"/>
      <point x="387" y="459"/>
      <point x="449" y="459" type="curve" smooth="yes"/>
      <point x="491" y="459"/>
      <point x="518" y="449"/>
      <point x="561" y="428" type="curve"/>
      <point x="596" y="526" type="line"/>
      <point x="552" y="556"/>
      <point x="484" y="571"/>
      <point x="447" y="571" type="curve" smooth="yes"/>
      <point x="314" y="571"/>
      <point x="216" y="481"/>
      <point x="216" y="337" type="curve"/>
      <point x="216" y="192"/>
      <point x="304" y="102"/>
      <point x="447" y="102" type="curve" smooth="yes"/>
      <point x="484" y="102"/>
      <point x="554" y="115"/>
      <point x="596" y="148" type="curve"/>
      <point x="561" y="245" type="line"/>
      <point x="518" y="224"/>
      <point x="491" y="213"/>
      <point x="449" y="213" type="curve" smooth="yes"/>
      <point x="387" y="213"/>
      <point x="350" y="258"/>
      <point x="350" y="337" type="curve" smooth="yes"/>
    </contour>
  </outline>
</glyph>
<glyph name="guillemotleft" format="1">
  <advance width="384"/>
  <unicode hex="00AB"/>
  <outline>
    <contour>
      <point x="181" y="83" type="line"/>
      <point x="204" y="169" type="line"/>
      <point x="119" y="245" type="line"/>
      <point x="204" y="321" type="line"/>
      <point x="181" y="408" type="line"/>
      <point x="21" y="269" type="line"/>
      <point x="21" y="221" type="line"/>
    </contour>
    <contour>
      <point x="351" y="83" type="line"/>
      <point x="372" y="169" type="line"/>
      <point x="288" y="245" type="line"/>
      <point x="372" y="321" type="line"/>
      <point x="351" y="408" type="line"/>
      <point x="190" y="269" type="line"/>
      <point x="190" y="221" type="line"/>
    </contour>
  </outline>
</glyph>
<glyph name="twosuperior" format="1">
  <advance width="401"/>
  <unicode hex="00B2"/>
  <outline>
    <contour>
      <point x="346" y="699"/>
      <point x="295" y="771"/>
      <point x="181" y="771" type="curve" smooth="yes"/>
      <point x="110" y="771"/>
      <point x="66" y="740"/>
      <point x="39" y="718" type="curve"/>
      <point x="83" y="634" type="line"/>
      <point x="85" y="637"/>
      <point x="137" y="675"/>
      <point x="174" y="675" type="curve" smooth="yes"/>
      <point x="206" y="675"/>
      <point x="225" y="656"/>
      <point x="225" y="636" type="curve" smooth="yes"/>
      <point x="225" y="589"/>
      <point x="206" y="562"/>
      <point x="168" y="531" type="curve" smooth="yes"/>
      <point x="31" y="419" type="line"/>
      <point x="31" y="337" type="line"/>
      <point x="358" y="337" type="line"/>
      <point x="344" y="427" type="line"/>
      <point x="189" y="427" type="line"/>
      <point x="242" y="470" type="line" smooth="yes"/>
      <point x="316" y="531"/>
      <point x="346" y="576"/>
      <point x="346" y="636" type="curve" smooth="yes"/>
    </contour>
  </outline>
</glyph>
<glyph name="onequarter" format="1">
  <advance width="928"/>
  <unicode hex="00BC"/>
  <outline>
    <contour>
      <point x="886" y="-81" type="line"/>
      <point x="897" y="15" type="line"/>
      <point x="806" y="15" type="line"/>
      <point x="806" y="322" type="line"/>
      <point x="724" y="322" type="line"/>
      <point x="477" y="15" type="line"/>
      <point x="489" y="-81" type="line"/>
      <point x="687" y="-81" type="line"/>
      <point x="687" y="-165" type="line"/>
      <point x="806" y="-165" type="line"/>
      <point x="806" y="-81" type="line"/>
    </contour>
    <contour>
      <point x="650" y="498" type="line"/>
      <point x="508" y="501" type="line"/>
      <point x="223" y="0" type="line"/>
      <point x="363" y="-4" type="line"/>
    </contour>
    <contour>
      <point x="65" y="426" type="line"/>
      <point x="73" y="337" type="line"/>
      <point x="337" y="337" type="line"/>
      <point x="328" y="426" type="line"/>
      <point x="266" y="426" type="line"/>
      <point x="266" y="763" type="line"/>
      <point x="189" y="763" type="line"/>
      <point x="62" y="694" type="line"/>
      <point x="108" y="611" type="line"/>
      <point x="148" y="633" type="line"/>
      <point x="148" y="426" type="line"/>
    </contour>
    <contour>
      <point x="598" y="15" type="line"/>
      <point x="687" y="122" type="line"/>
      <point x="687" y="15" type="line"/>
    </contour>
  </outline>
</glyph>
<glyph name="AE" format="1">
  <advance width="963"/>
  <unicode hex="00C6"/>
  <outline>
    <contour>
      <point x="0" y="18" type="line"/>
      <point x="124" y="0" type="line"/>
      <point x="234" y="160" type="line"/>
      <point x="466" y="160" type="line"/>
      <point x="466" y="0" type="line"/>
      <point x="942" y="0" type="line"/>
      <point x="922" y="101" type="line"/>
      <point x="597" y="101" type="line"/>
      <point x="597" y="292" type="line"/>
      <point x="799" y="292" type="line"/>
      <point x="778" y="395" type="line"/>
      <point x="597" y="395" type="line"/>
      <point x="597" y="578" type="line"/>
      <point x="893" y="578" type="line"/>
      <point x="874" y="680" type="line"/>
      <point x="453" y="680" type="line"/>
    </contour>
    <contour>
      <point x="304" y="265" type="line"/>
      <point x="466" y="502" type="line"/>
      <point x="466" y="265" type="line"/>
    </contour>
  </outline>
</glyph>
<glyph name="Ccedilla" format="1">
  <advance width="593"/>
  <unicode hex="00C7"/>
  <outline>
    <contour>
      <point x="420" y="585"/>
      <point x="446" y="575"/>
      <point x="505" y="557" type="curve"/>
      <point x="545" y="650" type="line"/>
      <point x="486" y="682"/>
      <point x="405" y="694"/>
      <point x="365" y="694" type="curve" smooth="yes"/>
      <point x="165" y="694"/>
      <point x="57" y="547"/>
      <point x="57" y="337" type="curve" smooth="yes"/>
      <point x="57" y="156"/>
      <point x="132" y="12"/>
      <point x="308" y="-10" type="curve"/>
      <point x="283" y="-75" type="line"/>
      <point x="336" y="-81"/>
      <point x="371" y="-100"/>
      <point x="371" y="-120" type="curve" smooth="yes"/>
      <point x="371" y="-134"/>
      <point x="353" y="-137"/>
      <point x="337" y="-137" type="curve" smooth="yes"/>
      <point x="320" y="-137"/>
      <point x="290" y="-126"/>
      <point x="272" y="-117" type="curve"/>
      <point x="242" y="-193" type="line"/>
      <point x="264" y="-210"/>
      <point x="311" y="-221"/>
      <point x="337" y="-221" type="curve" smooth="yes"/>
      <point x="402" y="-221"/>
      <point x="463" y="-189"/>
      <point x="463" y="-118" type="curve" smooth="yes"/>
      <point x="463" y="-83"/>
      <point x="433" y="-45"/>
      <point x="393" y="-29" type="curve"/>
      <point x="400" y="-11" type="line"/>
      <point x="451" y="-6"/>
      <point x="510" y="9"/>
      <point x="551" y="30" type="curve"/>
      <point x="502" y="126" type="line"/>
      <point x="461" y="108"/>
      <point x="411" y="95"/>
      <point x="353" y="95" type="curve" smooth="yes"/>
      <point x="237" y="95"/>
      <point x="192" y="206"/>
      <point x="192" y="338" type="curve" smooth="yes"/>
      <point x="192" y="492"/>
      <point x="253" y="585"/>
      <point x="361" y="585" type="curve" smooth="yes"/>
    </contour>
  </outline>
</glyph>
<glyph name="Eacute" format="1">
  <advance width="580"/>
  <unicode hex="00C9"/>
  <outline>
    <contour>
      <point x="560" y="0" type="line"/>
      <point x="539" y="101" type="line"/>
      <point x="213" y="101" type="line"/>
      <point x="213" y="292" type="line"/>
      <point x="416" y="292" type="line"/>
      <point x="395" y="395" type="line"/>
      <point x="213" y="395" type="line"/>
      <point x="213" y="578" type="line"/>
      <point x="510" y="578" type="line"/>
      <point x="490" y="680" type="line"/>
      <point x="84" y="680" type="line"/>
      <point x="84" y="0" type="line"/>
    </contour>
    <contour>
      <point x="275" y="903" type="line"/>
      <point x="215" y="739" type="line"/>
      <point x="314" y="739" type="line"/>
      <point x="409" y="903" type="line"/>
    </contour>
  </outline>
</glyph>
<glyph name="Ecircumflex" format="1">
  <advance width="580"/>
  <unicode hex="00CA"/>
  <outline>
    <contour>
      <point x="560" y="0" type="line"/>
      <point x="539" y="101" type="line"/>
      <point x="213" y="101" type="line"/>
      <point x="213" y="292" type="line"/>
      <point x="416" y="292" type="line"/>
      <point x="395" y="395" type="line"/>
      <point x="213" y="395" type="line"/>
      <point x="213" y="578" type="line"/>
      <point x="510" y="578" type="line"/>
      <point x="490" y="680" type="line"/>
      <point x="84" y="680" type="line"/>
      <point x="84" y="0" type="line"/>
    </contour>
    <contour>
      <point x="226" y="739" type="line"/>
      <point x="293" y="804" type="line"/>
      <point x="359" y="739" type="line"/>
      <point x="478" y="739" type="line"/>
      <point x="326" y="903" type="line"/>
      <point x="255" y="903" type="line"/>
      <point x="103" y="739" type="line"/>
    </contour>
  </outline>
</glyph>
<glyph name="Iacute" format="1">
  <advance width="297"/>
  <unicode hex="00CD"/>
  <outline>
    <contour>
      <point x="213" y="680" type="line"/>
      <point x="84" y="680" type="line"/>
      <point x="84" y="0" type="line"/>
      <point x="213" y="0" type="line"/>
    </contour>
    <contour>
      <point x="130" y="903" type="line"/>
      <point x="70" y="739" type="line"/>
      <point x="169" y="739" type="line"/>
      <point x="264" y="903" type="line"/>
    </contour>
  </outline>
</glyph>
<glyph name="Yacute" format="1">
  <advance width="605"/>
  <unicode hex="00DD"/>
  <outline>
    <contour>
      <point x="234" y="0" type="line"/>
      <point x="364" y="0" type="line"/>
      <point x="364" y="260" type="line"/>
      <point x="600" y="680" type="line"/>
      <point x="463" y="680" type="line"/>
      <point x="298" y="396" type="line"/>
      <point x="140" y="680" type="line"/>
      <point x="6" y="663" type="line"/>
      <point x="234" y="265" type="line"/>
    </contour>
    <contour>
      <point x="265" y="903" type="line"/>
      <point x="205" y="739" type="line"/>
      <point x="304" y="739" type="line"/>
      <point x="399" y="903" type="line"/>
    </contour>
  </outline>
</glyph>
<glyph name="idieresis" format="1">
  <advance width="256"/>
  <unicode hex="00EF"/>
  <outline>
    <contour>
      <point x="192" y="485" type="line"/>
      <point x="62" y="485" type="line"/>
      <point x="62" y="0" type="line"/>
      <point x="192" y="0" type="line"/>
    </contour>
    <contour>
      <point x="288" y="703"/>
      <point x="260" y="732"/>
      <point x="224" y="732" type="curve" smooth="yes"/>
      <point x="188" y="732"/>
      <point x="159" y="703"/>
      <point x="159" y="667" type="curve" smooth="yes"/>
      <point x="159" y="631"/>
      <point x="188" y="603"/>
      <point x="224" y="603" type="curve" smooth="yes"/>
      <point x="260" y="603"/>
      <point x="288" y="631"/>
      <point x="288" y="667" type="curve" smooth="yes"/>
    </contour>
    <contour>
      <point x="97" y="703"/>
      <point x="69" y="732"/>
      <point x="33" y="732" type="curve" smooth="yes"/>
      <point x="-4" y="732"/>
      <point x="-32" y="703"/>
      <point x="-32" y="667" type="curve" smooth="yes"/>
      <point x="-32" y="631"/>
      <point x="-4" y="603"/>
      <point x="33" y="603" type="curve" smooth="yes"/>
      <point x="69" y="603"/>
      <point x="97" y="631"/>
      <point x="97" y="667" type="curve" smooth="yes"/>
    </contour>
  </outline>
</glyph>
<glyph name="ucircumflex" format="1">
  <advance width="575"/>
  <unicode hex="00FB"/>
  <outline>
    <contour>
      <point x="291" y="-20"/>
      <point x="363" y="6"/>
      <point x="407" y="48" type="curve"/>
      <point x="444" y="0" type="line"/>
      <point x="512" y="0" type="line"/>
      <point x="512" y="485" type="line"/>
      <point x="382" y="485" type="line"/>
      <point x="382" y="134" type="line"/>
      <point x="350" y="111"/>
      <point x="309" y="91"/>
      <point x="274" y="91" type="curve" smooth="yes"/>
      <point x="218" y="91"/>
      <point x="188" y="125"/>
      <point x="188" y="186" type="curve" smooth="yes"/>
      <point x="188" y="485" type="line"/>
      <point x="57" y="485" type="line"/>
      <point x="57" y="180" type="line" smooth="yes"/>
      <point x="57" y="69"/>
      <point x="107" y="-20"/>
      <point x="239" y="-20" type="curve" smooth="yes"/>
    </contour>
    <contour>
      <point x="225" y="589" type="line"/>
      <point x="292" y="654" type="line"/>
      <point x="358" y="589" type="line"/>
      <point x="477" y="589" type="line"/>
      <point x="324" y="753" type="line"/>
      <point x="255" y="753" type="line"/>
      <point x="101" y="589" type="line"/>
    </contour>
  </outline>
</glyph>
<glyph name="Dcaron" format="1">
  <advance width="703"/>
  <unicode hex="010E"/>
  <outline>
    <contour>
      <point x="332" y="-1" type="line"/>
      <point x="532" y="3"/>
      <point x="645" y="132"/>
      <point x="645" y="344" type="curve" smooth="yes"/>
      <point x="645" y="540"/>
      <point x="545" y="682"/>
      <point x="332" y="680" type="curve"/>
      <point x="84" y="680" type="line"/>
      <point x="84" y="0" type="line"/>
      <point x="332" y="0" type="line"/>
    </contour>
    <contour>
      <point x="337" y="570" type="line" smooth="yes"/>
      <point x="458" y="570"/>
      <point x="511" y="486"/>
      <point x="511" y="344" type="curve" smooth="yes"/>
      <point x="511" y="174"/>
      <point x="440" y="109"/>
      <point x="330" y="109" type="curve" smooth="yes"/>
      <point x="213" y="109" type="line"/>
      <point x="213" y="570" type="line"/>
    </contour>
    <contour>
      <point x="131" y="903" type="line"/>
      <point x="283" y="739" type="line"/>
      <point x="354" y="739" type="line"/>
      <point x="506" y="903" type="line"/>
      <point x="387" y="903" type="line"/>
      <point x="321" y="838" type="line"/>
      <point x="254" y="903" type="line"/>
    </contour>
  </outline>
</glyph>
<glyph name="Dcroat" format="1">
  <advance width="710"/>
  <unicode hex="0110"/>
  <outline>
    <contour>
      <point x="339" y="-1" type="line"/>
      <point x="539" y="3"/>
      <point x="652" y="132"/>
      <point x="652" y="344" type="curve" smooth="yes"/>
      <point x="652" y="540"/>
      <point x="552" y="682"/>
      <point x="339" y="680" type="curve"/>
      <point x="90" y="680" type="line"/>
      <point x="90" y="392" type="line"/>
      <point x="18" y="392" type="line"/>
      <point x="29" y="291" type="line"/>
      <point x="90" y="291" type="line"/>
      <point x="90" y="0" type="line"/>
      <point x="339" y="0" type="line"/>
    </contour>
    <contour>
      <point x="295" y="291" type="line"/>
      <point x="286" y="392" type="line"/>
      <point x="221" y="392" type="line"/>
      <point x="221" y="570" type="line"/>
      <point x="343" y="570" type="line" smooth="yes"/>
      <point x="464" y="570"/>
      <point x="518" y="486"/>
      <point x="518" y="344" type="curve" smooth="yes"/>
      <point x="518" y="174"/>
      <point x="447" y="109"/>
      <point x="337" y="109" type="curve" smooth="yes"/>
      <point x="221" y="109" type="line"/>
      <point x="221" y="291" type="line"/>
    </contour>
  </outline>
</glyph>
<glyph name="Eogonek" format="1">
  <advance width="580"/>
  <unicode hex="0118"/>
  <outline>
    <contour>
      <point x="560" y="0" type="line"/>
      <point x="539" y="101" type="line"/>
      <point x="213" y="101" type="line"/>
      <point x="213" y="292" type="line"/>
      <point x="416" y="292" type="line"/>
      <point x="395" y="395" type="line"/>
      <point x="213" y="395" type="line"/>
      <point x="213" y="578" type="line"/>
      <point x="510" y="578" type="line"/>
      <point x="490" y="680" type="line"/>
      <point x="84" y="680" type="line"/>
      <point x="84" y="0" type="line"/>
      <point x="376" y="0" type="line"/>
      <point x="359" y="-22"/>
      <point x="342" y="-67"/>
      <point x="342" y="-94" type="curve" smooth="yes"/>
      <point x="342" y="-156"/>
      <point x="388" y="-207"/>
      <point x="458" y="-207" type="curve" smooth="yes"/>
      <point x="496" y="-207"/>
      <point x="528" y="-198"/>
      <point x="560" y="-174" type="curve"/>
      <point x="523" y="-94" type="line"/>
      <point x="508" y="-105"/>
      <point x="490" y="-111"/>
      <point x="482" y="-111" type="curve" smooth="yes"/>
      <point x="460" y="-111"/>
      <point x="451" y="-98"/>
      <point x="451" y="-83" type="curve" smooth="yes"/>
      <point x="451" y="-57"/>
      <point x="472" y="-20"/>
      <point x="490" y="0" type="curve"/>
    </contour>
  </outline>
</glyph>
<glyph name="Ecaron" format="1">
  <advance width="580"/>
  <unicode hex="011A"/>
  <outline>
    <contour>
      <point x="560" y="0" type="line"/>
      <point x="539" y="101" type="line"/>
      <point x="213" y="101" type="line"/>
      <point x="213" y="292" type="line"/>
      <point x="416" y="292" type="line"/>
      <point x="395" y="395" type="line"/>
      <point x="213" y="395" type="line"/>
      <point x="213" y="578" type="line"/>
      <point x="510" y="578" type="line"/>
      <point x="490" y="680" type="line"/>
      <point x="84" y="680" type="line"/>
      <point x="84" y="0" type="line"/>
    </contour>
    <contour>
      <point x="103" y="903" type="line"/>
      <point x="255" y="739" type="line"/>
      <point x="326" y="739" type="line"/>
      <point x="478" y="903" type="line"/>
      <point x="359" y="903" type="line"/>
      <point x="293" y="838" type="line"/>
      <point x="226" y="903" type="line"/>
    </contour>
  </outline>
</glyph>
<glyph name="Gbreve" format="1">
  <advance width="656"/>
  <unicode hex="011E"/>
  <outline>
    <contour>
      <point x="339" y="372" type="line"/>
      <point x="328" y="272" type="line"/>
      <point x="471" y="272" type="line"/>
      <point x="471" y="106" type="line"/>
      <point x="447" y="100"/>
      <point x="416" y="95"/>
      <point x="372" y="95" type="curve" smooth="yes"/>
      <point x="253" y="95"/>
      <point x="192" y="188"/>
      <point x="192" y="338" type="curve" smooth="yes"/>
      <point x="192" y="504"/>
      <point x="272" y="585"/>
      <point x="393" y="585" type="curve" smooth="yes"/>
      <point x="452" y="585"/>
      <point x="477" y="575"/>
      <point x="536" y="557" type="curve"/>
      <point x="577" y="650" type="line"/>
      <point x="517" y="682"/>
      <point x="431" y="694"/>
      <point x="391" y="694" type="curve" smooth="yes"/>
      <point x="184" y="694"/>
      <point x="57" y="545"/>
      <point x="57" y="337" type="curve" smooth="yes"/>
      <point x="57" y="141"/>
      <point x="162" y="-14"/>
      <point x="375" y="-14" type="curve" smooth="yes"/>
      <point x="460" y="-14"/>
      <point x="535" y="8"/>
      <point x="587" y="36" type="curve"/>
      <point x="587" y="372" type="line"/>
    </contour>
    <contour>
      <point x="493" y="741"/>
      <point x="539" y="818"/>
      <point x="539" y="903" type="curve"/>
      <point x="452" y="903" type="line"/>
      <point x="452" y="868"/>
      <point x="435" y="832"/>
      <point x="392" y="832" type="curve" smooth="yes"/>
      <point x="348" y="832"/>
      <point x="334" y="868"/>
      <point x="334" y="903" type="curve"/>
      <point x="245" y="903" type="line"/>
      <point x="245" y="818"/>
      <point x="291" y="741"/>
      <point x="392" y="739" type="curve"/>
    </contour>
  </outline>
</glyph>
<glyph name="Gcedilla" format="1">
  <advance width="656"/>
  <unicode hex="0122"/>
  <outline>
    <contour>
      <point x="339" y="372" type="line"/>
      <point x="328" y="272" type="line"/>
      <point x="471" y="272" type="line"/>
      <point x="471" y="106" type="line"/>
      <point x="447" y="100"/>
      <point x="416" y="95"/>
      <point x="372" y="95" type="curve" smooth="yes"/>
      <point x="253" y="95"/>
      <point x="192" y="188"/>
      <point x="192" y="338" type="curve" smooth="yes"/>
      <point x="192" y="504"/>
      <point x="272" y="585"/>
      <point x="393" y="585" type="curve" smooth="yes"/>
      <point x="452" y="585"/>
      <point x="477" y="575"/>
      <point x="536" y="557" type="curve"/>
      <point x="577" y="650" type="line"/>
      <point x="517" y="682"/>
      <point x="431" y="694"/>
      <point x="391" y="694" type="curve" smooth="yes"/>
      <point x="184" y="694"/>
      <point x="57" y="545"/>
      <point x="57" y="337" type="curve" smooth="yes"/>
      <point x="57" y="156"/>
      <point x="147" y="9"/>
      <point x="328" y="-11" type="curve"/>
      <point x="304" y="-75" type="line"/>
      <point x="356" y="-81"/>
      <point x="391" y="-100"/>
      <point x="391" y="-120" type="curve" smooth="yes"/>
      <point x="391" y="-134"/>
      <point x="373" y="-137"/>
      <point x="358" y="-137" type="curve" smooth="yes"/>
      <point x="342" y="-137"/>
      <point x="310" y="-126"/>
      <point x="292" y="-117" type="curve"/>
      <point x="262" y="-193" type="line"/>
      <point x="285" y="-210"/>
      <point x="331" y="-221"/>
      <point x="358" y="-221" type="curve" smooth="yes"/>
      <point x="422" y="-221"/>
      <point x="483" y="-189"/>
      <point x="483" y="-118" type="curve" smooth="yes"/>
      <point x="483" y="-83"/>
      <point x="454" y="-45"/>
      <point x="415" y="-29" type="curve"/>
      <point x="421" y="-11" type="line"/>
      <point x="487" y="-5"/>
      <point x="545" y="13"/>
      <point x="587" y="36" type="curve"/>
      <point x="587" y="372" type="line"/>
    </contour>
  </outline>
</glyph>
<glyph name="imacron" format="1">
  <advance width="256"/>
  <unicode hex="012B"/>
  <outline>
    <contour>
      <point x="192" y="485" type="line"/>
      <point x="62" y="485" type="line"/>
      <point x="62" y="0" type="line"/>
      <point x="192" y="0" type="line"/>
    </contour>
    <contour>
      <point x="-4" y="716" type="line"/>
      <point x="-4" y="613" type="line"/>
      <point x="258" y="613" type="line"/>
      <point x="258" y="716" type="line"/>
    </contour>
  </outline>
</glyph>
<glyph name="dotlessi" format="1">
  <advance width="256"/>
  <unicode hex="0131"/>
  <outline>
    <contour>
      <point x="192" y="485" type="line"/>
      <point x="62" y="485" type="line"/>
      <point x="62" y="0" type="line"/>
      <point x="192" y="0" type="line"/>
    </contour>
    <contour>
      <point x="129" y="545" type="move" name="top"/>
    </contour>
  </outline>
</glyph>
<glyph name="lacute" format="1">
  <advance width="266"/>
  <unicode hex="013A"/>
  <outline>
    <contour>
      <point x="198" y="685" type="line"/>
      <point x="69" y="673" type="line"/>
      <point x="69" y="0" type="line"/>
      <point x="198" y="0" type="line"/>
    </contour>
    <contour>
      <point x="135" y="837" type="line"/>
      <point x="81" y="712" type="line"/>
      <point x="180" y="712" type="line"/>
      <point x="270" y="837" type="line"/>
    </contour>
  </outline>
</glyph>
<glyph name="Lcaron" format="1">
  <advance width="543"/>
  <unicode hex="013D"/>
  <outline>
    <contour>
      <point x="533" y="0" type="line"/>
      <point x="513" y="101" type="line"/>
      <point x="213" y="101" type="line"/>
      <point x="213" y="680" type="line"/>
      <point x="84" y="680" type="line"/>
      <point x="84" y="0" type="line"/>
    </contour>
    <contour>
      <point x="484" y="706"/>
      <point x="450" y="742"/>
      <point x="408" y="742" type="curve" smooth="yes"/>
      <point x="367" y="742"/>
      <point x="335" y="703"/>
      <point x="335" y="668" type="curve" smooth="yes"/>
      <point x="335" y="632"/>
      <point x="368" y="597"/>
      <point x="391" y="597" type="curve"/>
      <point x="382" y="554"/>
      <point x="358" y="533"/>
      <point x="324" y="504" type="curve"/>
      <point x="352" y="443" type="line"/>
      <point x="429" y="486"/>
      <point x="484" y="578"/>
      <point x="484" y="653" type="curve" smooth="yes"/>
    </contour>
  </outline>
</glyph>
<glyph name="Lslash" format="1">
  <advance width="556"/>
  <unicode hex="0141"/>
  <outline>
    <contour>
      <point x="545" y="0" type="line"/>
      <point x="526" y="101" type="line"/>
      <point x="226" y="101" type="line"/>
      <point x="226" y="315" type="line"/>
      <point x="371" y="423" type="line"/>
      <point x="321" y="514" type="line"/>
      <point x="226" y="442" type="line"/>
      <point x="226" y="680" type="line"/>
      <point x="96" y="680" type="line"/>
      <point x="96" y="344" type="line"/>
      <point x="6" y="276" type="line"/>
      <point x="55" y="185" type="line"/>
      <point x="96" y="216" type="line"/>
      <point x="96" y="0" type="line"/>
    </contour>
  </outline>
</glyph>
<glyph name="Nacute" format="1">
  <advance width="742"/>
  <unicode hex="0143"/>
  <outline>
    <contour>
      <point x="658" y="680" type="line"/>
      <point x="528" y="680" type="line"/>
      <point x="528" y="226" type="line"/>
      <point x="213" y="680" type="line"/>
      <point x="84" y="680" type="line"/>
      <point x="84" y="0" type="line"/>
      <point x="213" y="0" type="line"/>
      <point x="213" y="455" type="line"/>
      <point x="528" y="0" type="line"/>
      <point x="658" y="0" type="line"/>
    </contour>
    <contour>
      <point x="361" y="903" type="line"/>
      <point x="301" y="739" type="line"/>
      <point x="400" y="739" type="line"/>
      <point x="495" y="903" type="line"/>
    </contour>
  </outline>
</glyph>
<glyph name="ncedilla" format="1">
  <advance width="580"/>
  <unicode hex="0146"/>
  <outline>
    <contour>
      <point x="288" y="504"/>
      <point x="213" y="477"/>
      <point x="169" y="433" type="curve"/>
      <point x="130" y="485" type="line"/>
      <point x="62" y="485" type="line"/>
      <point x="62" y="0" type="line"/>
      <point x="192" y="0" type="line"/>
      <point x="192" y="345" type="line"/>
      <point x="225" y="371"/>
      <point x="269" y="393"/>
      <point x="306" y="393" type="curve" smooth="yes"/>
      <point x="362" y="393"/>
      <point x="392" y="360"/>
      <point x="392" y="298" type="curve" smooth="yes"/>
      <point x="392" y="0" type="line"/>
      <point x="522" y="0" type="line"/>
      <point x="522" y="304" type="line" smooth="yes"/>
      <point x="522" y="417"/>
      <point x="472" y="504"/>
      <point x="340" y="504" type="curve" smooth="yes"/>
    </contour>
    <contour>
      <point x="365" y="-57"/>
      <point x="332" y="-21"/>
      <point x="291" y="-21" type="curve" smooth="yes"/>
      <point x="249" y="-21"/>
      <point x="218" y="-59"/>
      <point x="218" y="-95" type="curve" smooth="yes"/>
      <point x="218" y="-132"/>
      <point x="250" y="-167"/>
      <point x="273" y="-167" type="curve"/>
      <point x="264" y="-195"/>
      <point x="239" y="-216"/>
      <point x="221" y="-223" type="curve"/>
      <point x="249" y="-284" type="line"/>
      <point x="312" y="-253"/>
      <point x="365" y="-186"/>
      <point x="365" y="-111" type="curve" smooth="yes"/>
    </contour>
  </outline>
</glyph>
<glyph name="Ncaron" format="1">
  <advance width="742"/>
  <unicode hex="0147"/>
  <outline>
    <contour>
      <point x="658" y="680" type="line"/>
      <point x="528" y="680" type="line"/>
      <point x="528" y="226" type="line"/>
      <point x="213" y="680" type="line"/>
      <point x="84" y="680" type="line"/>
      <point x="84" y="0" type="line"/>
      <point x="213" y="0" type="line"/>
      <point x="213" y="455" type="line"/>
      <point x="528" y="0" type="line"/>
      <point x="658" y="0" type="line"/>
    </contour>
    <contour>
      <point x="189" y="903" type="line"/>
      <point x="341" y="739" type="line"/>
      <point x="412" y="739" type="line"/>
      <point x="564" y="903" type="line"/>
      <point x="445" y="903" type="line"/>
      <point x="379" y="838" type="line"/>
      <point x="312" y="903" type="line"/>
    </contour>
  </outline>
</glyph>
<glyph name="racute" format="1">
  <advance width="358"/>
  <unicode hex="0155"/>
  <outline>
    <contour>
      <point x="328" y="485" type="line"/>
      <point x="276" y="485"/>
      <point x="213" y="449"/>
      <point x="173" y="414" type="curve"/>
      <point x="130" y="485" type="line"/>
      <point x="62" y="485" type="line"/>
      <point x="62" y="0" type="line"/>
      <point x="192" y="0" type="line"/>
      <point x="192" y="306" type="line"/>
      <point x="248" y="356"/>
      <point x="310" y="381"/>
      <point x="354" y="381" type="curve"/>
    </contour>
    <contour>
      <point x="166" y="753" type="line"/>
      <point x="105" y="589" type="line"/>
      <point x="204" y="589" type="line"/>
      <point x="299" y="753" type="line"/>
    </contour>
  </outline>
</glyph>
<glyph name="rcedilla" format="1">
  <advance width="358"/>
  <unicode hex="0157"/>
  <outline>
    <contour>
      <point x="328" y="485" type="line"/>
      <point x="276" y="485"/>
      <point x="213" y="449"/>
      <point x="173" y="414" type="curve"/>
      <point x="130" y="485" type="line"/>
      <point x="62" y="485" type="line"/>
      <point x="62" y="0" type="line"/>
      <point x="192" y="0" type="line"/>
      <point x="192" y="306" type="line"/>
      <point x="248" y="356"/>
      <point x="310" y="381"/>
      <point x="354" y="381" type="curve"/>
    </contour>
    <contour>
      <point x="206" y="-57"/>
      <point x="173" y="-21"/>
      <point x="132" y="-21" type="curve" smooth="yes"/>
      <point x="90" y="-21"/>
      <point x="58" y="-59"/>
      <point x="58" y="-95" type="curve" smooth="yes"/>
      <point x="58" y="-132"/>
      <point x="90" y="-167"/>
      <point x="115" y="-167" type="curve"/>
      <point x="106" y="-195"/>
      <point x="80" y="-216"/>
      <point x="62" y="-223" type="curve"/>
      <point x="90" y="-284" type="line"/>
      <point x="154" y="-253"/>
      <point x="206" y="-186"/>
      <point x="206" y="-111" type="curve" smooth="yes"/>
    </contour>
  </outline>
</glyph>
<glyph name="Sacute" format="1">
  <advance width="552"/>
  <unicode hex="015A"/>
  <outline>
    <contour>
      <point x="196" y="102"/>
      <point x="124" y="129"/>
      <point x="83" y="150" type="curve"/>
      <point x="54" y="45" type="line"/>
      <point x="85" y="18"/>
      <point x="197" y="-13"/>
      <point x="255" y="-13" type="curve" smooth="yes"/>
      <point x="420" y="-13"/>
      <point x="507" y="66"/>
      <point x="509" y="174" type="curve" smooth="yes"/>
      <point x="511" y="290"/>
      <point x="402" y="349"/>
      <point x="304" y="398" type="curve" smooth="yes"/>
      <point x="234" y="435"/>
      <point x="176" y="463"/>
      <point x="176" y="514" type="curve" smooth="yes"/>
      <point x="176" y="561"/>
      <point x="220" y="583"/>
      <point x="278" y="583" type="curve" smooth="yes"/>
      <point x="337" y="583"/>
      <point x="384" y="561"/>
      <point x="425" y="541" type="curve"/>
      <point x="468" y="645" type="line"/>
      <point x="416" y="671"/>
      <point x="344" y="696"/>
      <point x="276" y="696" type="curve" smooth="yes"/>
      <point x="126" y="696"/>
      <point x="43" y="617"/>
      <point x="42" y="514" type="curve" smooth="yes"/>
      <point x="41" y="395"/>
      <point x="148" y="337"/>
      <point x="245" y="288" type="curve" smooth="yes"/>
      <point x="310" y="255"/>
      <point x="375" y="222"/>
      <point x="375" y="176" type="curve" smooth="yes"/>
      <point x="375" y="128"/>
      <point x="335" y="102"/>
      <point x="253" y="102" type="curve" smooth="yes"/>
    </contour>
    <contour>
      <point x="239" y="903" type="line"/>
      <point x="179" y="739" type="line"/>
      <point x="278" y="739" type="line"/>
      <point x="373" y="903" type="line"/>
    </contour>
  </outline>
</glyph>
<glyph name="Tcedilla" format="1">
  <advance width="582"/>
  <unicode hex="0162"/>
  <outline>
    <contour>
      <point x="6" y="680" type="line"/>
      <point x="6" y="578" type="line"/>
      <point x="213" y="578" type="line"/>
      <point x="213" y="0" type="line"/>
      <point x="236" y="0" type="line"/>
      <point x="206" y="-75" type="line"/>
      <point x="258" y="-81"/>
      <point x="293" y="-100"/>
      <point x="293" y="-120" type="curve" smooth="yes"/>
      <point x="293" y="-134"/>
      <point x="276" y="-137"/>
      <point x="260" y="-137" type="curve" smooth="yes"/>
      <point x="245" y="-137"/>
      <point x="213" y="-126"/>
      <point x="195" y="-117" type="curve"/>
      <point x="165" y="-193" type="line"/>
      <point x="187" y="-210"/>
      <point x="234" y="-221"/>
      <point x="260" y="-221" type="curve" smooth="yes"/>
      <point x="325" y="-221"/>
      <point x="386" y="-189"/>
      <point x="386" y="-118" type="curve" smooth="yes"/>
      <point x="386" y="-83"/>
      <point x="356" y="-45"/>
      <point x="318" y="-29" type="curve"/>
      <point x="329" y="0" type="line"/>
      <point x="344" y="0" type="line"/>
      <point x="344" y="578" type="line"/>
      <point x="577" y="578" type="line"/>
      <point x="556" y="680" type="line"/>
    </contour>
  </outline>
</glyph>
<glyph name="tcaron" format="1">
  <advance width="549"/>
  <unicode hex="0165"/>
  <outline>
    <contour>
      <point x="295" y="-20"/>
      <point x="340" y="-8"/>
      <point x="362" y="10" type="curve"/>
      <point x="324" y="104" type="line"/>
      <point x="305" y="95"/>
      <point x="288" y="91"/>
      <point x="271" y="91" type="curve" smooth="yes"/>
      <point x="224" y="91"/>
      <point x="200" y="127"/>
      <point x="200" y="178" type="curve" smooth="yes"/>
      <point x="200" y="384" type="line"/>
      <point x="328" y="384" type="line"/>
      <point x="288" y="484" type="line"/>
      <point x="200" y="484" type="line"/>
      <point x="200" y="622" type="line"/>
      <point x="71" y="599" type="line"/>
      <point x="71" y="484" type="line"/>
      <point x="6" y="484" type="line"/>
      <point x="6" y="384" type="line"/>
      <point x="71" y="384" type="line"/>
      <point x="71" y="155" type="line" smooth="yes"/>
      <point x="71" y="42"/>
      <point x="144" y="-20"/>
      <point x="264" y="-20" type="curve" smooth="yes"/>
    </contour>
    <contour>
      <point x="538" y="706"/>
      <point x="504" y="742"/>
      <point x="463" y="742" type="curve" smooth="yes"/>
      <point x="422" y="742"/>
      <point x="389" y="703"/>
      <point x="389" y="668" type="curve" smooth="yes"/>
      <point x="389" y="632"/>
      <point x="422" y="597"/>
      <point x="447" y="597" type="curve"/>
      <point x="436" y="554"/>
      <point x="412" y="533"/>
      <point x="378" y="504" type="curve"/>
      <point x="406" y="443" type="line"/>
      <point x="483" y="486"/>
      <point x="538" y="578"/>
      <point x="538" y="653" type="curve" smooth="yes"/>
    </contour>
  </outline>
</glyph>
<glyph name="zacute" format="1">
  <advance width="449"/>
  <unicode hex="017A"/>
  <outline>
    <contour>
      <point x="423" y="422" type="line"/>
      <point x="416" y="496" type="line"/>
      <point x="28" y="496" type="line"/>
      <point x="53" y="389" type="line"/>
      <point x="247" y="389" type="line"/>
      <point x="16" y="69" type="line"/>
      <point x="33" y="0" type="line"/>
      <point x="433" y="0" type="line"/>
      <point x="423" y="105" type="line"/>
      <point x="189" y="105" type="line"/>
    </contour>
    <contour>
      <point x="234" y="753" type="line"/>
      <point x="173" y="589" type="line"/>
      <point x="272" y="589" type="line"/>
      <point x="368" y="753" type="line"/>
    </contour>
  </outline>
</glyph>
<glyph name="Zcaron" format="1">
  <advance width="579"/>
  <unicode hex="017D"/>
  <outline>
    <contour>
      <point x="555" y="578" type="line"/>
      <point x="540" y="680" type="line"/>
      <point x="45" y="680" type="line"/>
      <point x="60" y="578" type="line"/>
      <point x="404" y="578" type="line"/>
      <point x="16" y="101" type="line"/>
      <point x="31" y="0" type="line"/>
      <point x="563" y="0" type="line"/>
      <point x="548" y="101" type="line"/>
      <point x="156" y="101" type="line"/>
    </contour>
    <contour>
      <point x="102" y="903" type="line"/>
      <point x="254" y="739" type="line"/>
      <point x="325" y="739" type="line"/>
      <point x="477" y="903" type="line"/>
      <point x="358" y="903" type="line"/>
      <point x="292" y="838" type="line"/>
      <point x="225" y="903" type="line"/>
    </contour>
  </outline>
</glyph>
<glyph name="Scommaaccent" format="1">
  <advance width="552"/>
  <unicode hex="0218"/>
  <outline>
    <contour>
      <point x="196" y="102"/>
      <point x="124" y="129"/>
      <point x="83" y="150" type="curve"/>
      <point x="54" y="45" type="line"/>
      <point x="85" y="18"/>
      <point x="197" y="-13"/>
      <point x="255" y="-13" type="curve" smooth="yes"/>
      <point x="420" y="-13"/>
      <point x="507" y="66"/>
      <point x="509" y="174" type="curve" smooth="yes"/>
      <point x="511" y="290"/>
      <point x="402" y="349"/>
      <point x="304" y="398" type="curve" smooth="yes"/>
      <point x="234" y="435"/>
      <point x="176" y="463"/>
      <point x="176" y="514" type="curve" smooth="yes"/>
      <point x="176" y="561"/>
      <point x="220" y="583"/>
      <point x="278" y="583" type="curve" smooth="yes"/>
      <point x="337" y="583"/>
      <point x="384" y="561"/>
      <point x="425" y="541" type="curve"/>
      <point x="468" y="645" type="line"/>
      <point x="416" y="671"/>
      <point x="344" y="696"/>
      <point x="276" y="696" type="curve" smooth="yes"/>
      <point x="126" y="696"/>
      <point x="43" y="617"/>
      <point x="42" y="514" type="curve" smooth="yes"/>
      <point x="41" y="395"/>
      <point x="148" y="337"/>
      <point x="245" y="288" type="curve" smooth="yes"/>
      <point x="310" y="255"/>
      <point x="375" y="222"/>
      <point x="375" y="176" type="curve" smooth="yes"/>
      <point x="375" y="128"/>
      <point x="335" y="102"/>
      <point x="253" y="102" type="curve" smooth="yes"/>
    </contour>
    <contour>
      <point x="328" y="-57"/>
      <point x="295" y="-21"/>
      <point x="254" y="-21" type="curve" smooth="yes"/>
      <point x="213" y="-21"/>
      <point x="181" y="-59"/>
      <point x="181" y="-95" type="curve" smooth="yes"/>
      <point x="181" y="-132"/>
      <point x="213" y="-167"/>
      <point x="237" y="-167" type="curve"/>
      <point x="227" y="-195"/>
      <point x="202" y="-216"/>
      <point x="185" y="-223" type="curve"/>
      <point x="213" y="-284" type="line"/>
      <point x="276" y="-253"/>
      <point x="328" y="-186"/>
      <point x="328" y="-111" type="curve" smooth="yes"/>
    </contour>
  </outline>
</glyph>
<glyph name="hungarumlaut" format="1">
  <advance width="402"/>
  <unicode hex="02DD"/>
  <outline>
    <contour>
      <point x="76" y="753" type="line"/>
      <point x="16" y="589" type="line"/>
      <point x="104" y="589" type="line"/>
      <point x="199" y="753" type="line"/>
    </contour>
    <contour>
      <point x="263" y="753" type="line"/>
      <point x="203" y="589" type="line"/>
      <point x="291" y="589" type="line"/>
      <point x="387" y="753" type="line"/>
    </contour>
    <contour>
      <point x="156" y="545" type="move" name="_top"/>
    </contour>
  </outline>
</glyph>
<glyph name="dv_Anusvara" format="1">
  <advance width="0"/>
  <unicode hex="0902"/>
  <outline>
    <contour>
      <point x="17" y="806"/>
      <point x="51" y="771"/>
      <point x="94" y="771" type="curve" smooth="yes"/>
      <point x="139" y="771"/>
      <point x="173" y="806"/>
      <point x="173" y="849" type="curve" smooth="yes"/>
      <point x="173" y="893"/>
      <point x="139" y="928"/>
      <point x="94" y="928" type="curve" smooth="yes"/>
      <point x="51" y="928"/>
      <point x="17" y="893"/>
      <point x="17" y="849" type="curve" smooth="yes"/>
    </contour>
  </outline>
</glyph>
<glyph name="dv_Visarga" format="1">
  <advance width="213"/>
  <unicode hex="0903"/>
  <outline>
    <contour>
      <point x="28" y="417"/>
      <point x="62" y="383"/>
      <point x="106" y="383" type="curve" smooth="yes"/>
      <point x="150" y="383"/>
      <point x="185" y="417"/>
      <point x="185" y="461" type="curve" smooth="yes"/>
      <point x="185" y="503"/>
      <point x="150" y="538"/>
      <point x="106" y="538" type="curve" smooth="yes"/>
      <point x="62" y="538"/>
      <point x="28" y="503"/>
      <point x="28" y="461" type="curve" smooth="yes"/>
    </contour>
    <contour>
      <point x="28" y="71"/>
      <point x="62" y="38"/>
      <point x="106" y="38" type="curve" smooth="yes"/>
      <point x="150" y="38"/>
      <point x="185" y="71"/>
      <point x="185" y="116" type="curve" smooth="yes"/>
      <point x="185" y="158"/>
      <point x="150" y="194"/>
      <point x="106" y="194" type="curve" smooth="yes"/>
      <point x="62" y="194"/>
      <point x="28" y="158"/>
      <point x="28" y="116" type="curve" smooth="yes"/>
    </contour>
  </outline>
</glyph>
<glyph name="dv_VocalicL" format="1">
  <advance width="857"/>
  <unicode hex="090C"/>
  <outline>
    <contour>
      <point x="647" y="-48"/>
      <point x="626" y="-27"/>
      <point x="626" y="0" type="curve" smooth="yes"/>
      <point x="626" y="27"/>
      <point x="647" y="48"/>
      <point x="681" y="48" type="curve" smooth="yes"/>
      <point x="757" y="48" type="line"/>
      <point x="757" y="569" type="line"/>
      <point x="868" y="569" type="line"/>
      <point x="851" y="680" type="line"/>
      <point x="-11" y="680" type="line"/>
      <point x="6" y="569" type="line"/>
      <point x="616" y="569" type="line"/>
      <point x="616" y="486" type="line"/>
      <point x="596" y="497"/>
      <point x="566" y="503"/>
      <point x="543" y="503" type="curve" smooth="yes"/>
      <point x="490" y="503"/>
      <point x="437" y="485"/>
      <point x="403" y="450" type="curve"/>
      <point x="367" y="484"/>
      <point x="313" y="502"/>
      <point x="257" y="503" type="curve"/>
      <point x="146" y="502"/>
      <point x="52" y="416"/>
      <point x="52" y="319" type="curve" smooth="yes"/>
      <point x="52" y="217"/>
      <point x="93" y="134"/>
      <point x="176" y="-24" type="curve"/>
      <point x="288" y="14" type="line"/>
      <point x="204" y="183"/>
      <point x="177" y="249"/>
      <point x="177" y="311" type="curve" smooth="yes"/>
      <point x="177" y="350"/>
      <point x="209" y="384"/>
      <point x="257" y="384" type="curve" smooth="yes"/>
      <point x="319" y="384"/>
      <point x="342" y="343"/>
      <point x="342" y="280" type="curve" smooth="yes"/>
      <point x="342" y="145" type="line"/>
      <point x="468" y="132" type="line"/>
      <point x="468" y="280" type="line" smooth="yes"/>
      <point x="468" y="343"/>
      <point x="498" y="387"/>
      <point x="542" y="387" type="curve" smooth="yes"/>
      <point x="580" y="387"/>
      <point x="608" y="357"/>
      <point x="616" y="311" type="curve"/>
      <point x="616" y="150" type="line"/>
      <point x="556" y="129"/>
      <point x="509" y="76"/>
      <point x="509" y="0" type="curve" smooth="yes"/>
      <point x="509" y="-100"/>
      <point x="587" y="-158"/>
      <point x="671" y="-158" type="curve" smooth="yes"/>
      <point x="702" y="-158"/>
      <point x="739" y="-157"/>
      <point x="780" y="-145" type="curve"/>
      <point x="757" y="-34" type="line"/>
      <point x="720" y="-46"/>
      <point x="695" y="-48"/>
      <point x="681" y="-48" type="curve" smooth="yes"/>
    </contour>
  </outline>
</glyph>
<glyph name="dv_ShortE" format="1">
  <advance width="736"/>
  <unicode hex="090E"/>
  <outline>
    <contour>
      <point x="496" y="276" type="line"/>
      <point x="497" y="216"/>
      <point x="465" y="194"/>
      <point x="387" y="167" type="curve"/>
      <point x="447" y="62" type="line"/>
      <point x="577" y="104"/>
      <point x="637" y="157"/>
      <point x="637" y="256" type="curve" smooth="yes"/>
      <point x="637" y="569" type="line"/>
      <point x="748" y="569" type="line"/>
      <point x="732" y="680" type="line"/>
      <point x="624" y="680" type="line"/>
      <point x="624" y="719" type="line" smooth="yes"/>
      <point x="624" y="799"/>
      <point x="535" y="859"/>
      <point x="435" y="859" type="curve" smooth="yes"/>
      <point x="286" y="859" type="line" smooth="yes"/>
      <point x="245" y="859"/>
      <point x="219" y="871"/>
      <point x="219" y="912" type="curve"/>
      <point x="94" y="929" type="line"/>
      <point x="94" y="886" type="line" smooth="yes"/>
      <point x="94" y="804"/>
      <point x="169" y="748"/>
      <point x="284" y="747" type="curve"/>
      <point x="428" y="747" type="line" smooth="yes"/>
      <point x="471" y="747"/>
      <point x="494" y="723"/>
      <point x="494" y="682" type="curve" smooth="yes"/>
      <point x="494" y="680" type="line"/>
      <point x="-11" y="680" type="line"/>
      <point x="6" y="569" type="line"/>
      <point x="97" y="569" type="line"/>
      <point x="97" y="156" type="line" smooth="yes"/>
      <point x="97" y="66"/>
      <point x="131" y="14"/>
      <point x="203" y="-27" type="curve" smooth="yes"/>
      <point x="461" y="-179" type="line"/>
      <point x="530" y="-74" type="line"/>
      <point x="280" y="83" type="line" smooth="yes"/>
      <point x="244" y="105"/>
      <point x="239" y="136"/>
      <point x="239" y="169" type="curve" smooth="yes"/>
      <point x="239" y="569" type="line"/>
      <point x="496" y="569" type="line"/>
    </contour>
  </outline>
</glyph>
<glyph name="dv_Ai" format="1">
  <advance width="736"/>
  <unicode hex="0910"/>
  <outline>
    <contour>
      <point x="496" y="276" type="line"/>
      <point x="497" y="216"/>
      <point x="465" y="194"/>
      <point x="387" y="167" type="curve"/>
      <point x="447" y="62" type="line"/>
      <point x="577" y="104"/>
      <point x="637" y="157"/>
      <point x="637" y="256" type="curve" smooth="yes"/>
      <point x="637" y="569" type="line"/>
      <point x="748" y="569" type="line"/>
      <point x="732" y="680" type="line"/>
      <point x="617" y="680" type="line"/>
      <point x="329" y="965" type="line"/>
      <point x="227" y="884" type="line"/>
      <point x="449" y="680" type="line"/>
      <point x="-11" y="680" type="line"/>
      <point x="6" y="569" type="line"/>
      <point x="97" y="569" type="line"/>
      <point x="97" y="156" type="line" smooth="yes"/>
      <point x="97" y="66"/>
      <point x="131" y="14"/>
      <point x="203" y="-27" type="curve" smooth="yes"/>
      <point x="461" y="-179" type="line"/>
      <point x="530" y="-74" type="line"/>
      <point x="280" y="83" type="line" smooth="yes"/>
      <point x="244" y="105"/>
      <point x="239" y="136"/>
      <point x="239" y="169" type="curve" smooth="yes"/>
      <point x="239" y="569" type="line"/>
      <point x="496" y="569" type="line"/>
    </contour>
  </outline>
</glyph>
<glyph name="dv_Ba" format="1">
  <advance width="636"/>
  <unicode hex="092C"/>
  <outline>
    <contour>
      <point x="390" y="0" type="line"/>
      <point x="531" y="-16" type="line"/>
      <point x="531" y="569" type="line"/>
      <point x="642" y="569" type="line"/>
      <point x="626" y="680" type="line"/>
      <point x="-11" y="680" type="line"/>
      <point x="6" y="569" type="line"/>
      <point x="390" y="569" type="line"/>
      <point x="390" y="468" type="line"/>
      <point x="363" y="487"/>
      <point x="314" y="500"/>
      <point x="279" y="500" type="curve" smooth="yes"/>
      <point x="139" y="500"/>
      <point x="40" y="403"/>
      <point x="40" y="278" type="curve"/>
      <point x="40" y="154"/>
      <point x="139" y="57"/>
      <point x="279" y="57" type="curve" smooth="yes"/>
      <point x="314" y="57"/>
      <point x="363" y="70"/>
      <point x="390" y="90" type="curve"/>
    </contour>
    <contour>
      <point x="335" y="182" type="line"/>
      <point x="321" y="176"/>
      <point x="300" y="173"/>
      <point x="276" y="173" type="curve" smooth="yes"/>
      <point x="223" y="173"/>
      <point x="173" y="218"/>
      <point x="173" y="279" type="curve" smooth="yes"/>
      <point x="173" y="304"/>
      <point x="181" y="325"/>
      <point x="194" y="342" type="curve"/>
    </contour>
    <contour>
      <point x="246" y="379" type="line"/>
      <point x="256" y="384"/>
      <point x="266" y="385"/>
      <point x="276" y="385" type="curve" smooth="yes"/>
      <point x="338" y="385"/>
      <point x="371" y="353"/>
      <point x="390" y="324" type="curve"/>
      <point x="390" y="233" type="line"/>
      <point x="388" y="229"/>
      <point x="386" y="225"/>
      <point x="384" y="223" type="curve"/>
    </contour>
  </outline>
</glyph>
<glyph name="dv_Ssa" format="1">
  <advance width="680"/>
  <unicode hex="0937"/>
  <outline>
    <contour>
      <point x="439" y="0" type="line"/>
      <point x="580" y="-16" type="line"/>
      <point x="580" y="569" type="line"/>
      <point x="691" y="569" type="line"/>
      <point x="674" y="680" type="line"/>
      <point x="-11" y="680" type="line"/>
      <point x="6" y="569" type="line"/>
      <point x="74" y="569" type="line"/>
      <point x="74" y="374" type="line" smooth="yes"/>
      <point x="74" y="234"/>
      <point x="184" y="151"/>
      <point x="318" y="151" type="curve" smooth="yes"/>
      <point x="356" y="151"/>
      <point x="409" y="164"/>
      <point x="439" y="179" type="curve"/>
    </contour>
    <contour>
      <point x="387" y="279"/>
      <point x="356" y="269"/>
      <point x="323" y="269" type="curve" smooth="yes"/>
      <point x="254" y="269"/>
      <point x="216" y="309"/>
      <point x="216" y="374" type="curve" smooth="yes"/>
      <point x="216" y="537" type="line"/>
      <point x="274" y="467"/>
      <point x="350" y="372"/>
      <point x="407" y="298" type="curve"/>
    </contour>
    <contour>
      <point x="439" y="569" type="line"/>
      <point x="439" y="369" type="line"/>
      <point x="274" y="569" type="line"/>
    </contour>
  </outline>
</glyph>
<glyph name="dv_MatraIi" format="1">
  <advance width="338"/>
  <unicode hex="0940"/>
  <outline>
    <contour>
      <point x="97" y="0" type="line"/>
      <point x="239" y="-16" type="line"/>
      <point x="239" y="569" type="line"/>
      <point x="350" y="569" type="line"/>
      <point x="332" y="680" type="line"/>
      <point x="220" y="680" type="line"/>
      <point x="176" y="799"/>
      <point x="81" y="951"/>
      <point x="-55" y="951" type="curve" smooth="yes"/>
      <point x="-151" y="951"/>
      <point x="-217" y="889"/>
      <point x="-217" y="811" type="curve" smooth="yes"/>
      <point x="-217" y="771"/>
      <point x="-208" y="743"/>
      <point x="-192" y="724" type="curve"/>
      <point x="-59" y="751" type="line"/>
      <point x="-71" y="766"/>
      <point x="-79" y="780"/>
      <point x="-79" y="801" type="curve" smooth="yes"/>
      <point x="-79" y="815"/>
      <point x="-70" y="835"/>
      <point x="-49" y="835" type="curve" smooth="yes"/>
      <point x="10" y="835"/>
      <point x="55" y="745"/>
      <point x="78" y="680" type="curve"/>
      <point x="-11" y="680" type="line"/>
      <point x="6" y="569" type="line"/>
      <point x="97" y="569" type="line"/>
    </contour>
  </outline>
</glyph>
<glyph name="dv_MatraU" format="1">
  <advance width="0"/>
  <unicode hex="0941"/>
  <outline>
    <contour>
      <point x="-225" y="-225"/>
      <point x="-274" y="-173"/>
      <point x="-344" y="-90" type="curve"/>
      <point x="-430" y="-148" type="line"/>
      <point x="-356" y="-265"/>
      <point x="-262" y="-337"/>
      <point x="-166" y="-337" type="curve" smooth="yes"/>
      <point x="-71" y="-337"/>
      <point x="8" y="-277"/>
      <point x="8" y="-178" type="curve" smooth="yes"/>
      <point x="8" y="-77"/>
      <point x="-74" y="-18"/>
      <point x="-155" y="-18" type="curve"/>
      <point x="-240" y="-18" type="line"/>
      <point x="-240" y="-130" type="line"/>
      <point x="-164" y="-130" type="line"/>
      <point x="-131" y="-130"/>
      <point x="-110" y="-151"/>
      <point x="-110" y="-178" type="curve" smooth="yes"/>
      <point x="-110" y="-206"/>
      <point x="-128" y="-225"/>
      <point x="-164" y="-225" type="curve" smooth="yes"/>
    </contour>
  </outline>
</glyph>
<glyph name="dv_MatraUu" format="1">
  <advance width="0"/>
  <unicode hex="0942"/>
  <outline>
    <contour>
      <point x="-118" y="-130"/>
      <point x="-69" y="-182"/>
      <point x="2" y="-265" type="curve"/>
      <point x="87" y="-207" type="line"/>
      <point x="14" y="-89"/>
      <point x="-81" y="-18"/>
      <point x="-177" y="-18" type="curve" smooth="yes"/>
      <point x="-272" y="-18"/>
      <point x="-351" y="-77"/>
      <point x="-351" y="-177" type="curve" smooth="yes"/>
      <point x="-351" y="-277"/>
      <point x="-269" y="-337"/>
      <point x="-188" y="-337" type="curve" smooth="yes"/>
      <point x="-103" y="-337" type="line"/>
      <point x="-103" y="-225" type="line"/>
      <point x="-179" y="-225" type="line" smooth="yes"/>
      <point x="-212" y="-225"/>
      <point x="-232" y="-205"/>
      <point x="-232" y="-177" type="curve" smooth="yes"/>
      <point x="-232" y="-150"/>
      <point x="-214" y="-130"/>
      <point x="-179" y="-130" type="curve" smooth="yes"/>
    </contour>
  </outline>
</glyph>
<glyph name="dv_MatraVocalicR" format="1">
  <advance width="0"/>
  <unicode hex="0943"/>
  <outline>
    <contour>
      <point x="-209" y="-225"/>
      <point x="-230" y="-206"/>
      <point x="-230" y="-178" type="curve" smooth="yes"/>
      <point x="-230" y="-151"/>
      <point x="-209" y="-130"/>
      <point x="-175" y="-130" type="curve" smooth="yes"/>
      <point x="-99" y="-130" type="line"/>
      <point x="-99" y="-18" type="line"/>
      <point x="-185" y="-18" type="line" smooth="yes"/>
      <point x="-265" y="-18"/>
      <point x="-348" y="-77"/>
      <point x="-348" y="-178" type="curve" smooth="yes"/>
      <point x="-348" y="-277"/>
      <point x="-270" y="-337"/>
      <point x="-185" y="-337" type="curve" smooth="yes"/>
      <point x="-155" y="-337"/>
      <point x="-118" y="-335"/>
      <point x="-76" y="-322" type="curve"/>
      <point x="-100" y="-212" type="line"/>
      <point x="-136" y="-223"/>
      <point x="-162" y="-225"/>
      <point x="-175" y="-225" type="curve" smooth="yes"/>
    </contour>
  </outline>
</glyph>
<glyph name="dv_MatraCandraE" format="1">
  <advance width="0"/>
  <unicode hex="0945"/>
  <outline>
    <contour>
      <point x="406" y="959" type="line"/>
      <point x="367" y="888"/>
      <point x="307" y="866"/>
      <point x="260" y="866" type="curve" smooth="yes"/>
      <point x="214" y="866"/>
      <point x="146" y="893"/>
      <point x="115" y="959" type="curve"/>
      <point x="17" y="899" type="line"/>
      <point x="73" y="788"/>
      <point x="166" y="757"/>
      <point x="260" y="757" type="curve" smooth="yes"/>
      <point x="354" y="757"/>
      <point x="447" y="787"/>
      <point x="503" y="899" type="curve"/>
    </contour>
  </outline>
</glyph>
<glyph name="dv_MatraE" format="1">
  <advance width="0"/>
  <unicode hex="0947"/>
  <outline>
    <contour>
      <point x="-34" y="610" type="line"/>
      <point x="-392" y="965" type="line"/>
      <point x="-494" y="884" type="line"/>
      <point x="-197" y="610" type="line"/>
    </contour>
  </outline>
</glyph>
<glyph name="dv_MatraAi" format="1">
  <advance width="0"/>
  <unicode hex="0948"/>
  <outline>
    <contour>
      <point x="-115" y="672" type="line"/>
      <point x="-195" y="1017" type="line"/>
      <point x="-323" y="981" type="line"/>
      <point x="-277" y="839" type="line"/>
      <point x="-311" y="857"/>
      <point x="-344" y="857"/>
      <point x="-385" y="857" type="curve" smooth="yes"/>
      <point x="-506" y="857" type="line"/>
      <point x="-479" y="737" type="line"/>
      <point x="-379" y="737" type="line" smooth="yes"/>
      <point x="-305" y="737"/>
      <point x="-285" y="718"/>
      <point x="-239" y="672" type="curve"/>
    </contour>
  </outline>
</glyph>
<glyph name="dv_MatraShortO" format="1">
  <advance width="338"/>
  <unicode hex="094A"/>
  <outline>
    <contour>
      <point x="38" y="747" type="line" smooth="yes"/>
      <point x="82" y="747"/>
      <point x="104" y="723"/>
      <point x="104" y="682" type="curve" smooth="yes"/>
      <point x="104" y="680" type="line"/>
      <point x="-11" y="680" type="line"/>
      <point x="6" y="569" type="line"/>
      <point x="97" y="569" type="line"/>
      <point x="97" y="0" type="line"/>
      <point x="239" y="-16" type="line"/>
      <point x="239" y="569" type="line"/>
      <point x="350" y="569" type="line"/>
      <point x="332" y="680" type="line"/>
      <point x="234" y="680" type="line"/>
      <point x="234" y="719" type="line" smooth="yes"/>
      <point x="234" y="799"/>
      <point x="146" y="859"/>
      <point x="44" y="859" type="curve" smooth="yes"/>
      <point x="-15" y="859" type="line" smooth="yes"/>
      <point x="-55" y="859"/>
      <point x="-81" y="871"/>
      <point x="-81" y="912" type="curve"/>
      <point x="-205" y="929" type="line"/>
      <point x="-205" y="886" type="line" smooth="yes"/>
      <point x="-205" y="804"/>
      <point x="-130" y="748"/>
      <point x="-15" y="747" type="curve" smooth="yes"/>
    </contour>
  </outline>
</glyph>
<glyph name="dv_Fa" format="1">
  <advance width="958"/>
  <unicode hex="095E"/>
  <outline>
    <contour>
      <point x="439" y="0" type="line"/>
      <point x="580" y="-16" type="line"/>
      <point x="580" y="324" type="line"/>
      <point x="600" y="352"/>
      <point x="629" y="381"/>
      <point x="692" y="381" type="curve" smooth="yes"/>
      <point x="745" y="381"/>
      <point x="790" y="339"/>
      <point x="790" y="279" type="curve" smooth="yes"/>
      <point x="790" y="218"/>
      <point x="732" y="176"/>
      <point x="653" y="176" type="curve"/>
      <point x="676" y="59" type="line"/>
      <point x="804" y="59"/>
      <point x="924" y="141"/>
      <point x="924" y="278" type="curve" smooth="yes"/>
      <point x="924" y="403"/>
      <point x="830" y="498"/>
      <point x="689" y="498" type="curve" smooth="yes"/>
      <point x="656" y="498"/>
      <point x="607" y="485"/>
      <point x="580" y="466" type="curve"/>
      <point x="580" y="569" type="line"/>
      <point x="970" y="569" type="line"/>
      <point x="953" y="680" type="line"/>
      <point x="-11" y="680" type="line"/>
      <point x="6" y="569" type="line"/>
      <point x="74" y="569" type="line"/>
      <point x="74" y="374" type="line" smooth="yes"/>
      <point x="74" y="234"/>
      <point x="184" y="151"/>
      <point x="318" y="151" type="curve" smooth="yes"/>
      <point x="356" y="151"/>
      <point x="409" y="164"/>
      <point x="439" y="179" type="curve"/>
    </contour>
    <contour>
      <point x="254" y="269"/>
      <point x="216" y="309"/>
      <point x="216" y="374" type="curve" smooth="yes"/>
      <point x="216" y="569" type="line"/>
      <point x="439" y="569" type="line"/>
      <point x="439" y="356" type="line"/>
      <point x="429" y="302"/>
      <point x="380" y="269"/>
      <point x="323" y="269" type="curve" smooth="yes"/>
    </contour>
    <contour>
      <point x="147" y="-43"/>
      <point x="181" y="-78"/>
      <point x="224" y="-78" type="curve" smooth="yes"/>
      <point x="268" y="-78"/>
      <point x="304" y="-43"/>
      <point x="304" y="0" type="curve" smooth="yes"/>
      <point x="304" y="43"/>
      <point x="268" y="78"/>
      <point x="224" y="78" type="curve" smooth="yes"/>
      <point x="181" y="78"/>
      <point x="147" y="43"/>
      <point x="147" y="0" type="curve" smooth="yes"/>
    </contour>
  </outline>
</glyph>
<glyph name="dv_Yya" format="1">
  <advance width="666"/>
  <unicode hex="095F"/>
  <outline>
    <contour>
      <point x="425" y="0" type="line"/>
      <point x="566" y="-16" type="line"/>
      <point x="566" y="569" type="line"/>
      <point x="677" y="569" type="line"/>
      <point x="661" y="680" type="line"/>
      <point x="-11" y="680" type="line"/>
      <point x="6" y="569" type="line"/>
      <point x="87" y="569" type="line"/>
      <point x="114" y="558"/>
      <point x="135" y="527"/>
      <point x="135" y="493" type="curve" smooth="yes"/>
      <point x="135" y="440"/>
      <point x="106" y="398"/>
      <point x="76" y="388" type="curve"/>
      <point x="50" y="360" type="line"/>
      <point x="50" y="249"/>
      <point x="173" y="151"/>
      <point x="297" y="151" type="curve" smooth="yes"/>
      <point x="360" y="151"/>
      <point x="395" y="164"/>
      <point x="425" y="178" type="curve"/>
    </contour>
    <contour>
      <point x="234" y="269"/>
      <point x="202" y="307"/>
      <point x="184" y="334" type="curve"/>
      <point x="237" y="372"/>
      <point x="260" y="426"/>
      <point x="260" y="486" type="curve" smooth="yes"/>
      <point x="260" y="515"/>
      <point x="252" y="548"/>
      <point x="243" y="569" type="curve"/>
      <point x="425" y="569" type="line"/>
      <point x="425" y="358" type="line"/>
      <point x="416" y="303"/>
      <point x="360" y="269"/>
      <point x="302" y="269" type="curve" smooth="yes"/>
    </contour>
    <contour>
      <point x="124" y="-43"/>
      <point x="158" y="-78"/>
      <point x="202" y="-78" type="curve" smooth="yes"/>
      <point x="246" y="-78"/>
      <point x="281" y="-43"/>
      <point x="281" y="0" type="curve" smooth="yes"/>
      <point x="281" y="43"/>
      <point x="246" y="78"/>
      <point x="202" y="78" type="curve" smooth="yes"/>
      <point x="158" y="78"/>
      <point x="124" y="43"/>
      <point x="124" y="0" type="curve" smooth="yes"/>
    </contour>
  </outline>
</glyph>
<glyph name="dv_MatraVocalicL" format="1">
  <advance width="0"/>
  <unicode hex="0962"/>
  <outline>
    <contour>
      <point x="285" y="-156" type="line" smooth="yes"/>
      <point x="285" y="-132"/>
      <point x="304" y="-118"/>
      <point x="323" y="-118" type="curve" smooth="yes"/>
      <point x="339" y="-118"/>
      <point x="356" y="-126"/>
      <point x="356" y="-143" type="curve" smooth="yes"/>
      <point x="356" y="-179"/>
      <point x="317" y="-214"/>
      <point x="317" y="-269" type="curve" smooth="yes"/>
      <point x="317" y="-321"/>
      <point x="370" y="-338"/>
      <point x="404" y="-338" type="curve" smooth="yes"/>
      <point x="436" y="-338" type="line"/>
      <point x="460" y="-248" type="line"/>
      <point x="441" y="-248" type="line" smooth="yes"/>
      <point x="426" y="-248"/>
      <point x="426" y="-230"/>
      <point x="431" y="-221" type="curve" smooth="yes"/>
      <point x="445" y="-197"/>
      <point x="461" y="-171"/>
      <point x="461" y="-135" type="curve" smooth="yes"/>
      <point x="461" y="-74"/>
      <point x="409" y="-19"/>
      <point x="332" y="-19" type="curve" smooth="yes"/>
      <point x="294" y="-19"/>
      <point x="255" y="-41"/>
      <point x="239" y="-67" type="curve"/>
      <point x="223" y="-39"/>
      <point x="188" y="-19"/>
      <point x="149" y="-19" type="curve" smooth="yes"/>
      <point x="71" y="-19"/>
      <point x="17" y="-74"/>
      <point x="17" y="-135" type="curve" smooth="yes"/>
      <point x="17" y="-196"/>
      <point x="42" y="-247"/>
      <point x="92" y="-342" type="curve"/>
      <point x="194" y="-319" type="line"/>
      <point x="143" y="-223"/>
      <point x="121" y="-184"/>
      <point x="121" y="-142" type="curve" smooth="yes"/>
      <point x="121" y="-132"/>
      <point x="136" y="-118"/>
      <point x="154" y="-118" type="curve" smooth="yes"/>
      <point x="174" y="-118"/>
      <point x="193" y="-130"/>
      <point x="193" y="-156" type="curve" smooth="yes"/>
      <point x="193" y="-229" type="line"/>
      <point x="285" y="-253" type="line"/>
    </contour>
  </outline>
</glyph>
<glyph name="dv_MatraVocalicLl" format="1">
  <advance width="0"/>
  <unicode hex="0963"/>
  <outline>
    <contour>
      <point x="285" y="-156" type="line" smooth="yes"/>
      <point x="285" y="-132"/>
      <point x="304" y="-118"/>
      <point x="323" y="-118" type="curve" smooth="yes"/>
      <point x="349" y="-118"/>
      <point x="361" y="-132"/>
      <point x="361" y="-149" type="curve" smooth="yes"/>
      <point x="360" y="-182"/>
      <point x="334" y="-202"/>
      <point x="334" y="-258" type="curve" smooth="yes"/>
      <point x="334" y="-267"/>
      <point x="337" y="-283"/>
      <point x="345" y="-290" type="curve"/>
      <point x="332" y="-298"/>
      <point x="321" y="-316"/>
      <point x="321" y="-335" type="curve" smooth="yes"/>
      <point x="321" y="-393"/>
      <point x="360" y="-419"/>
      <point x="411" y="-419" type="curve" smooth="yes"/>
      <point x="432" y="-419" type="line"/>
      <point x="454" y="-349" type="line"/>
      <point x="419" y="-349" type="line" smooth="yes"/>
      <point x="406" y="-349"/>
      <point x="393" y="-345"/>
      <point x="393" y="-335" type="curve" smooth="yes"/>
      <point x="393" y="-326"/>
      <point x="404" y="-322"/>
      <point x="416" y="-321" type="curve"/>
      <point x="442" y="-321" type="line"/>
      <point x="465" y="-243" type="line"/>
      <point x="453" y="-243" type="line" smooth="yes"/>
      <point x="439" y="-243"/>
      <point x="435" y="-236"/>
      <point x="435" y="-227" type="curve" smooth="yes"/>
      <point x="435" y="-200"/>
      <point x="461" y="-177"/>
      <point x="461" y="-135" type="curve" smooth="yes"/>
      <point x="461" y="-74"/>
      <point x="409" y="-19"/>
      <point x="332" y="-19" type="curve" smooth="yes"/>
      <point x="294" y="-19"/>
      <point x="255" y="-41"/>
      <point x="239" y="-67" type="curve"/>
      <point x="223" y="-39"/>
      <point x="188" y="-19"/>
      <point x="149" y="-19" type="curve" smooth="yes"/>
      <point x="71" y="-19"/>
      <point x="17" y="-74"/>
      <point x="17" y="-135" type="curve" smooth="yes"/>
      <point x="17" y="-196"/>
      <point x="42" y="-247"/>
      <point x="92" y="-342" type="curve"/>
      <point x="194" y="-319" type="line"/>
      <point x="143" y="-223"/>
      <point x="121" y="-184"/>
      <point x="121" y="-142" type="curve" smooth="yes"/>
      <point x="121" y="-132"/>
      <point x="136" y="-118"/>
      <point x="154" y="-118" type="curve" smooth="yes"/>
      <point x="174" y="-118"/>
      <point x="193" y="-130"/>
      <point x="193" y="-156" type="curve" smooth="yes"/>
      <point x="193" y="-229" type="line"/>
      <point x="285" y="-253" type="line"/>
    </contour>
  </outline>
</glyph>
<glyph name="dv_Zero" format="1">
  <advance width="666"/>
  <unicode hex="0966"/>
  <outline>
    <contour>
      <point x="51" y="183"/>
      <point x="171" y="57"/>
      <point x="334" y="57" type="curve" smooth="yes"/>
      <point x="496" y="57"/>
      <point x="615" y="183"/>
      <point x="615" y="339" type="curve" smooth="yes"/>
      <point x="615" y="496"/>
      <point x="496" y="622"/>
      <point x="332" y="622" type="curve"/>
      <point x="170" y="621"/>
      <point x="51" y="495"/>
      <point x="51" y="339" type="curve" smooth="yes"/>
    </contour>
    <contour>
      <point x="240" y="171"/>
      <point x="173" y="244"/>
      <point x="173" y="339" type="curve" smooth="yes"/>
      <point x="173" y="435"/>
      <point x="240" y="508"/>
      <point x="333" y="508" type="curve" smooth="yes"/>
      <point x="426" y="508"/>
      <point x="493" y="435"/>
      <point x="493" y="339" type="curve" smooth="yes"/>
      <point x="493" y="244"/>
      <point x="426" y="171"/>
      <point x="333" y="171" type="curve" smooth="yes"/>
    </contour>
  </outline>
</glyph>
<glyph name="dv_One" format="1">
  <advance width="408"/>
  <unicode hex="0967"/>
  <outline>
    <contour>
      <point x="48" y="334" type="line"/>
      <point x="45" y="286" type="line"/>
      <point x="241" y="-20" type="line"/>
      <point x="374" y="12" type="line"/>
      <point x="178" y="288" type="line"/>
      <point x="249" y="344" type="line" smooth="yes"/>
      <point x="330" y="409"/>
      <point x="365" y="480"/>
      <point x="365" y="544" type="curve" smooth="yes"/>
      <point x="365" y="633"/>
      <point x="304" y="699"/>
      <point x="208" y="699" type="curve" smooth="yes"/>
      <point x="121" y="699"/>
      <point x="57" y="629"/>
      <point x="57" y="538" type="curve" smooth="yes"/>
      <point x="57" y="479"/>
      <point x="117" y="427"/>
      <point x="153" y="417" type="curve"/>
    </contour>
    <contour>
      <point x="179" y="566"/>
      <point x="193" y="589"/>
      <point x="211" y="589" type="curve" smooth="yes"/>
      <point x="236" y="589"/>
      <point x="248" y="563"/>
      <point x="248" y="538" type="curve" smooth="yes"/>
      <point x="248" y="519"/>
      <point x="236" y="491"/>
      <point x="223" y="481" type="curve"/>
      <point x="196" y="487"/>
      <point x="179" y="517"/>
      <point x="179" y="544" type="curve" smooth="yes"/>
    </contour>
  </outline>
</glyph>
<glyph name="dv_Two" format="1">
  <advance width="526"/>
  <unicode hex="0968"/>
  <outline>
    <contour>
      <point x="184" y="238" type="line"/>
      <point x="331" y="-21" type="line"/>
      <point x="463" y="12" type="line"/>
      <point x="313" y="252" type="line"/>
      <point x="421" y="298"/>
      <point x="469" y="384"/>
      <point x="469" y="467" type="curve" smooth="yes"/>
      <point x="469" y="566"/>
      <point x="394" y="699"/>
      <point x="227" y="699" type="curve" smooth="yes"/>
      <point x="159" y="699"/>
      <point x="85" y="668"/>
      <point x="45" y="638" type="curve"/>
      <point x="93" y="537" type="line"/>
      <point x="120" y="554"/>
      <point x="171" y="584"/>
      <point x="225" y="584" type="curve" smooth="yes"/>
      <point x="292" y="584"/>
      <point x="339" y="531"/>
      <point x="339" y="472" type="curve" smooth="yes"/>
      <point x="339" y="435"/>
      <point x="322" y="380"/>
      <point x="269" y="362" type="curve"/>
      <point x="260" y="388"/>
      <point x="238" y="422"/>
      <point x="218" y="422" type="curve" smooth="yes"/>
      <point x="156" y="422"/>
      <point x="89" y="344"/>
      <point x="89" y="281" type="curve"/>
      <point x="93" y="255"/>
      <point x="118" y="239"/>
      <point x="149" y="239" type="curve" smooth="yes"/>
    </contour>
  </outline>
</glyph>
<glyph name="dv_Three" format="1">
  <advance width="559"/>
  <unicode hex="0969"/>
  <outline>
    <contour>
      <point x="489" y="617"/>
      <point x="420" y="699"/>
      <point x="283" y="699" type="curve" smooth="yes"/>
      <point x="206" y="699"/>
      <point x="140" y="679"/>
      <point x="80" y="640" type="curve"/>
      <point x="98" y="526" type="line"/>
      <point x="137" y="556"/>
      <point x="201" y="587"/>
      <point x="259" y="585" type="curve" smooth="yes"/>
      <point x="311" y="584"/>
      <point x="347" y="562"/>
      <point x="347" y="524" type="curve" smooth="yes"/>
      <point x="347" y="475"/>
      <point x="309" y="440"/>
      <point x="244" y="440" type="curve" smooth="yes"/>
      <point x="140" y="440" type="line"/>
      <point x="154" y="338" type="line"/>
      <point x="238" y="338" type="line" smooth="yes"/>
      <point x="320" y="338"/>
      <point x="359" y="297"/>
      <point x="359" y="249" type="curve" smooth="yes"/>
      <point x="359" y="203"/>
      <point x="308" y="176"/>
      <point x="252" y="176" type="curve" smooth="yes"/>
      <point x="237" y="176" type="line"/>
      <point x="223" y="223"/>
      <point x="167" y="262"/>
      <point x="119" y="262" type="curve" smooth="yes"/>
      <point x="80" y="262"/>
      <point x="51" y="237"/>
      <point x="51" y="198" type="curve" smooth="yes"/>
      <point x="51" y="141"/>
      <point x="101" y="100"/>
      <point x="142" y="81" type="curve"/>
      <point x="267" y="-87" type="line"/>
      <point x="360" y="-21" type="line"/>
      <point x="293" y="62" type="line"/>
      <point x="420" y="71"/>
      <point x="501" y="149"/>
      <point x="501" y="249" type="curve"/>
      <point x="500" y="310"/>
      <point x="461" y="371"/>
      <point x="396" y="386" type="curve"/>
      <point x="460" y="406"/>
      <point x="489" y="471"/>
      <point x="489" y="526" type="curve" smooth="yes"/>
    </contour>
  </outline>
</glyph>
<glyph name="dv_Five" format="1">
  <advance width="589"/>
  <unicode hex="096B"/>
  <outline>
    <contour>
      <point x="374" y="101"/>
      <point x="365" y="99"/>
      <point x="316" y="115" type="curve"/>
      <point x="284" y="5" type="line"/>
      <point x="332" y="-14"/>
      <point x="382" y="-16"/>
      <point x="404" y="-16" type="curve" smooth="yes"/>
      <point x="537" y="-16"/>
      <point x="566" y="65"/>
      <point x="566" y="148" type="curve" smooth="yes"/>
      <point x="566" y="182"/>
      <point x="546" y="254"/>
      <point x="516" y="305" type="curve"/>
      <point x="527" y="322"/>
      <point x="530" y="339"/>
      <point x="530" y="358" type="curve" smooth="yes"/>
      <point x="530" y="412"/>
      <point x="475" y="451"/>
      <point x="421" y="451" type="curve" smooth="yes"/>
      <point x="377" y="451"/>
      <point x="347" y="411"/>
      <point x="346" y="376" type="curve" smooth="yes"/>
      <point x="346" y="363"/>
      <point x="349" y="351"/>
      <point x="352" y="339" type="curve"/>
      <point x="273" y="339"/>
      <point x="222" y="368"/>
      <point x="222" y="455" type="curve" smooth="yes"/>
      <point x="222" y="680" type="line"/>
      <point x="80" y="680" type="line"/>
      <point x="80" y="455" type="line" smooth="yes"/>
      <point x="80" y="292"/>
      <point x="211" y="223"/>
      <point x="352" y="223" type="curve" smooth="yes"/>
      <point x="372" y="223"/>
      <point x="398" y="225"/>
      <point x="422" y="231" type="curve"/>
      <point x="435" y="205"/>
      <point x="444" y="174"/>
      <point x="444" y="143" type="curve" smooth="yes"/>
      <point x="444" y="122"/>
      <point x="430" y="101"/>
      <point x="393" y="101" type="curve" smooth="yes"/>
    </contour>
  </outline>
</glyph>
<glyph name="emdash" format="1">
  <advance width="520"/>
  <unicode hex="2014"/>
  <outline>
    <contour>
      <point x="505" y="223" type="line"/>
      <point x="496" y="325" type="line"/>
      <point x="16" y="325" type="line"/>
      <point x="27" y="223" type="line"/>
    </contour>
  </outline>
</glyph>
<glyph name="quotedblright" format="1">
  <advance width="360"/>
  <unicode hex="201D"/>
  <outline>
    <contour>
      <point x="166" y="706"/>
      <point x="132" y="742"/>
      <point x="90" y="742" type="curve" smooth="yes"/>
      <point x="49" y="742"/>
      <point x="17" y="703"/>
      <point x="17" y="668" type="curve" smooth="yes"/>
      <point x="17" y="632"/>
      <point x="50" y="597"/>
      <point x="73" y="597" type="curve"/>
      <point x="64" y="554"/>
      <point x="40" y="533"/>
      <point x="6" y="504" type="curve"/>
      <point x="34" y="443" type="line"/>
      <point x="111" y="486"/>
      <point x="166" y="578"/>
      <point x="166" y="653" type="curve" smooth="yes"/>
    </contour>
    <contour>
      <point x="350" y="706"/>
      <point x="317" y="742"/>
      <point x="276" y="742" type="curve" smooth="yes"/>
      <point x="234" y="742"/>
      <point x="202" y="703"/>
      <point x="202" y="668" type="curve" smooth="yes"/>
      <point x="202" y="632"/>
      <point x="234" y="597"/>
      <point x="258" y="597" type="curve"/>
      <point x="248" y="554"/>
      <point x="224" y="533"/>
      <point x="190" y="504" type="curve"/>
      <point x="219" y="443" type="line"/>
      <point x="295" y="486"/>
      <point x="350" y="578"/>
      <point x="350" y="653" type="curve" smooth="yes"/>
    </contour>
  </outline>
</glyph>
<glyph name="guilsinglleft" format="1">
  <advance width="219"/>
  <unicode hex="2039"/>
  <outline>
    <contour>
      <point x="181" y="83" type="line"/>
      <point x="204" y="174" type="line"/>
      <point x="123" y="245" type="line"/>
      <point x="204" y="316" type="line"/>
      <point x="181" y="408" type="line"/>
      <point x="21" y="269" type="line"/>
      <point x="21" y="221" type="line"/>
    </contour>
  </outline>
</glyph>
<glyph name="Turkishlira" format="1">
  <advance width="579"/>
  <unicode hex="20BA"/>
  <outline>
    <contour>
      <point x="237" y="706" type="line"/>
      <point x="107" y="695" type="line"/>
      <point x="107" y="553" type="line"/>
      <point x="21" y="523" type="line"/>
      <point x="40" y="422" type="line"/>
      <point x="107" y="447" type="line"/>
      <point x="107" y="405" type="line"/>
      <point x="21" y="375" type="line"/>
      <point x="40" y="275" type="line"/>
      <point x="107" y="298" type="line"/>
      <point x="107" y="0" type="line"/>
      <point x="237" y="0" type="line" smooth="yes"/>
      <point x="415" y="0"/>
      <point x="547" y="125"/>
      <point x="547" y="315" type="curve"/>
      <point x="414" y="315" type="line"/>
      <point x="415" y="202"/>
      <point x="342" y="123"/>
      <point x="237" y="123" type="curve"/>
      <point x="237" y="344" type="line"/>
      <point x="405" y="404" type="line"/>
      <point x="387" y="504" type="line"/>
      <point x="237" y="452" type="line"/>
      <point x="237" y="493" type="line"/>
      <point x="405" y="552" type="line"/>
      <point x="387" y="652" type="line"/>
      <point x="237" y="600" type="line"/>
    </contour>
  </outline>
</glyph>
<glyph name="Ruble" format="1">
  <advance width="654"/>
  <unicode hex="20BD"/>
  <outline>
    <contour>
      <point x="513" y="118" type="line"/>
      <point x="502" y="220" type="line"/>
      <point x="260" y="220" type="line"/>
      <point x="260" y="268" type="line"/>
      <point x="335" y="268" type="line" smooth="yes"/>
      <point x="480" y="268"/>
      <point x="611" y="322"/>
      <point x="612" y="477" type="curve"/>
      <point x="612" y="634"/>
      <point x="493" y="680"/>
      <point x="344" y="680" type="curve" smooth="yes"/>
      <point x="131" y="680" type="line"/>
      <point x="131" y="374" type="line"/>
      <point x="63" y="374" type="line"/>
      <point x="63" y="268" type="line"/>
      <point x="131" y="268" type="line"/>
      <point x="131" y="220" type="line"/>
      <point x="62" y="220" type="line"/>
      <point x="73" y="118" type="line"/>
      <point x="131" y="118" type="line"/>
      <point x="131" y="0" type="line"/>
      <point x="260" y="0" type="line"/>
      <point x="260" y="118" type="line"/>
    </contour>
    <contour>
      <point x="340" y="572" type="line" smooth="yes"/>
      <point x="426" y="572"/>
      <point x="476" y="559"/>
      <point x="476" y="470" type="curve"/>
      <point x="469" y="394"/>
      <point x="421" y="374"/>
      <point x="342" y="374" type="curve" smooth="yes"/>
      <point x="260" y="374" type="line"/>
      <point x="260" y="572" type="line"/>
    </contour>
  </outline>
</glyph>
<glyph name="litre" format="1">
  <advance width="431"/>
  <unicode hex="2113"/>
  <outline>
    <contour>
      <point x="400" y="647"/>
      <point x="335" y="702"/>
      <point x="253" y="702" type="curve" smooth="yes"/>
      <point x="167" y="702"/>
      <point x="94" y="646"/>
      <point x="94" y="549" type="curve" smooth="yes"/>
      <point x="94" y="317" type="line"/>
      <point x="71" y="299"/>
      <point x="47" y="284"/>
      <point x="25" y="271" type="curve"/>
      <point x="57" y="153" type="line"/>
      <point x="71" y="159"/>
      <point x="83" y="167"/>
      <point x="94" y="174" type="curve"/>
      <point x="94" y="167" type="line" smooth="yes"/>
      <point x="94" y="61"/>
      <point x="138" y="-10"/>
      <point x="258" y="-10" type="curve" smooth="yes"/>
      <point x="297" y="-10"/>
      <point x="342" y="7"/>
      <point x="382" y="42" type="curve"/>
      <point x="338" y="125" type="line"/>
      <point x="308" y="101"/>
      <point x="284" y="101"/>
      <point x="272" y="101" type="curve" smooth="yes"/>
      <point x="236" y="101"/>
      <point x="225" y="135"/>
      <point x="225" y="179" type="curve" smooth="yes"/>
      <point x="225" y="272" type="line"/>
      <point x="321" y="356"/>
      <point x="400" y="461"/>
      <point x="400" y="555" type="curve" smooth="yes"/>
    </contour>
    <contour>
      <point x="225" y="542" type="line" smooth="yes"/>
      <point x="225" y="577"/>
      <point x="234" y="588"/>
      <point x="248" y="589" type="curve"/>
      <point x="258" y="589"/>
      <point x="272" y="579"/>
      <point x="272" y="548" type="curve" smooth="yes"/>
      <point x="272" y="507"/>
      <point x="254" y="468"/>
      <point x="225" y="433" type="curve"/>
    </contour>
  </outline>
</glyph>
<glyph name="Delta" format="1">
  <advance width="651"/>
  <unicode hex="2206"/>
  <outline>
    <contour>
      <point x="381" y="680" type="line"/>
      <point x="271" y="680" type="line"/>
      <point x="6" y="0" type="line"/>
      <point x="515" y="0" type="line"/>
      <point x="645" y="18" type="line"/>
    </contour>
    <contour>
      <point x="323" y="502" type="line"/>
      <point x="475" y="104" type="line"/>
      <point x="174" y="104" type="line"/>
    </contour>
  </outline>
</glyph>
<glyph name="summation" format="1">
  <advance width="475"/>
  <unicode hex="2211"/>
  <outline>
    <contour>
      <point x="465" y="0" type="line"/>
      <point x="445" y="101" type="line"/>
      <point x="161" y="101" type="line"/>
      <point x="311" y="324" type="line"/>
      <point x="311" y="367" type="line"/>
      <point x="166" y="578" type="line"/>
      <point x="419" y="578" type="line"/>
      <point x="398" y="680" type="line"/>
      <point x="24" y="680" type="line"/>
      <point x="24" y="578" type="line"/>
      <point x="190" y="344" type="line"/>
      <point x="21" y="101" type="line"/>
      <point x="21" y="0" type="line"/>
    </contour>
  </outline>
</glyph>
<glyph name="divisionslash" format="1">
  <advance width="445"/>
  <unicode hex="2215"/>
  <outline>
    <contour>
      <point x="440" y="706" type="line"/>
      <point x="304" y="710" type="line"/>
      <point x="6" y="0" type="line"/>
      <point x="141" y="-4" type="line"/>
    </contour>
  </outline>
</glyph>
<glyph name="infinity" format="1">
  <advance width="837"/>
  <unicode hex="221E"/>
  <outline>
    <contour>
      <point x="380" y="438"/>
      <point x="319" y="468"/>
      <point x="251" y="468" type="curve" smooth="yes"/>
      <point x="124" y="468"/>
      <point x="31" y="370"/>
      <point x="31" y="245" type="curve" smooth="yes"/>
      <point x="31" y="120"/>
      <point x="124" y="34"/>
      <point x="253" y="34" type="curve" smooth="yes"/>
      <point x="320" y="34"/>
      <point x="375" y="69"/>
      <point x="412" y="115" type="curve"/>
      <point x="457" y="65"/>
      <point x="519" y="36"/>
      <point x="586" y="36" type="curve" smooth="yes"/>
      <point x="713" y="36"/>
      <point x="806" y="134"/>
      <point x="806" y="258" type="curve" smooth="yes"/>
      <point x="806" y="384"/>
      <point x="713" y="469"/>
      <point x="584" y="469" type="curve" smooth="yes"/>
      <point x="518" y="469"/>
      <point x="462" y="435"/>
      <point x="426" y="389" type="curve"/>
    </contour>
    <contour>
      <point x="189" y="140"/>
      <point x="145" y="188"/>
      <point x="145" y="244" type="curve" smooth="yes"/>
      <point x="145" y="306"/>
      <point x="189" y="360"/>
      <point x="253" y="360" type="curve"/>
      <point x="302" y="359"/>
      <point x="349" y="330"/>
      <point x="374" y="288" type="curve"/>
      <point x="371" y="272" type="line"/>
      <point x="353" y="209"/>
      <point x="310" y="140"/>
      <point x="253" y="140" type="curve" smooth="yes"/>
    </contour>
    <contour>
      <point x="648" y="363"/>
      <point x="692" y="316"/>
      <point x="692" y="260" type="curve" smooth="yes"/>
      <point x="692" y="197"/>
      <point x="648" y="143"/>
      <point x="584" y="143" type="curve"/>
      <point x="535" y="145"/>
      <point x="489" y="173"/>
      <point x="463" y="217" type="curve"/>
      <point x="466" y="232" type="line"/>
      <point x="484" y="294"/>
      <point x="527" y="363"/>
      <point x="584" y="363" type="curve" smooth="yes"/>
    </contour>
  </outline>
</glyph>
<glyph name="commaaccent" format="1">
  <advance width="174"/>
  <unicode hex="F6C3"/>
  <outline>
    <contour>
      <point x="158" y="-57"/>
      <point x="125" y="-21"/>
      <point x="84" y="-21" type="curve" smooth="yes"/>
      <point x="42" y="-21"/>
      <point x="10" y="-59"/>
      <point x="10" y="-95" type="curve" smooth="yes"/>
      <point x="10" y="-132"/>
      <point x="42" y="-167"/>
      <point x="66" y="-167" type="curve"/>
      <point x="57" y="-195"/>
      <point x="31" y="-216"/>
      <point x="14" y="-223" type="curve"/>
      <point x="42" y="-284" type="line"/>
      <point x="106" y="-253"/>
      <point x="158" y="-186"/>
      <point x="158" y="-111" type="curve" smooth="yes"/>
    </contour>
    <contour>
      <point x="85" y="0" type="move" name="_bottom"/>
    </contour>
  </outline>
</glyph>
<glyph name="circumflex.case" format="1">
  <advance width="406"/>
  <outline>
    <contour>
      <point x="139" y="739" type="line"/>
      <point x="206" y="804" type="line"/>
      <point x="272" y="739" type="line"/>
      <point x="391" y="739" type="line"/>
      <point x="239" y="903" type="line"/>
      <point x="168" y="903" type="line"/>
      <point x="16" y="739" type="line"/>
    </contour>
    <contour>
      <point x="206" y="702" type="move" name="_topU"/>
    </contour>
  </outline>
</glyph>
<glyph name="dv_BDhVa" format="1">
  <advance width="1399"/>
  <outline>
    <contour>
      <point x="814" y="271" type="line"/>
      <point x="768" y="219"/>
      <point x="687" y="182"/>
      <point x="629" y="182" type="curve" smooth="yes"/>
      <point x="557" y="182"/>
      <point x="514" y="216"/>
      <point x="514" y="263" type="curve" smooth="yes"/>
      <point x="514" y="307"/>
      <point x="550" y="344"/>
      <point x="615" y="344" type="curve" smooth="yes"/>
      <point x="677" y="344" type="line"/>
      <point x="657" y="453" type="line"/>
      <point x="608" y="453" type="line" smooth="yes"/>
      <point x="552" y="453"/>
      <point x="519" y="484"/>
      <point x="519" y="521" type="curve" smooth="yes"/>
      <point x="519" y="549"/>
      <point x="548" y="571"/>
      <point x="574" y="571" type="curve" smooth="yes"/>
      <point x="594" y="571"/>
      <point x="611" y="568"/>
      <point x="633" y="549" type="curve"/>
      <point x="700" y="640" type="line"/>
      <point x="672" y="666"/>
      <point x="633" y="694"/>
      <point x="568" y="694" type="curve" smooth="yes"/>
      <point x="540" y="694"/>
      <point x="515" y="689"/>
      <point x="493" y="680" type="curve"/>
      <point x="-11" y="680" type="line"/>
      <point x="6" y="569" type="line"/>
      <point x="393" y="569" type="line"/>
      <point x="389" y="555"/>
      <point x="387" y="540"/>
      <point x="387" y="526" type="curve" smooth="yes"/>
      <point x="387" y="505"/>
      <point x="392" y="484"/>
      <point x="399" y="464" type="curve"/>
      <point x="364" y="485"/>
      <point x="321" y="497"/>
      <point x="273" y="498" type="curve"/>
      <point x="133" y="498"/>
      <point x="40" y="403"/>
      <point x="40" y="278" type="curve" smooth="yes"/>
      <point x="40" y="154"/>
      <point x="133" y="59"/>
      <point x="273" y="59" type="curve"/>
      <point x="338" y="60"/>
      <point x="392" y="81"/>
      <point x="432" y="117" type="curve"/>
      <point x="473" y="79"/>
      <point x="535" y="57"/>
      <point x="620" y="57" type="curve" smooth="yes"/>
      <point x="715" y="57"/>
      <point x="801" y="98"/>
      <point x="861" y="140" type="curve"/>
      <point x="901" y="90"/>
      <point x="966" y="59"/>
      <point x="1047" y="59" type="curve" smooth="yes"/>
      <point x="1082" y="59"/>
      <point x="1140" y="77"/>
      <point x="1159" y="99" type="curve"/>
      <point x="1159" y="0" type="line"/>
      <point x="1300" y="-16" type="line"/>
      <point x="1300" y="569" type="line"/>
      <point x="1410" y="569" type="line"/>
      <point x="1394" y="680" type="line"/>
      <point x="763" y="680" type="line"/>
      <point x="780" y="569" type="line"/>
      <point x="1159" y="569" type="line"/>
      <point x="1159" y="458" type="line"/>
      <point x="1140" y="479"/>
      <point x="1082" y="497"/>
      <point x="1047" y="497" type="curve" smooth="yes"/>
      <point x="907" y="497"/>
      <point x="814" y="402"/>
      <point x="814" y="278" type="curve"/>
    </contour>
    <contour>
      <point x="1001" y="176"/>
      <point x="947" y="218"/>
      <point x="947" y="277" type="curve" smooth="yes"/>
      <point x="947" y="338"/>
      <point x="1001" y="380"/>
      <point x="1054" y="380" type="curve" smooth="yes"/>
      <point x="1104" y="380"/>
      <point x="1140" y="354"/>
      <point x="1159" y="325" type="curve"/>
      <point x="1159" y="230" type="line"/>
      <point x="1140" y="202"/>
      <point x="1104" y="176"/>
      <point x="1054" y="176" type="curve" smooth="yes"/>
    </contour>
    <contour>
      <point x="218" y="177"/>
      <point x="173" y="218"/>
      <point x="173" y="279" type="curve" smooth="yes"/>
      <point x="173" y="304"/>
      <point x="181" y="327"/>
      <point x="194" y="344" type="curve"/>
      <point x="325" y="192" type="line"/>
      <point x="310" y="182"/>
      <point x="291" y="176"/>
      <point x="271" y="176" type="curve" smooth="yes"/>
    </contour>
    <contour>
      <point x="324" y="381"/>
      <point x="369" y="339"/>
      <point x="369" y="279" type="curve" smooth="yes"/>
      <point x="369" y="266"/>
      <point x="367" y="255"/>
      <point x="363" y="244" type="curve"/>
      <point x="247" y="378" type="line"/>
      <point x="254" y="380"/>
      <point x="263" y="381"/>
      <point x="271" y="381" type="curve" smooth="yes"/>
    </contour>
  </outline>
</glyph>
<glyph name="dv_BJha.NEP" format="1">
  <advance width="925"/>
  <outline>
    <contour>
      <point x="40" y="154"/>
      <point x="133" y="59"/>
      <point x="273" y="59" type="curve"/>
      <point x="411" y="62"/>
      <point x="502" y="156"/>
      <point x="502" y="279" type="curve" smooth="yes"/>
      <point x="502" y="294"/>
      <point x="501" y="310"/>
      <point x="498" y="324" type="curve"/>
      <point x="514" y="324" type="line" smooth="yes"/>
      <point x="589" y="324"/>
      <point x="638" y="365"/>
      <point x="651" y="421" type="curve"/>
      <point x="715" y="420"/>
      <point x="761" y="397"/>
      <point x="761" y="343" type="curve" smooth="yes"/>
      <point x="761" y="305"/>
      <point x="736" y="276"/>
      <point x="690" y="261" type="curve"/>
      <point x="681" y="288"/>
      <point x="659" y="321"/>
      <point x="638" y="321" type="curve" smooth="yes"/>
      <point x="577" y="321"/>
      <point x="510" y="244"/>
      <point x="510" y="181" type="curve"/>
      <point x="514" y="154"/>
      <point x="538" y="138"/>
      <point x="569" y="138" type="curve" smooth="yes"/>
      <point x="605" y="137" type="line"/>
      <point x="700" y="-33" type="line"/>
      <point x="830" y="0" type="line"/>
      <point x="734" y="150" type="line"/>
      <point x="843" y="183"/>
      <point x="890" y="255"/>
      <point x="890" y="338" type="curve" smooth="yes"/>
      <point x="890" y="451"/>
      <point x="801" y="534"/>
      <point x="638" y="535" type="curve"/>
      <point x="633" y="549"/>
      <point x="625" y="561"/>
      <point x="618" y="569" type="curve"/>
      <point x="936" y="569" type="line"/>
      <point x="918" y="680" type="line"/>
      <point x="-11" y="680" type="line"/>
      <point x="6" y="569" type="line"/>
      <point x="492" y="569" type="line"/>
      <point x="513" y="549"/>
      <point x="536" y="494"/>
      <point x="536" y="475" type="curve" smooth="yes"/>
      <point x="536" y="451"/>
      <point x="526" y="435"/>
      <point x="493" y="435" type="curve" smooth="yes"/>
      <point x="472" y="435"/>
      <point x="444" y="437"/>
      <point x="426" y="445" type="curve"/>
      <point x="387" y="477"/>
      <point x="335" y="497"/>
      <point x="273" y="498" type="curve"/>
      <point x="133" y="498"/>
      <point x="40" y="403"/>
      <point x="40" y="278" type="curve" smooth="yes"/>
    </contour>
    <contour>
      <point x="218" y="177"/>
      <point x="173" y="218"/>
      <point x="173" y="279" type="curve" smooth="yes"/>
      <point x="173" y="304"/>
      <point x="181" y="327"/>
      <point x="194" y="344" type="curve"/>
      <point x="325" y="192" type="line"/>
      <point x="310" y="182"/>
      <point x="291" y="176"/>
      <point x="271" y="176" type="curve" smooth="yes"/>
    </contour>
    <contour>
      <point x="324" y="381"/>
      <point x="369" y="339"/>
      <point x="369" y="279" type="curve" smooth="yes"/>
      <point x="369" y="266"/>
      <point x="367" y="255"/>
      <point x="363" y="244" type="curve"/>
      <point x="247" y="378" type="line"/>
      <point x="254" y="380"/>
      <point x="263" y="381"/>
      <point x="271" y="381" type="curve" smooth="yes"/>
    </contour>
  </outline>
</glyph>
<glyph name="dv_BTa" format="1">
  <advance width="1007"/>
  <outline>
    <contour>
      <point x="40" y="154"/>
      <point x="133" y="59"/>
      <point x="273" y="59" type="curve"/>
      <point x="338" y="60"/>
      <point x="393" y="82"/>
      <point x="432" y="117" type="curve"/>
      <point x="461" y="69"/>
      <point x="494" y="21"/>
      <point x="524" y="-22" type="curve"/>
      <point x="650" y="15" type="line"/>
      <point x="562" y="152"/>
      <point x="506" y="239"/>
      <point x="506" y="295" type="curve" smooth="yes"/>
      <point x="506" y="338"/>
      <point x="536" y="360"/>
      <point x="598" y="360" type="curve" smooth="yes"/>
      <point x="766" y="360" type="line"/>
      <point x="766" y="0" type="line"/>
      <point x="908" y="-16" type="line"/>
      <point x="908" y="569" type="line"/>
      <point x="1018" y="569" type="line"/>
      <point x="1002" y="680" type="line"/>
      <point x="-11" y="680" type="line"/>
      <point x="6" y="569" type="line"/>
      <point x="766" y="569" type="line"/>
      <point x="766" y="473" type="line"/>
      <point x="555" y="473" type="line" smooth="yes"/>
      <point x="505" y="473"/>
      <point x="464" y="460"/>
      <point x="434" y="438" type="curve"/>
      <point x="394" y="475"/>
      <point x="339" y="497"/>
      <point x="273" y="498" type="curve"/>
      <point x="133" y="498"/>
      <point x="40" y="403"/>
      <point x="40" y="278" type="curve" smooth="yes"/>
    </contour>
    <contour>
      <point x="218" y="177"/>
      <point x="173" y="218"/>
      <point x="173" y="279" type="curve" smooth="yes"/>
      <point x="173" y="304"/>
      <point x="181" y="327"/>
      <point x="194" y="344" type="curve"/>
      <point x="325" y="192" type="line"/>
      <point x="310" y="182"/>
      <point x="291" y="176"/>
      <point x="271" y="176" type="curve" smooth="yes"/>
    </contour>
    <contour>
      <point x="317" y="381"/>
      <point x="357" y="348"/>
      <point x="367" y="300" type="curve"/>
      <point x="367" y="299" type="line"/>
      <point x="367" y="291"/>
      <point x="368" y="282"/>
      <point x="369" y="273" type="curve"/>
      <point x="368" y="263"/>
      <point x="366" y="253"/>
      <point x="363" y="244" type="curve"/>
      <point x="247" y="378" type="line"/>
      <point x="254" y="380"/>
      <point x="263" y="381"/>
      <point x="271" y="381" type="curve" smooth="yes"/>
    </contour>
  </outline>
</glyph>
<glyph name="dv_BhLa" format="1">
  <advance width="1306"/>
  <outline>
    <contour>
      <point x="1065" y="0" type="line"/>
      <point x="1207" y="-16" type="line"/>
      <point x="1207" y="569" type="line"/>
      <point x="1318" y="569" type="line"/>
      <point x="1301" y="680" type="line"/>
      <point x="437" y="680" type="line"/>
      <point x="454" y="569" type="line"/>
      <point x="1065" y="569" type="line"/>
      <point x="1065" y="486" type="line"/>
      <point x="1046" y="497"/>
      <point x="1016" y="503"/>
      <point x="993" y="503" type="curve" smooth="yes"/>
      <point x="940" y="503"/>
      <point x="887" y="485"/>
      <point x="852" y="450" type="curve"/>
      <point x="816" y="484"/>
      <point x="763" y="502"/>
      <point x="706" y="503" type="curve"/>
      <point x="597" y="502"/>
      <point x="503" y="418"/>
      <point x="501" y="323" type="curve"/>
      <point x="346" y="323" type="line"/>
      <point x="346" y="521" type="line" smooth="yes"/>
      <point x="346" y="629"/>
      <point x="286" y="699"/>
      <point x="185" y="699" type="curve" smooth="yes"/>
      <point x="112" y="699"/>
      <point x="45" y="649"/>
      <point x="45" y="572" type="curve" smooth="yes"/>
      <point x="45" y="493"/>
      <point x="101" y="440"/>
      <point x="183" y="440" type="curve" smooth="yes"/>
      <point x="190" y="440"/>
      <point x="200" y="439"/>
      <point x="210" y="441" type="curve"/>
      <point x="210" y="323" type="line"/>
      <point x="167" y="323"/>
      <point x="139" y="304"/>
      <point x="139" y="265" type="curve" smooth="yes"/>
      <point x="139" y="188"/>
      <point x="219" y="139"/>
      <point x="288" y="139" type="curve" smooth="yes"/>
      <point x="318" y="139"/>
      <point x="332" y="182"/>
      <point x="332" y="213" type="curve"/>
      <point x="517" y="213" type="line"/>
      <point x="536" y="148"/>
      <point x="572" y="77"/>
      <point x="626" y="-24" type="curve"/>
      <point x="736" y="14" type="line"/>
      <point x="654" y="183"/>
      <point x="626" y="249"/>
      <point x="626" y="311" type="curve" smooth="yes"/>
      <point x="626" y="350"/>
      <point x="659" y="384"/>
      <point x="706" y="384" type="curve" smooth="yes"/>
      <point x="768" y="384"/>
      <point x="792" y="343"/>
      <point x="792" y="280" type="curve" smooth="yes"/>
      <point x="792" y="145" type="line"/>
      <point x="917" y="132" type="line"/>
      <point x="917" y="280" type="line" smooth="yes"/>
      <point x="917" y="343"/>
      <point x="946" y="387"/>
      <point x="991" y="387" type="curve" smooth="yes"/>
      <point x="1030" y="387"/>
      <point x="1057" y="357"/>
      <point x="1065" y="311" type="curve"/>
    </contour>
    <contour>
      <point x="179" y="545"/>
      <point x="169" y="552"/>
      <point x="169" y="566" type="curve" smooth="yes"/>
      <point x="169" y="577"/>
      <point x="176" y="588"/>
      <point x="189" y="588" type="curve" smooth="yes"/>
      <point x="202" y="588"/>
      <point x="211" y="573"/>
      <point x="211" y="556" type="curve"/>
      <point x="207" y="551"/>
      <point x="199" y="545"/>
      <point x="190" y="545" type="curve" smooth="yes"/>
    </contour>
  </outline>
</glyph>
<glyph name="dv_BhNa" format="1">
  <advance width="790"/>
  <outline>
    <contour>
      <point x="174" y="-70"/>
      <point x="254" y="-101"/>
      <point x="304" y="-101" type="curve" smooth="yes"/>
      <point x="332" y="-101"/>
      <point x="383" y="-95"/>
      <point x="383" y="-58" type="curve" smooth="yes"/>
      <point x="383" y="-34"/>
      <point x="370" y="-8"/>
      <point x="361" y="14" type="curve"/>
      <point x="549" y="168" type="line"/>
      <point x="549" y="0" type="line"/>
      <point x="691" y="-16" type="line"/>
      <point x="691" y="569" type="line"/>
      <point x="801" y="569" type="line"/>
      <point x="785" y="680" type="line"/>
      <point x="440" y="680" type="line"/>
      <point x="458" y="569" type="line"/>
      <point x="549" y="569" type="line"/>
      <point x="549" y="323" type="line"/>
      <point x="346" y="323" type="line"/>
      <point x="346" y="455"/>
      <point x="389" y="699"/>
      <point x="185" y="699" type="curve" smooth="yes"/>
      <point x="112" y="699"/>
      <point x="45" y="649"/>
      <point x="45" y="572" type="curve" smooth="yes"/>
      <point x="45" y="477"/>
      <point x="122" y="432"/>
      <point x="210" y="441" type="curve"/>
      <point x="210" y="323" type="line"/>
      <point x="172" y="323"/>
      <point x="139" y="307"/>
      <point x="139" y="265" type="curve" smooth="yes"/>
      <point x="139" y="189"/>
      <point x="218" y="139"/>
      <point x="288" y="139" type="curve" smooth="yes"/>
      <point x="321" y="139"/>
      <point x="332" y="188"/>
      <point x="332" y="213" type="curve"/>
      <point x="433" y="213" type="line"/>
      <point x="226" y="58" type="line" smooth="yes"/>
      <point x="204" y="41"/>
      <point x="174" y="22"/>
      <point x="174" y="-9" type="curve" smooth="yes"/>
    </contour>
    <contour>
      <point x="169" y="536"/>
      <point x="154" y="548"/>
      <point x="154" y="566" type="curve" smooth="yes"/>
      <point x="154" y="583"/>
      <point x="168" y="597"/>
      <point x="185" y="597" type="curve" smooth="yes"/>
      <point x="207" y="597"/>
      <point x="217" y="570"/>
      <point x="217" y="552" type="curve"/>
      <point x="211" y="542"/>
      <point x="197" y="536"/>
      <point x="186" y="536" type="curve" smooth="yes"/>
    </contour>
  </outline>
</glyph>
<glyph name="dv_BhTha" format="1">
  <advance width="1165"/>
  <outline>
    <contour>
      <point x="925" y="0" type="line"/>
      <point x="1066" y="-16" type="line"/>
      <point x="1066" y="569" type="line"/>
      <point x="1177" y="569" type="line"/>
      <point x="1161" y="680" type="line"/>
      <point x="815" y="680" type="line"/>
      <point x="832" y="569" type="line"/>
      <point x="925" y="569" type="line"/>
      <point x="925" y="358" type="line"/>
      <point x="915" y="303"/>
      <point x="861" y="269"/>
      <point x="801" y="269" type="curve" smooth="yes"/>
      <point x="739" y="269"/>
      <point x="707" y="300"/>
      <point x="688" y="326" type="curve"/>
      <point x="745" y="360"/>
      <point x="802" y="408"/>
      <point x="802" y="520" type="curve" smooth="yes"/>
      <point x="802" y="622"/>
      <point x="731" y="699"/>
      <point x="636" y="699" type="curve" smooth="yes"/>
      <point x="554" y="699"/>
      <point x="496" y="647"/>
      <point x="496" y="573" type="curve" smooth="yes"/>
      <point x="496" y="507"/>
      <point x="549" y="468"/>
      <point x="609" y="468" type="curve" smooth="yes"/>
      <point x="648" y="468"/>
      <point x="682" y="486"/>
      <point x="686" y="507" type="curve"/>
      <point x="686" y="429"/>
      <point x="609" y="407"/>
      <point x="577" y="395" type="curve"/>
      <point x="549" y="360" type="line"/>
      <point x="549" y="347"/>
      <point x="550" y="335"/>
      <point x="553" y="323" type="curve"/>
      <point x="346" y="323" type="line"/>
      <point x="346" y="521" type="line" smooth="yes"/>
      <point x="346" y="629"/>
      <point x="286" y="699"/>
      <point x="185" y="699" type="curve" smooth="yes"/>
      <point x="112" y="699"/>
      <point x="45" y="649"/>
      <point x="45" y="572" type="curve" smooth="yes"/>
      <point x="45" y="493"/>
      <point x="101" y="440"/>
      <point x="183" y="440" type="curve" smooth="yes"/>
      <point x="190" y="440"/>
      <point x="200" y="439"/>
      <point x="210" y="441" type="curve"/>
      <point x="210" y="323" type="line"/>
      <point x="167" y="323"/>
      <point x="139" y="304"/>
      <point x="139" y="265" type="curve" smooth="yes"/>
      <point x="139" y="188"/>
      <point x="219" y="139"/>
      <point x="288" y="139" type="curve" smooth="yes"/>
      <point x="318" y="139"/>
      <point x="332" y="182"/>
      <point x="332" y="213" type="curve"/>
      <point x="627" y="213" type="line"/>
      <point x="673" y="175"/>
      <point x="735" y="151"/>
      <point x="798" y="151" type="curve" smooth="yes"/>
      <point x="862" y="151"/>
      <point x="894" y="164"/>
      <point x="925" y="179" type="curve"/>
    </contour>
    <contour>
      <point x="170" y="536"/>
      <point x="154" y="546"/>
      <point x="154" y="566" type="curve" smooth="yes"/>
      <point x="154" y="582"/>
      <point x="166" y="597"/>
      <point x="185" y="597" type="curve" smooth="yes"/>
      <point x="203" y="597"/>
      <point x="217" y="576"/>
      <point x="217" y="552" type="curve"/>
      <point x="213" y="545"/>
      <point x="199" y="536"/>
      <point x="186" y="536" type="curve" smooth="yes"/>
    </contour>
    <contour>
      <point x="603" y="555"/>
      <point x="592" y="566"/>
      <point x="592" y="579" type="curve" smooth="yes"/>
      <point x="592" y="596"/>
      <point x="605" y="608"/>
      <point x="622" y="608" type="curve" smooth="yes"/>
      <point x="633" y="608"/>
      <point x="644" y="595"/>
      <point x="645" y="588" type="curve"/>
      <point x="645" y="568"/>
      <point x="633" y="555"/>
      <point x="614" y="555" type="curve" smooth="yes"/>
    </contour>
  </outline>
</glyph>
<glyph name="dv_BoldJha" format="1">
  <advance width="1408"/>
  <outline>
    <contour>
      <point x="40" y="154"/>
      <point x="133" y="59"/>
      <point x="273" y="59" type="curve"/>
      <point x="385" y="61"/>
      <point x="466" y="124"/>
      <point x="492" y="213" type="curve"/>
      <point x="518" y="166"/>
      <point x="576" y="139"/>
      <point x="628" y="139" type="curve" smooth="yes"/>
      <point x="657" y="139"/>
      <point x="671" y="182"/>
      <point x="671" y="213" type="curve"/>
      <point x="890" y="213" type="line"/>
      <point x="890" y="0" type="line"/>
      <point x="1030" y="-16" type="line"/>
      <point x="1030" y="324" type="line"/>
      <point x="1049" y="352"/>
      <point x="1079" y="381"/>
      <point x="1142" y="381" type="curve" smooth="yes"/>
      <point x="1194" y="381"/>
      <point x="1240" y="339"/>
      <point x="1240" y="279" type="curve" smooth="yes"/>
      <point x="1240" y="218"/>
      <point x="1182" y="176"/>
      <point x="1103" y="176" type="curve"/>
      <point x="1127" y="59" type="line"/>
      <point x="1254" y="59"/>
      <point x="1374" y="141"/>
      <point x="1374" y="278" type="curve" smooth="yes"/>
      <point x="1374" y="403"/>
      <point x="1280" y="498"/>
      <point x="1140" y="498" type="curve" smooth="yes"/>
      <point x="1106" y="498"/>
      <point x="1057" y="485"/>
      <point x="1030" y="466" type="curve"/>
      <point x="1030" y="569" type="line"/>
      <point x="1420" y="569" type="line"/>
      <point x="1403" y="680" type="line"/>
      <point x="781" y="680" type="line"/>
      <point x="798" y="569" type="line"/>
      <point x="890" y="569" type="line"/>
      <point x="890" y="323" type="line"/>
      <point x="685" y="323" type="line"/>
      <point x="685" y="521" type="line" smooth="yes"/>
      <point x="685" y="629"/>
      <point x="625" y="699"/>
      <point x="526" y="699" type="curve" smooth="yes"/>
      <point x="499" y="699"/>
      <point x="473" y="692"/>
      <point x="451" y="680" type="curve"/>
      <point x="-11" y="680" type="line"/>
      <point x="6" y="569" type="line"/>
      <point x="386" y="569" type="line"/>
      <point x="387" y="491"/>
      <point x="441" y="440"/>
      <point x="523" y="440" type="curve" smooth="yes"/>
      <point x="530" y="440"/>
      <point x="540" y="439"/>
      <point x="549" y="441" type="curve"/>
      <point x="549" y="323" type="line"/>
      <point x="529" y="323"/>
      <point x="512" y="318"/>
      <point x="500" y="310" type="curve"/>
      <point x="486" y="417"/>
      <point x="399" y="496"/>
      <point x="273" y="498" type="curve"/>
      <point x="133" y="498"/>
      <point x="40" y="403"/>
      <point x="40" y="278" type="curve" smooth="yes"/>
    </contour>
    <contour>
      <point x="218" y="177"/>
      <point x="173" y="218"/>
      <point x="173" y="279" type="curve" smooth="yes"/>
      <point x="173" y="304"/>
      <point x="181" y="327"/>
      <point x="194" y="344" type="curve"/>
      <point x="325" y="192" type="line"/>
      <point x="310" y="182"/>
      <point x="291" y="176"/>
      <point x="271" y="176" type="curve" smooth="yes"/>
    </contour>
    <contour>
      <point x="324" y="381"/>
      <point x="369" y="339"/>
      <point x="369" y="279" type="curve" smooth="yes"/>
      <point x="369" y="266"/>
      <point x="367" y="255"/>
      <point x="363" y="244" type="curve"/>
      <point x="247" y="378" type="line"/>
      <point x="254" y="380"/>
      <point x="263" y="381"/>
      <point x="271" y="381" type="curve" smooth="yes"/>
    </contour>
    <contour>
      <point x="519" y="545"/>
      <point x="509" y="552"/>
      <point x="509" y="566" type="curve" smooth="yes"/>
      <point x="509" y="577"/>
      <point x="515" y="588"/>
      <point x="529" y="588" type="curve" smooth="yes"/>
      <point x="541" y="588"/>
      <point x="551" y="573"/>
      <point x="551" y="556" type="curve"/>
      <point x="547" y="551"/>
      <point x="538" y="545"/>
      <point x="531" y="545" type="curve" smooth="yes"/>
    </contour>
  </outline>
</glyph>
<glyph name="dv_CCYa" format="1">
  <advance width="1427"/>
  <outline>
    <contour>
      <point x="783" y="358" type="line"/>
      <point x="766" y="468" type="line"/>
      <point x="34" y="468" type="line"/>
      <point x="50" y="358" type="line"/>
      <point x="143" y="358" type="line"/>
      <point x="130" y="332"/>
      <point x="122" y="304"/>
      <point x="122" y="271" type="curve" smooth="yes"/>
      <point x="122" y="137"/>
      <point x="239" y="67"/>
      <point x="370" y="67" type="curve" smooth="yes"/>
      <point x="465" y="67"/>
      <point x="526" y="100"/>
      <point x="564" y="134" type="curve"/>
      <point x="610" y="90"/>
      <point x="679" y="67"/>
      <point x="753" y="67" type="curve" smooth="yes"/>
      <point x="878" y="67"/>
      <point x="944" y="123"/>
      <point x="977" y="165" type="curve"/>
      <point x="1004" y="156"/>
      <point x="1032" y="151"/>
      <point x="1060" y="151" type="curve" smooth="yes"/>
      <point x="1123" y="151"/>
      <point x="1157" y="164"/>
      <point x="1186" y="178" type="curve"/>
      <point x="1186" y="0" type="line"/>
      <point x="1328" y="-16" type="line"/>
      <point x="1328" y="569" type="line"/>
      <point x="1439" y="569" type="line"/>
      <point x="1423" y="680" type="line"/>
      <point x="-11" y="680" type="line"/>
      <point x="6" y="569" type="line"/>
      <point x="848" y="569" type="line"/>
      <point x="876" y="558"/>
      <point x="897" y="527"/>
      <point x="897" y="493" type="curve" smooth="yes"/>
      <point x="897" y="440"/>
      <point x="867" y="398"/>
      <point x="838" y="388" type="curve"/>
      <point x="812" y="360" type="line"/>
      <point x="812" y="311"/>
      <point x="835" y="266"/>
      <point x="871" y="229" type="curve"/>
      <point x="848" y="203"/>
      <point x="812" y="183"/>
      <point x="753" y="183" type="curve" smooth="yes"/>
      <point x="692" y="183"/>
      <point x="634" y="217"/>
      <point x="634" y="271" type="curve" smooth="yes"/>
      <point x="634" y="324"/>
      <point x="671" y="356"/>
      <point x="750" y="358" type="curve"/>
    </contour>
    <contour>
      <point x="996" y="269"/>
      <point x="964" y="307"/>
      <point x="946" y="334" type="curve"/>
      <point x="998" y="372"/>
      <point x="1022" y="426"/>
      <point x="1022" y="486" type="curve" smooth="yes"/>
      <point x="1022" y="515"/>
      <point x="1013" y="548"/>
      <point x="1004" y="569" type="curve"/>
      <point x="1186" y="569" type="line"/>
      <point x="1186" y="358" type="line"/>
      <point x="1177" y="303"/>
      <point x="1123" y="269"/>
      <point x="1064" y="269" type="curve" smooth="yes"/>
    </contour>
    <contour>
      <point x="528" y="358" type="line"/>
      <point x="514" y="332"/>
      <point x="507" y="304"/>
      <point x="507" y="271" type="curve" smooth="yes"/>
      <point x="507" y="260" type="line"/>
      <point x="489" y="222"/>
      <point x="450" y="183"/>
      <point x="369" y="183" type="curve" smooth="yes"/>
      <point x="308" y="183"/>
      <point x="250" y="217"/>
      <point x="250" y="271" type="curve" smooth="yes"/>
      <point x="250" y="324"/>
      <point x="288" y="356"/>
      <point x="367" y="358" type="curve"/>
    </contour>
  </outline>
</glyph>
<glyph name="dv_CJNya" format="1">
  <advance width="1210"/>
  <outline>
    <contour>
      <point x="399" y="358" type="line"/>
      <point x="383" y="468" type="line"/>
      <point x="34" y="468" type="line"/>
      <point x="50" y="358" type="line"/>
      <point x="143" y="358" type="line"/>
      <point x="130" y="332"/>
      <point x="122" y="304"/>
      <point x="122" y="271" type="curve" smooth="yes"/>
      <point x="122" y="137"/>
      <point x="233" y="67"/>
      <point x="363" y="67" type="curve" smooth="yes"/>
      <point x="392" y="67"/>
      <point x="431" y="73"/>
      <point x="461" y="81" type="curve"/>
      <point x="468" y="77"/>
      <point x="475" y="74"/>
      <point x="482" y="71" type="curve"/>
      <point x="605" y="-98" type="line"/>
      <point x="700" y="-31" type="line"/>
      <point x="687" y="-17"/>
      <point x="667" y="8"/>
      <point x="633" y="52" type="curve"/>
      <point x="638" y="52" type="line" smooth="yes"/>
      <point x="749" y="52"/>
      <point x="874" y="116"/>
      <point x="874" y="275" type="curve" smooth="yes"/>
      <point x="874" y="306"/>
      <point x="867" y="334"/>
      <point x="857" y="358" type="curve"/>
      <point x="970" y="358" type="line"/>
      <point x="970" y="0" type="line"/>
      <point x="1112" y="-16" type="line"/>
      <point x="1112" y="569" type="line"/>
      <point x="1222" y="569" type="line"/>
      <point x="1206" y="680" type="line"/>
      <point x="-11" y="680" type="line"/>
      <point x="6" y="569" type="line"/>
      <point x="970" y="569" type="line"/>
      <point x="970" y="468" type="line"/>
      <point x="566" y="468" type="line"/>
      <point x="582" y="358" type="line"/>
      <point x="644" y="358" type="line" smooth="yes"/>
      <point x="715" y="358"/>
      <point x="740" y="318"/>
      <point x="740" y="269" type="curve" smooth="yes"/>
      <point x="740" y="211"/>
      <point x="697" y="169"/>
      <point x="624" y="169" type="curve" smooth="yes"/>
      <point x="608" y="169"/>
      <point x="592" y="170"/>
      <point x="572" y="173" type="curve"/>
      <point x="555" y="216"/>
      <point x="509" y="252"/>
      <point x="458" y="252" type="curve" smooth="yes"/>
      <point x="419" y="252"/>
      <point x="390" y="225"/>
      <point x="390" y="188" type="curve" smooth="yes"/>
      <point x="390" y="185" type="line"/>
      <point x="381" y="183"/>
      <point x="372" y="183"/>
      <point x="363" y="183" type="curve" smooth="yes"/>
      <point x="302" y="183"/>
      <point x="250" y="217"/>
      <point x="250" y="271" type="curve" smooth="yes"/>
      <point x="250" y="324"/>
      <point x="288" y="356"/>
      <point x="367" y="358" type="curve"/>
    </contour>
  </outline>
</glyph>
<glyph name="dv_CJha" format="1">
  <advance width="1277"/>
  <outline>
    <contour>
      <point x="399" y="387" type="line"/>
      <point x="383" y="497" type="line"/>
      <point x="34" y="497" type="line"/>
      <point x="50" y="387" type="line"/>
      <point x="143" y="387" type="line"/>
      <point x="130" y="360"/>
      <point x="122" y="344"/>
      <point x="122" y="310" type="curve" smooth="yes"/>
      <point x="122" y="197"/>
      <point x="205" y="119"/>
      <point x="335" y="119" type="curve" smooth="yes"/>
      <point x="444" y="119"/>
      <point x="525" y="174"/>
      <point x="567" y="217" type="curve"/>
      <point x="580" y="214"/>
      <point x="594" y="213"/>
      <point x="608" y="213" type="curve" smooth="yes"/>
      <point x="701" y="213" type="line" smooth="yes"/>
      <point x="744" y="213"/>
      <point x="760" y="190"/>
      <point x="760" y="162" type="curve" smooth="yes"/>
      <point x="760" y="129"/>
      <point x="723" y="101"/>
      <point x="666" y="100" type="curve" smooth="yes"/>
      <point x="650" y="100"/>
      <point x="634" y="101"/>
      <point x="618" y="103" type="curve"/>
      <point x="596" y="129"/>
      <point x="561" y="154"/>
      <point x="520" y="154" type="curve" smooth="yes"/>
      <point x="482" y="154"/>
      <point x="453" y="128"/>
      <point x="453" y="90" type="curve" smooth="yes"/>
      <point x="453" y="52"/>
      <point x="486" y="20"/>
      <point x="527" y="0" type="curve"/>
      <point x="651" y="-168" type="line"/>
      <point x="745" y="-102" type="line"/>
      <point x="733" y="-87"/>
      <point x="713" y="-61"/>
      <point x="677" y="-17" type="curve" smooth="yes"/>
      <point x="675" y="-15" type="line"/>
      <point x="817" y="-11"/>
      <point x="903" y="71"/>
      <point x="903" y="162" type="curve" smooth="yes"/>
      <point x="903" y="164"/>
      <point x="902" y="167"/>
      <point x="902" y="170" type="curve"/>
      <point x="1037" y="170" type="line"/>
      <point x="1037" y="0" type="line"/>
      <point x="1178" y="-16" type="line"/>
      <point x="1178" y="569" type="line"/>
      <point x="1289" y="569" type="line"/>
      <point x="1273" y="680" type="line"/>
      <point x="-11" y="680" type="line"/>
      <point x="6" y="569" type="line"/>
      <point x="706" y="569" type="line"/>
      <point x="706" y="524" type="line"/>
      <point x="606" y="524" type="line" smooth="yes"/>
      <point x="510" y="524"/>
      <point x="435" y="470"/>
      <point x="435" y="369" type="curve" smooth="yes"/>
      <point x="435" y="335"/>
      <point x="445" y="306"/>
      <point x="462" y="282" type="curve"/>
      <point x="435" y="255"/>
      <point x="394" y="234"/>
      <point x="335" y="234" type="curve" smooth="yes"/>
      <point x="286" y="234"/>
      <point x="250" y="265"/>
      <point x="250" y="310" type="curve" smooth="yes"/>
      <point x="250" y="358"/>
      <point x="288" y="386"/>
      <point x="367" y="387" type="curve" smooth="yes"/>
    </contour>
    <contour>
      <point x="1037" y="569" type="line"/>
      <point x="1037" y="273" type="line"/>
      <point x="864" y="272" type="line"/>
      <point x="827" y="312"/>
      <point x="766" y="330"/>
      <point x="693" y="330" type="curve" smooth="yes"/>
      <point x="614" y="330" type="line" smooth="yes"/>
      <point x="586" y="330"/>
      <point x="566" y="349"/>
      <point x="566" y="369" type="curve" smooth="yes"/>
      <point x="566" y="389"/>
      <point x="584" y="406"/>
      <point x="612" y="406" type="curve" smooth="yes"/>
      <point x="844" y="406" type="line"/>
      <point x="844" y="569" type="line"/>
    </contour>
  </outline>
</glyph>
<glyph name="dv_CMa" format="1">
  <advance width="1077"/>
  <outline>
    <contour>
      <point x="399" y="358" type="line"/>
      <point x="383" y="468" type="line"/>
      <point x="34" y="468" type="line"/>
      <point x="50" y="358" type="line"/>
      <point x="143" y="358" type="line"/>
      <point x="130" y="332"/>
      <point x="122" y="304"/>
      <point x="122" y="271" type="curve" smooth="yes"/>
      <point x="122" y="137"/>
      <point x="239" y="67"/>
      <point x="370" y="67" type="curve" smooth="yes"/>
      <point x="469" y="67"/>
      <point x="526" y="103"/>
      <point x="561" y="139" type="curve"/>
      <point x="573" y="139" type="line" smooth="yes"/>
      <point x="603" y="139"/>
      <point x="617" y="182"/>
      <point x="617" y="213" type="curve"/>
      <point x="835" y="213" type="line"/>
      <point x="835" y="0" type="line"/>
      <point x="976" y="-16" type="line"/>
      <point x="976" y="569" type="line"/>
      <point x="1087" y="569" type="line"/>
      <point x="1071" y="680" type="line"/>
      <point x="-11" y="680" type="line"/>
      <point x="6" y="569" type="line"/>
      <point x="496" y="569" type="line"/>
      <point x="496" y="323" type="line"/>
      <point x="453" y="323"/>
      <point x="424" y="304"/>
      <point x="424" y="265" type="curve" smooth="yes"/>
      <point x="424" y="240"/>
      <point x="432" y="219"/>
      <point x="445" y="201" type="curve"/>
      <point x="426" y="190"/>
      <point x="401" y="183"/>
      <point x="369" y="183" type="curve" smooth="yes"/>
      <point x="308" y="183"/>
      <point x="250" y="217"/>
      <point x="250" y="271" type="curve" smooth="yes"/>
      <point x="250" y="324"/>
      <point x="288" y="356"/>
      <point x="367" y="358" type="curve"/>
    </contour>
    <contour>
      <point x="835" y="569" type="line"/>
      <point x="835" y="323" type="line"/>
      <point x="632" y="323" type="line"/>
      <point x="632" y="569" type="line"/>
    </contour>
  </outline>
</glyph>
<glyph name="dv_CSha" format="1">
  <advance width="1195"/>
  <outline>
    <contour>
      <point x="399" y="370" type="line"/>
      <point x="383" y="480" type="line"/>
      <point x="34" y="480" type="line"/>
      <point x="50" y="370" type="line"/>
      <point x="143" y="370" type="line"/>
      <point x="130" y="344"/>
      <point x="122" y="316"/>
      <point x="122" y="282" type="curve" smooth="yes"/>
      <point x="122" y="149"/>
      <point x="239" y="78"/>
      <point x="370" y="78" type="curve" smooth="yes"/>
      <point x="460" y="78"/>
      <point x="533" y="107"/>
      <point x="580" y="140" type="curve"/>
      <point x="680" y="-21" type="line"/>
      <point x="812" y="12" type="line"/>
      <point x="653" y="244" type="line"/>
      <point x="746" y="272"/>
      <point x="810" y="365"/>
      <point x="810" y="456" type="curve" smooth="yes"/>
      <point x="810" y="584"/>
      <point x="728" y="699"/>
      <point x="582" y="699" type="curve" smooth="yes"/>
      <point x="551" y="699"/>
      <point x="523" y="692"/>
      <point x="500" y="680" type="curve"/>
      <point x="-11" y="680" type="line"/>
      <point x="6" y="569" type="line"/>
      <point x="430" y="569" type="line"/>
      <point x="430" y="498"/>
      <point x="488" y="457"/>
      <point x="559" y="457" type="curve" smooth="yes"/>
      <point x="601" y="457"/>
      <point x="652" y="473"/>
      <point x="669" y="509" type="curve"/>
      <point x="676" y="497"/>
      <point x="680" y="470"/>
      <point x="680" y="451" type="curve" smooth="yes"/>
      <point x="680" y="414"/>
      <point x="658" y="367"/>
      <point x="611" y="348" type="curve"/>
      <point x="603" y="373"/>
      <point x="581" y="411"/>
      <point x="561" y="411" type="curve" smooth="yes"/>
      <point x="500" y="411"/>
      <point x="433" y="332"/>
      <point x="433" y="270" type="curve"/>
      <point x="437" y="244"/>
      <point x="459" y="228"/>
      <point x="488" y="227" type="curve"/>
      <point x="460" y="208"/>
      <point x="421" y="195"/>
      <point x="369" y="195" type="curve" smooth="yes"/>
      <point x="308" y="195"/>
      <point x="250" y="228"/>
      <point x="250" y="282" type="curve" smooth="yes"/>
      <point x="250" y="335"/>
      <point x="288" y="368"/>
      <point x="367" y="370" type="curve"/>
    </contour>
    <contour>
      <point x="955" y="0" type="line"/>
      <point x="1095" y="-16" type="line"/>
      <point x="1095" y="569" type="line"/>
      <point x="1207" y="569" type="line"/>
      <point x="1191" y="680" type="line"/>
      <point x="846" y="680" type="line"/>
      <point x="862" y="569" type="line"/>
      <point x="955" y="569" type="line"/>
    </contour>
    <contour>
      <point x="555" y="547"/>
      <point x="539" y="557"/>
      <point x="539" y="573" type="curve" smooth="yes"/>
      <point x="539" y="594"/>
      <point x="555" y="608"/>
      <point x="579" y="608" type="curve" smooth="yes"/>
      <point x="592" y="608"/>
      <point x="613" y="599"/>
      <point x="621" y="585" type="curve"/>
      <point x="621" y="575"/>
      <point x="603" y="547"/>
      <point x="570" y="547" type="curve" smooth="yes"/>
    </contour>
  </outline>
</glyph>
<glyph name="dv_ChVa" format="1">
  <advance width="827"/>
  <outline>
    <contour>
      <point x="839" y="569" type="line"/>
      <point x="822" y="680" type="line"/>
      <point x="-11" y="680" type="line"/>
      <point x="6" y="569" type="line"/>
      <point x="98" y="569" type="line"/>
      <point x="90" y="549"/>
      <point x="87" y="527"/>
      <point x="87" y="504" type="curve" smooth="yes"/>
      <point x="87" y="444"/>
      <point x="120" y="371"/>
      <point x="190" y="347" type="curve"/>
      <point x="119" y="332"/>
      <point x="73" y="264"/>
      <point x="73" y="195" type="curve" smooth="yes"/>
      <point x="73" y="119"/>
      <point x="110" y="60"/>
      <point x="177" y="24" type="curve"/>
      <point x="149" y="-11"/>
      <point x="133" y="-56"/>
      <point x="133" y="-109" type="curve" smooth="yes"/>
      <point x="134" y="-232"/>
      <point x="225" y="-321"/>
      <point x="367" y="-321" type="curve" smooth="yes"/>
      <point x="401" y="-321"/>
      <point x="451" y="-308"/>
      <point x="478" y="-288" type="curve"/>
      <point x="478" y="-342" type="line"/>
      <point x="619" y="-358" type="line"/>
      <point x="619" y="69" type="line"/>
      <point x="725" y="149"/>
      <point x="780" y="272"/>
      <point x="780" y="374" type="curve" smooth="yes"/>
      <point x="780" y="436"/>
      <point x="748" y="497"/>
      <point x="685" y="526" type="curve"/>
      <point x="685" y="569" type="line"/>
    </contour>
    <contour>
      <point x="453" y="290"/>
      <point x="511" y="230"/>
      <point x="586" y="209" type="curve"/>
      <point x="548" y="150"/>
      <point x="472" y="100"/>
      <point x="367" y="100" type="curve" smooth="yes"/>
      <point x="281" y="100"/>
      <point x="216" y="139"/>
      <point x="216" y="200" type="curve" smooth="yes"/>
      <point x="216" y="266"/>
      <point x="265" y="301"/>
      <point x="369" y="301" type="curve" smooth="yes"/>
      <point x="395" y="301" type="line"/>
      <point x="381" y="403" type="line"/>
      <point x="361" y="403" type="line" smooth="yes"/>
      <point x="272" y="403"/>
      <point x="230" y="448"/>
      <point x="230" y="503" type="curve" smooth="yes"/>
      <point x="230" y="530"/>
      <point x="245" y="554"/>
      <point x="271" y="569" type="curve"/>
      <point x="568" y="569" type="line"/>
      <point x="568" y="535" type="line"/>
      <point x="498" y="517"/>
      <point x="453" y="451"/>
      <point x="453" y="374" type="curve" smooth="yes"/>
    </contour>
    <contour>
      <point x="402" y="-15"/>
      <point x="441" y="-10"/>
      <point x="478" y="0" type="curve"/>
      <point x="478" y="-145" type="line"/>
      <point x="459" y="-173"/>
      <point x="435" y="-206"/>
      <point x="364" y="-205" type="curve" smooth="yes"/>
      <point x="311" y="-204"/>
      <point x="266" y="-169"/>
      <point x="266" y="-108" type="curve" smooth="yes"/>
      <point x="266" y="-58"/>
      <point x="296" y="-25"/>
      <point x="337" y="-14" type="curve"/>
      <point x="344" y="-15"/>
      <point x="351" y="-15"/>
      <point x="359" y="-15" type="curve" smooth="yes"/>
    </contour>
    <contour>
      <point x="569" y="406"/>
      <point x="586" y="432"/>
      <point x="613" y="432" type="curve" smooth="yes"/>
      <point x="650" y="432"/>
      <point x="663" y="401"/>
      <point x="663" y="367" type="curve" smooth="yes"/>
      <point x="663" y="344"/>
      <point x="656" y="319"/>
      <point x="645" y="304" type="curve"/>
      <point x="606" y="306"/>
      <point x="569" y="333"/>
      <point x="569" y="374" type="curve" smooth="yes"/>
    </contour>
  </outline>
</glyph>
<glyph name="dv_Ch.half" format="1">
  <advance width="827"/>
  <outline>
    <contour>
      <point x="839" y="569" type="line"/>
      <point x="822" y="680" type="line"/>
      <point x="-11" y="680" type="line"/>
      <point x="6" y="569" type="line"/>
      <point x="98" y="569" type="line"/>
      <point x="90" y="549"/>
      <point x="87" y="527"/>
      <point x="87" y="504" type="curve" smooth="yes"/>
      <point x="87" y="444"/>
      <point x="120" y="371"/>
      <point x="190" y="347" type="curve"/>
      <point x="119" y="332"/>
      <point x="73" y="264"/>
      <point x="73" y="195" type="curve" smooth="yes"/>
      <point x="73" y="66"/>
      <point x="183" y="-15"/>
      <point x="359" y="-15" type="curve" smooth="yes"/>
      <point x="634" y="-15"/>
      <point x="780" y="208"/>
      <point x="780" y="374" type="curve" smooth="yes"/>
      <point x="780" y="436"/>
      <point x="741" y="535"/>
      <point x="608" y="535" type="curve" smooth="yes"/>
      <point x="511" y="535"/>
      <point x="453" y="451"/>
      <point x="453" y="374" type="curve" smooth="yes"/>
      <point x="453" y="290"/>
      <point x="511" y="230"/>
      <point x="586" y="209" type="curve"/>
      <point x="548" y="150"/>
      <point x="472" y="100"/>
      <point x="367" y="100" type="curve" smooth="yes"/>
      <point x="281" y="100"/>
      <point x="216" y="139"/>
      <point x="216" y="200" type="curve" smooth="yes"/>
      <point x="216" y="266"/>
      <point x="265" y="301"/>
      <point x="369" y="301" type="curve" smooth="yes"/>
      <point x="395" y="301" type="line"/>
      <point x="381" y="403" type="line"/>
      <point x="361" y="403" type="line" smooth="yes"/>
      <point x="272" y="403"/>
      <point x="230" y="448"/>
      <point x="230" y="503" type="curve" smooth="yes"/>
      <point x="230" y="530"/>
      <point x="245" y="554"/>
      <point x="271" y="569" type="curve"/>
    </contour>
    <contour>
      <point x="569" y="406"/>
      <point x="586" y="432"/>
      <point x="613" y="432" type="curve" smooth="yes"/>
      <point x="650" y="432"/>
      <point x="663" y="401"/>
      <point x="663" y="367" type="curve" smooth="yes"/>
      <point x="663" y="344"/>
      <point x="656" y="319"/>
      <point x="645" y="304" type="curve"/>
      <point x="606" y="306"/>
      <point x="569" y="333"/>
      <point x="569" y="374" type="curve" smooth="yes"/>
    </contour>
  </outline>
</glyph>
<glyph name="dv_ColdJha" format="1">
  <advance width="1454"/>
  <outline>
    <contour>
      <point x="399" y="358" type="line"/>
      <point x="383" y="468" type="line"/>
      <point x="34" y="468" type="line"/>
      <point x="50" y="358" type="line"/>
      <point x="143" y="358" type="line"/>
      <point x="130" y="332"/>
      <point x="122" y="304"/>
      <point x="122" y="271" type="curve" smooth="yes"/>
      <point x="122" y="137"/>
      <point x="239" y="67"/>
      <point x="370" y="67" type="curve" smooth="yes"/>
      <point x="481" y="67"/>
      <point x="565" y="112"/>
      <point x="608" y="152" type="curve"/>
      <point x="629" y="143"/>
      <point x="651" y="139"/>
      <point x="672" y="139" type="curve" smooth="yes"/>
      <point x="703" y="139"/>
      <point x="716" y="182"/>
      <point x="716" y="213" type="curve"/>
      <point x="934" y="213" type="line"/>
      <point x="934" y="0" type="line"/>
      <point x="1076" y="-16" type="line"/>
      <point x="1076" y="324" type="line"/>
      <point x="1095" y="352"/>
      <point x="1123" y="381"/>
      <point x="1186" y="381" type="curve" smooth="yes"/>
      <point x="1240" y="381"/>
      <point x="1285" y="339"/>
      <point x="1285" y="279" type="curve" smooth="yes"/>
      <point x="1285" y="218"/>
      <point x="1226" y="176"/>
      <point x="1148" y="176" type="curve"/>
      <point x="1172" y="59" type="line"/>
      <point x="1298" y="59"/>
      <point x="1419" y="141"/>
      <point x="1419" y="278" type="curve" smooth="yes"/>
      <point x="1419" y="403"/>
      <point x="1325" y="498"/>
      <point x="1184" y="498" type="curve" smooth="yes"/>
      <point x="1150" y="498"/>
      <point x="1102" y="485"/>
      <point x="1076" y="466" type="curve"/>
      <point x="1076" y="569" type="line"/>
      <point x="1464" y="569" type="line"/>
      <point x="1448" y="680" type="line"/>
      <point x="826" y="680" type="line"/>
      <point x="842" y="569" type="line"/>
      <point x="934" y="569" type="line"/>
      <point x="934" y="323" type="line"/>
      <point x="731" y="323" type="line"/>
      <point x="731" y="521" type="line" smooth="yes"/>
      <point x="731" y="629"/>
      <point x="670" y="699"/>
      <point x="570" y="699" type="curve" smooth="yes"/>
      <point x="543" y="699"/>
      <point x="517" y="692"/>
      <point x="495" y="680" type="curve"/>
      <point x="-11" y="680" type="line"/>
      <point x="6" y="569" type="line"/>
      <point x="430" y="569" type="line"/>
      <point x="431" y="491"/>
      <point x="487" y="440"/>
      <point x="568" y="440" type="curve" smooth="yes"/>
      <point x="575" y="440"/>
      <point x="584" y="439"/>
      <point x="594" y="441" type="curve"/>
      <point x="594" y="323" type="line"/>
      <point x="552" y="323"/>
      <point x="524" y="304"/>
      <point x="524" y="265" type="curve" smooth="yes"/>
      <point x="524" y="260"/>
      <point x="524" y="255"/>
      <point x="525" y="250" type="curve"/>
      <point x="499" y="215"/>
      <point x="450" y="183"/>
      <point x="369" y="183" type="curve" smooth="yes"/>
      <point x="308" y="183"/>
      <point x="250" y="217"/>
      <point x="250" y="271" type="curve" smooth="yes"/>
      <point x="250" y="324"/>
      <point x="288" y="356"/>
      <point x="367" y="358" type="curve"/>
    </contour>
    <contour>
      <point x="555" y="536"/>
      <point x="539" y="546"/>
      <point x="539" y="566" type="curve" smooth="yes"/>
      <point x="539" y="582"/>
      <point x="551" y="597"/>
      <point x="570" y="597" type="curve" smooth="yes"/>
      <point x="588" y="597"/>
      <point x="602" y="576"/>
      <point x="602" y="552" type="curve"/>
      <point x="598" y="545"/>
      <point x="584" y="536"/>
      <point x="571" y="536" type="curve" smooth="yes"/>
    </contour>
  </outline>
</glyph>
<glyph name="dv_DMa" format="1">
  <advance width="860"/>
  <outline>
    <contour>
      <point x="314" y="172" type="line"/>
      <point x="271" y="171"/>
      <point x="242" y="152"/>
      <point x="242" y="114" type="curve" smooth="yes"/>
      <point x="242" y="37"/>
      <point x="323" y="-12"/>
      <point x="391" y="-12" type="curve" smooth="yes"/>
      <point x="421" y="-12"/>
      <point x="435" y="31"/>
      <point x="435" y="60" type="curve"/>
      <point x="619" y="60" type="line"/>
      <point x="619" y="0" type="line"/>
      <point x="760" y="-16" type="line"/>
      <point x="760" y="569" type="line"/>
      <point x="871" y="569" type="line"/>
      <point x="855" y="680" type="line"/>
      <point x="-11" y="680" type="line"/>
      <point x="6" y="569" type="line"/>
      <point x="323" y="569" type="line"/>
      <point x="323" y="524" type="line"/>
      <point x="218" y="524" type="line" smooth="yes"/>
      <point x="120" y="524"/>
      <point x="45" y="470"/>
      <point x="45" y="369" type="curve" smooth="yes"/>
      <point x="45" y="272"/>
      <point x="133" y="213"/>
      <point x="220" y="213" type="curve" smooth="yes"/>
      <point x="314" y="213" type="line"/>
    </contour>
    <contour>
      <point x="177" y="389"/>
      <point x="195" y="406"/>
      <point x="223" y="406" type="curve" smooth="yes"/>
      <point x="449" y="406" type="line"/>
      <point x="449" y="569" type="line"/>
      <point x="619" y="569" type="line"/>
      <point x="619" y="172" type="line"/>
      <point x="450" y="172" type="line"/>
      <point x="450" y="330" type="line"/>
      <point x="224" y="330" type="line" smooth="yes"/>
      <point x="197" y="330"/>
      <point x="177" y="349"/>
      <point x="177" y="369" type="curve" smooth="yes"/>
    </contour>
  </outline>
</glyph>
<glyph name="dv_DMatraU" format="1">
  <advance width="629"/>
  <outline>
    <contour>
      <point x="400" y="-165"/>
      <point x="352" y="-112"/>
      <point x="281" y="-29" type="curve"/>
      <point x="195" y="-88" type="line"/>
      <point x="269" y="-205"/>
      <point x="363" y="-277"/>
      <point x="460" y="-277" type="curve" smooth="yes"/>
      <point x="554" y="-277"/>
      <point x="634" y="-217"/>
      <point x="634" y="-118" type="curve" smooth="yes"/>
      <point x="634" y="-82"/>
      <point x="623" y="-51"/>
      <point x="606" y="-27" type="curve"/>
      <point x="524" y="113" type="line"/>
      <point x="542" y="134"/>
      <point x="554" y="162"/>
      <point x="554" y="185" type="curve" smooth="yes"/>
      <point x="554" y="238"/>
      <point x="493" y="274"/>
      <point x="442" y="274" type="curve" smooth="yes"/>
      <point x="398" y="274"/>
      <point x="369" y="244"/>
      <point x="369" y="199" type="curve" smooth="yes"/>
      <point x="369" y="194"/>
      <point x="370" y="188"/>
      <point x="370" y="183" type="curve"/>
      <point x="356" y="182"/>
      <point x="344" y="181"/>
      <point x="335" y="181" type="curve" smooth="yes"/>
      <point x="242" y="181"/>
      <point x="174" y="221"/>
      <point x="174" y="295" type="curve" smooth="yes"/>
      <point x="174" y="370"/>
      <point x="246" y="407"/>
      <point x="346" y="407" type="curve" smooth="yes"/>
      <point x="491" y="407" type="line"/>
      <point x="491" y="569" type="line"/>
      <point x="640" y="569" type="line"/>
      <point x="624" y="680" type="line"/>
      <point x="-11" y="680" type="line"/>
      <point x="6" y="569" type="line"/>
      <point x="349" y="569" type="line"/>
      <point x="349" y="519" type="line"/>
      <point x="346" y="519" type="line" smooth="yes"/>
      <point x="176" y="519"/>
      <point x="46" y="455"/>
      <point x="46" y="295" type="curve" smooth="yes"/>
      <point x="46" y="139"/>
      <point x="160" y="62"/>
      <point x="335" y="62" type="curve" smooth="yes"/>
      <point x="354" y="62"/>
      <point x="386" y="66"/>
      <point x="418" y="72" type="curve"/>
      <point x="434" y="42" type="line"/>
      <point x="386" y="42" type="line"/>
      <point x="386" y="-70" type="line"/>
      <point x="462" y="-70" type="line" smooth="yes"/>
      <point x="495" y="-70"/>
      <point x="515" y="-89"/>
      <point x="515" y="-118" type="curve" smooth="yes"/>
      <point x="515" y="-146"/>
      <point x="497" y="-165"/>
      <point x="462" y="-165" type="curve" smooth="yes"/>
    </contour>
  </outline>
</glyph>
<glyph name="dv_DMatraUu" format="1">
  <advance width="629"/>
  <outline>
    <contour>
      <point x="521" y="-76"/>
      <point x="568" y="-128"/>
      <point x="640" y="-211" type="curve"/>
      <point x="725" y="-153" type="line"/>
      <point x="686" y="-92"/>
      <point x="643" y="-43"/>
      <point x="596" y="-11" type="curve"/>
      <point x="574" y="28"/>
      <point x="541" y="83"/>
      <point x="524" y="113" type="curve"/>
      <point x="542" y="134"/>
      <point x="554" y="162"/>
      <point x="554" y="185" type="curve" smooth="yes"/>
      <point x="554" y="238"/>
      <point x="493" y="274"/>
      <point x="442" y="274" type="curve" smooth="yes"/>
      <point x="398" y="274"/>
      <point x="369" y="244"/>
      <point x="369" y="199" type="curve" smooth="yes"/>
      <point x="369" y="194"/>
      <point x="370" y="188"/>
      <point x="370" y="183" type="curve"/>
      <point x="356" y="182"/>
      <point x="344" y="181"/>
      <point x="335" y="181" type="curve" smooth="yes"/>
      <point x="242" y="181"/>
      <point x="174" y="221"/>
      <point x="174" y="295" type="curve" smooth="yes"/>
      <point x="174" y="370"/>
      <point x="246" y="407"/>
      <point x="346" y="407" type="curve" smooth="yes"/>
      <point x="491" y="407" type="line"/>
      <point x="491" y="569" type="line"/>
      <point x="640" y="569" type="line"/>
      <point x="624" y="680" type="line"/>
      <point x="-11" y="680" type="line"/>
      <point x="6" y="569" type="line"/>
      <point x="349" y="569" type="line"/>
      <point x="349" y="519" type="line"/>
      <point x="346" y="519" type="line" smooth="yes"/>
      <point x="176" y="519"/>
      <point x="46" y="455"/>
      <point x="46" y="295" type="curve" smooth="yes"/>
      <point x="46" y="139"/>
      <point x="160" y="62"/>
      <point x="335" y="62" type="curve" smooth="yes"/>
      <point x="354" y="62"/>
      <point x="386" y="66"/>
      <point x="418" y="72" type="curve"/>
      <point x="438" y="34" type="line"/>
      <point x="354" y="25"/>
      <point x="288" y="-32"/>
      <point x="288" y="-122" type="curve" smooth="yes"/>
      <point x="288" y="-223"/>
      <point x="370" y="-282"/>
      <point x="451" y="-282" type="curve" smooth="yes"/>
      <point x="535" y="-282" type="line"/>
      <point x="535" y="-171" type="line"/>
      <point x="459" y="-171" type="line" smooth="yes"/>
      <point x="426" y="-171"/>
      <point x="405" y="-151"/>
      <point x="405" y="-122" type="curve" smooth="yes"/>
      <point x="405" y="-95"/>
      <point x="423" y="-76"/>
      <point x="459" y="-76" type="curve" smooth="yes"/>
    </contour>
  </outline>
</glyph>
<glyph name="dv_DRa" format="1">
  <advance width="629"/>
  <outline>
    <contour>
      <point x="592" y="-1" type="line"/>
      <point x="571" y="34"/>
      <point x="545" y="76"/>
      <point x="524" y="113" type="curve"/>
      <point x="542" y="134"/>
      <point x="554" y="162"/>
      <point x="554" y="185" type="curve" smooth="yes"/>
      <point x="554" y="238"/>
      <point x="493" y="274"/>
      <point x="442" y="274" type="curve" smooth="yes"/>
      <point x="398" y="274"/>
      <point x="369" y="244"/>
      <point x="369" y="199" type="curve" smooth="yes"/>
      <point x="369" y="194"/>
      <point x="370" y="188"/>
      <point x="370" y="183" type="curve"/>
      <point x="356" y="182"/>
      <point x="344" y="181"/>
      <point x="335" y="181" type="curve" smooth="yes"/>
      <point x="242" y="181"/>
      <point x="174" y="221"/>
      <point x="174" y="295" type="curve" smooth="yes"/>
      <point x="174" y="370"/>
      <point x="246" y="407"/>
      <point x="346" y="407" type="curve" smooth="yes"/>
      <point x="491" y="407" type="line"/>
      <point x="491" y="569" type="line"/>
      <point x="640" y="569" type="line"/>
      <point x="624" y="680" type="line"/>
      <point x="-11" y="680" type="line"/>
      <point x="6" y="569" type="line"/>
      <point x="349" y="569" type="line"/>
      <point x="349" y="519" type="line"/>
      <point x="346" y="519" type="line" smooth="yes"/>
      <point x="176" y="519"/>
      <point x="46" y="455"/>
      <point x="46" y="295" type="curve" smooth="yes"/>
      <point x="46" y="157"/>
      <point x="134" y="81"/>
      <point x="275" y="65" type="curve"/>
      <point x="196" y="-61" type="line"/>
      <point x="324" y="-92" type="line"/>
      <point x="418" y="72" type="line"/>
      <point x="480" y="-43" type="line"/>
    </contour>
  </outline>
</glyph>
<glyph name="dv_DYa" format="1">
  <advance width="831"/>
  <outline>
    <contour>
      <point x="71" y="43"/>
      <point x="173" y="-18"/>
      <point x="329" y="-18" type="curve" smooth="yes"/>
      <point x="428" y="-18"/>
      <point x="546" y="26"/>
      <point x="590" y="76" type="curve"/>
      <point x="590" y="0" type="line"/>
      <point x="731" y="-16" type="line"/>
      <point x="731" y="569" type="line"/>
      <point x="842" y="569" type="line"/>
      <point x="826" y="680" type="line"/>
      <point x="-11" y="680" type="line"/>
      <point x="6" y="569" type="line"/>
      <point x="321" y="569" type="line"/>
      <point x="321" y="535" type="line"/>
      <point x="239" y="535" type="line" smooth="yes"/>
      <point x="141" y="535"/>
      <point x="77" y="476"/>
      <point x="76" y="391" type="curve" smooth="yes"/>
      <point x="76" y="346"/>
      <point x="94" y="308"/>
      <point x="125" y="282" type="curve"/>
      <point x="85" y="246"/>
      <point x="71" y="202"/>
      <point x="71" y="169" type="curve" smooth="yes"/>
    </contour>
    <contour>
      <point x="213" y="409"/>
      <point x="232" y="425"/>
      <point x="252" y="425" type="curve" smooth="yes"/>
      <point x="463" y="425" type="line"/>
      <point x="463" y="569" type="line"/>
      <point x="590" y="569" type="line"/>
      <point x="590" y="346" type="line"/>
      <point x="590" y="166"/>
      <point x="437" y="101"/>
      <point x="335" y="101" type="curve" smooth="yes"/>
      <point x="247" y="101"/>
      <point x="211" y="129"/>
      <point x="211" y="178" type="curve" smooth="yes"/>
      <point x="211" y="224"/>
      <point x="253" y="246"/>
      <point x="326" y="246" type="curve" smooth="yes"/>
      <point x="447" y="246" type="line"/>
      <point x="432" y="349" type="line"/>
      <point x="252" y="349" type="line" smooth="yes"/>
      <point x="232" y="349"/>
      <point x="213" y="367"/>
      <point x="213" y="388" type="curve" smooth="yes"/>
    </contour>
  </outline>
</glyph>
<glyph name="dv_DdRaMatraUu" format="1">
  <advance width="539"/>
  <outline>
    <contour>
      <point x="160" y="-177" type="line"/>
      <point x="273" y="-78" type="line"/>
      <point x="385" y="-177" type="line"/>
      <point x="467" y="-122" type="line"/>
      <point x="342" y="-8" type="line"/>
      <point x="450" y="13"/>
      <point x="508" y="86"/>
      <point x="508" y="162" type="curve" smooth="yes"/>
      <point x="508" y="281"/>
      <point x="419" y="330"/>
      <point x="298" y="330" type="curve" smooth="yes"/>
      <point x="224" y="330" type="line" smooth="yes"/>
      <point x="197" y="330"/>
      <point x="177" y="349"/>
      <point x="177" y="369" type="curve" smooth="yes"/>
      <point x="177" y="389"/>
      <point x="195" y="406"/>
      <point x="223" y="406" type="curve" smooth="yes"/>
      <point x="449" y="406" type="line"/>
      <point x="449" y="569" type="line"/>
      <point x="551" y="569" type="line"/>
      <point x="533" y="680" type="line"/>
      <point x="-11" y="680" type="line"/>
      <point x="6" y="569" type="line"/>
      <point x="323" y="569" type="line"/>
      <point x="323" y="524" type="line"/>
      <point x="218" y="524" type="line" smooth="yes"/>
      <point x="120" y="524"/>
      <point x="45" y="470"/>
      <point x="45" y="369" type="curve" smooth="yes"/>
      <point x="45" y="272"/>
      <point x="133" y="213"/>
      <point x="220" y="213" type="curve" smooth="yes"/>
      <point x="306" y="213" type="line" smooth="yes"/>
      <point x="350" y="213"/>
      <point x="365" y="190"/>
      <point x="365" y="162" type="curve" smooth="yes"/>
      <point x="365" y="129"/>
      <point x="331" y="100"/>
      <point x="265" y="100" type="curve" smooth="yes"/>
      <point x="198" y="100"/>
      <point x="143" y="110"/>
      <point x="76" y="151" type="curve"/>
      <point x="52" y="37" type="line"/>
      <point x="91" y="15"/>
      <point x="142" y="-1"/>
      <point x="195" y="-9" type="curve"/>
      <point x="71" y="-122" type="line"/>
    </contour>
    <contour>
      <point x="323" y="-259"/>
      <point x="367" y="-305"/>
      <point x="429" y="-379" type="curve"/>
      <point x="506" y="-327" type="line"/>
      <point x="440" y="-223"/>
      <point x="356" y="-159"/>
      <point x="271" y="-159" type="curve" smooth="yes"/>
      <point x="186" y="-159"/>
      <point x="116" y="-212"/>
      <point x="116" y="-301" type="curve" smooth="yes"/>
      <point x="116" y="-390"/>
      <point x="189" y="-443"/>
      <point x="261" y="-443" type="curve" smooth="yes"/>
      <point x="310" y="-443" type="line"/>
      <point x="310" y="-343" type="line"/>
      <point x="269" y="-343" type="line" smooth="yes"/>
      <point x="240" y="-343"/>
      <point x="221" y="-325"/>
      <point x="221" y="-301" type="curve" smooth="yes"/>
      <point x="221" y="-276"/>
      <point x="237" y="-259"/>
      <point x="269" y="-259" type="curve" smooth="yes"/>
    </contour>
  </outline>
</glyph>
<glyph name="dv_DdhRaMatraUu" format="1">
  <advance width="638"/>
  <outline>
    <contour>
      <point x="253" y="-177" type="line"/>
      <point x="366" y="-78" type="line"/>
      <point x="478" y="-177" type="line"/>
      <point x="560" y="-122" type="line"/>
      <point x="437" y="-10" type="line"/>
      <point x="534" y="13"/>
      <point x="594" y="81"/>
      <point x="594" y="167" type="curve" smooth="yes"/>
      <point x="594" y="260"/>
      <point x="526" y="318"/>
      <point x="433" y="318" type="curve" smooth="yes"/>
      <point x="345" y="318"/>
      <point x="275" y="248"/>
      <point x="275" y="160" type="curve" smooth="yes"/>
      <point x="275" y="143"/>
      <point x="278" y="115"/>
      <point x="290" y="102" type="curve"/>
      <point x="236" y="120"/>
      <point x="184" y="171"/>
      <point x="183" y="246" type="curve"/>
      <point x="183" y="339"/>
      <point x="269" y="390"/>
      <point x="378" y="390" type="curve" smooth="yes"/>
      <point x="523" y="390" type="line"/>
      <point x="522" y="508" type="line"/>
      <point x="522" y="569" type="line"/>
      <point x="650" y="569" type="line"/>
      <point x="634" y="680" type="line"/>
      <point x="-11" y="680" type="line"/>
      <point x="6" y="569" type="line"/>
      <point x="381" y="569" type="line"/>
      <point x="381" y="508" type="line"/>
      <point x="378" y="508" type="line" smooth="yes"/>
      <point x="206" y="508"/>
      <point x="55" y="416"/>
      <point x="55" y="245" type="curve" smooth="yes"/>
      <point x="55" y="84"/>
      <point x="168" y="10"/>
      <point x="286" y="-11" type="curve"/>
      <point x="164" y="-122" type="line"/>
    </contour>
    <contour>
      <point x="417" y="-259"/>
      <point x="461" y="-305"/>
      <point x="523" y="-379" type="curve"/>
      <point x="600" y="-327" type="line"/>
      <point x="534" y="-223"/>
      <point x="450" y="-159"/>
      <point x="365" y="-159" type="curve" smooth="yes"/>
      <point x="280" y="-159"/>
      <point x="210" y="-212"/>
      <point x="210" y="-301" type="curve" smooth="yes"/>
      <point x="210" y="-390"/>
      <point x="283" y="-443"/>
      <point x="355" y="-443" type="curve" smooth="yes"/>
      <point x="404" y="-443" type="line"/>
      <point x="404" y="-343" type="line"/>
      <point x="363" y="-343" type="line" smooth="yes"/>
      <point x="334" y="-343"/>
      <point x="315" y="-325"/>
      <point x="315" y="-301" type="curve" smooth="yes"/>
      <point x="315" y="-276"/>
      <point x="331" y="-259"/>
      <point x="363" y="-259" type="curve" smooth="yes"/>
    </contour>
    <contour>
      <point x="394" y="188"/>
      <point x="414" y="202"/>
      <point x="438" y="202" type="curve" smooth="yes"/>
      <point x="463" y="202"/>
      <point x="479" y="188"/>
      <point x="479" y="165" type="curve" smooth="yes"/>
      <point x="479" y="140"/>
      <point x="454" y="107"/>
      <point x="419" y="102" type="curve"/>
      <point x="402" y="117"/>
      <point x="394" y="137"/>
      <point x="394" y="158" type="curve" smooth="yes"/>
    </contour>
  </outline>
</glyph>
<glyph name="dv_Ddh.half" format="1">
  <advance width="638"/>
  <outline>
    <contour>
      <point x="55" y="48"/>
      <point x="225" y="-18"/>
      <point x="365" y="-18" type="curve" smooth="yes"/>
      <point x="503" y="-18"/>
      <point x="594" y="62"/>
      <point x="594" y="167" type="curve" smooth="yes"/>
      <point x="594" y="260"/>
      <point x="526" y="318"/>
      <point x="433" y="318" type="curve" smooth="yes"/>
      <point x="345" y="318"/>
      <point x="275" y="248"/>
      <point x="275" y="160" type="curve" smooth="yes"/>
      <point x="275" y="143"/>
      <point x="278" y="115"/>
      <point x="290" y="102" type="curve"/>
      <point x="236" y="120"/>
      <point x="184" y="171"/>
      <point x="183" y="246" type="curve"/>
      <point x="183" y="339"/>
      <point x="269" y="390"/>
      <point x="378" y="390" type="curve" smooth="yes"/>
      <point x="523" y="390" type="line"/>
      <point x="522" y="508" type="line"/>
      <point x="522" y="569" type="line"/>
      <point x="650" y="569" type="line"/>
      <point x="634" y="680" type="line"/>
      <point x="-11" y="680" type="line"/>
      <point x="6" y="569" type="line"/>
      <point x="381" y="569" type="line"/>
      <point x="381" y="508" type="line"/>
      <point x="378" y="508" type="line" smooth="yes"/>
      <point x="206" y="508"/>
      <point x="55" y="416"/>
      <point x="55" y="245" type="curve" smooth="yes"/>
    </contour>
    <contour>
      <point x="394" y="188"/>
      <point x="414" y="202"/>
      <point x="438" y="202" type="curve" smooth="yes"/>
      <point x="463" y="202"/>
      <point x="479" y="188"/>
      <point x="479" y="165" type="curve" smooth="yes"/>
      <point x="479" y="140"/>
      <point x="454" y="107"/>
      <point x="419" y="102" type="curve"/>
      <point x="402" y="117"/>
      <point x="394" y="137"/>
      <point x="394" y="158" type="curve" smooth="yes"/>
    </contour>
    <contour>
      <point x="504" y="-365" type="line"/>
      <point x="587" y="-291" type="line"/>
      <point x="365" y="-67" type="line"/>
      <point x="269" y="-155" type="line"/>
    </contour>
  </outline>
</glyph>
<glyph name="dv_DhDda" format="1">
  <advance width="955"/>
  <outline>
    <contour>
      <point x="201" y="551"/>
      <point x="229" y="571"/>
      <point x="255" y="571" type="curve" smooth="yes"/>
      <point x="275" y="571"/>
      <point x="292" y="568"/>
      <point x="314" y="549" type="curve"/>
      <point x="381" y="640" type="line"/>
      <point x="354" y="666"/>
      <point x="314" y="694"/>
      <point x="251" y="694" type="curve" smooth="yes"/>
      <point x="140" y="694"/>
      <point x="68" y="617"/>
      <point x="68" y="530" type="curve" smooth="yes"/>
      <point x="68" y="483"/>
      <point x="91" y="444"/>
      <point x="120" y="416" type="curve"/>
      <point x="83" y="384"/>
      <point x="57" y="345"/>
      <point x="57" y="290" type="curve" smooth="yes"/>
      <point x="57" y="167"/>
      <point x="145" y="103"/>
      <point x="282" y="103" type="curve" smooth="yes"/>
      <point x="353" y="103"/>
      <point x="451" y="113"/>
      <point x="539" y="237" type="curve"/>
      <point x="567" y="221"/>
      <point x="601" y="213"/>
      <point x="634" y="213" type="curve" smooth="yes"/>
      <point x="720" y="213" type="line" smooth="yes"/>
      <point x="765" y="213"/>
      <point x="780" y="190"/>
      <point x="780" y="162" type="curve" smooth="yes"/>
      <point x="780" y="129"/>
      <point x="746" y="100"/>
      <point x="680" y="100" type="curve" smooth="yes"/>
      <point x="613" y="100"/>
      <point x="559" y="110"/>
      <point x="492" y="151" type="curve"/>
      <point x="466" y="37" type="line"/>
      <point x="526" y="4"/>
      <point x="609" y="-15"/>
      <point x="687" y="-15" type="curve" smooth="yes"/>
      <point x="840" y="-15"/>
      <point x="923" y="71"/>
      <point x="923" y="162" type="curve" smooth="yes"/>
      <point x="923" y="281"/>
      <point x="834" y="330"/>
      <point x="713" y="330" type="curve" smooth="yes"/>
      <point x="640" y="330" type="line" smooth="yes"/>
      <point x="611" y="330"/>
      <point x="592" y="349"/>
      <point x="592" y="369" type="curve" smooth="yes"/>
      <point x="592" y="389"/>
      <point x="609" y="406"/>
      <point x="638" y="406" type="curve" smooth="yes"/>
      <point x="864" y="406" type="line"/>
      <point x="864" y="569" type="line"/>
      <point x="966" y="569" type="line"/>
      <point x="948" y="680" type="line"/>
      <point x="403" y="680" type="line"/>
      <point x="420" y="569" type="line"/>
      <point x="737" y="569" type="line"/>
      <point x="737" y="524" type="line"/>
      <point x="633" y="524" type="line" smooth="yes"/>
      <point x="535" y="524"/>
      <point x="461" y="463"/>
      <point x="461" y="369" type="curve" smooth="yes"/>
      <point x="461" y="357" type="line"/>
      <point x="436" y="269"/>
      <point x="366" y="227"/>
      <point x="285" y="227" type="curve" smooth="yes"/>
      <point x="236" y="227"/>
      <point x="196" y="248"/>
      <point x="196" y="288" type="curve" smooth="yes"/>
      <point x="196" y="326"/>
      <point x="231" y="356"/>
      <point x="295" y="356" type="curve" smooth="yes"/>
      <point x="358" y="356" type="line"/>
      <point x="339" y="465" type="line"/>
      <point x="290" y="465" type="line" smooth="yes"/>
      <point x="233" y="465"/>
      <point x="201" y="484"/>
      <point x="201" y="524" type="curve" smooth="yes"/>
    </contour>
  </outline>
</glyph>
<glyph name="dv_DhDha" format="1">
  <advance width="1178"/>
  <outline>
    <contour>
      <point x="938" y="0" type="line"/>
      <point x="1079" y="-16" type="line"/>
      <point x="1079" y="569" type="line"/>
      <point x="1190" y="569" type="line"/>
      <point x="1174" y="680" type="line"/>
      <point x="829" y="680" type="line"/>
      <point x="846" y="569" type="line"/>
      <point x="938" y="569" type="line"/>
      <point x="938" y="409" type="line" smooth="yes"/>
      <point x="938" y="271"/>
      <point x="833" y="188"/>
      <point x="731" y="188" type="curve" smooth="yes"/>
      <point x="654" y="188"/>
      <point x="611" y="218"/>
      <point x="611" y="265" type="curve" smooth="yes"/>
      <point x="611" y="316"/>
      <point x="652" y="344"/>
      <point x="716" y="344" type="curve" smooth="yes"/>
      <point x="779" y="344" type="line"/>
      <point x="742" y="453" type="line"/>
      <point x="710" y="453" type="line" smooth="yes"/>
      <point x="654" y="453"/>
      <point x="622" y="481"/>
      <point x="622" y="520" type="curve" smooth="yes"/>
      <point x="622" y="547"/>
      <point x="650" y="571"/>
      <point x="675" y="571" type="curve" smooth="yes"/>
      <point x="696" y="571"/>
      <point x="713" y="568"/>
      <point x="734" y="549" type="curve"/>
      <point x="801" y="640" type="line"/>
      <point x="774" y="666"/>
      <point x="735" y="694"/>
      <point x="671" y="694" type="curve" smooth="yes"/>
      <point x="561" y="694"/>
      <point x="488" y="613"/>
      <point x="488" y="526" type="curve" smooth="yes"/>
      <point x="488" y="480"/>
      <point x="514" y="426"/>
      <point x="546" y="403" type="curve"/>
      <point x="507" y="381"/>
      <point x="471" y="323"/>
      <point x="471" y="267" type="curve" smooth="yes"/>
      <point x="471" y="261" type="line"/>
      <point x="431" y="214"/>
      <point x="373" y="188"/>
      <point x="316" y="188" type="curve" smooth="yes"/>
      <point x="239" y="188"/>
      <point x="196" y="218"/>
      <point x="196" y="265" type="curve" smooth="yes"/>
      <point x="196" y="316"/>
      <point x="237" y="344"/>
      <point x="302" y="344" type="curve" smooth="yes"/>
      <point x="364" y="344" type="line"/>
      <point x="327" y="453" type="line"/>
      <point x="295" y="453" type="line" smooth="yes"/>
      <point x="239" y="453"/>
      <point x="206" y="481"/>
      <point x="206" y="520" type="curve" smooth="yes"/>
      <point x="206" y="547"/>
      <point x="234" y="571"/>
      <point x="260" y="571" type="curve" smooth="yes"/>
      <point x="281" y="571"/>
      <point x="298" y="568"/>
      <point x="320" y="549" type="curve"/>
      <point x="387" y="640" type="line"/>
      <point x="360" y="666"/>
      <point x="321" y="694"/>
      <point x="256" y="694" type="curve" smooth="yes"/>
      <point x="146" y="694"/>
      <point x="73" y="613"/>
      <point x="73" y="526" type="curve" smooth="yes"/>
      <point x="73" y="480"/>
      <point x="99" y="426"/>
      <point x="132" y="403" type="curve"/>
      <point x="92" y="381"/>
      <point x="57" y="323"/>
      <point x="57" y="267" type="curve" smooth="yes"/>
      <point x="57" y="158"/>
      <point x="134" y="62"/>
      <point x="314" y="62" type="curve" smooth="yes"/>
      <point x="411" y="62"/>
      <point x="478" y="102"/>
      <point x="520" y="135" type="curve"/>
      <point x="562" y="91"/>
      <point x="630" y="62"/>
      <point x="729" y="62" type="curve" smooth="yes"/>
      <point x="831" y="62"/>
      <point x="896" y="104"/>
      <point x="938" y="139" type="curve"/>
    </contour>
  </outline>
</glyph>
